<?xml version="1.0" encoding="utf-8"?>
<svg version="1.1" id="logo_centrogeo" xmlns="http://www.w3.org/2000/svg" xmlns:xlink="http://www.w3.org/1999/xlink" x="0px" y="0px" viewBox="0 0 96 96" style="enable-background:new 0 0 96 96;" xml:space="preserve">
<style type="text/css">
	.st0{opacity:1.00;fill-rule:evenodd;clip-rule:evenodd;fill:#6E3C14;fill-opacity:1.00;}
	.st1{opacity:1.00;fill-rule:evenodd;clip-rule:evenodd;fill:#DC7828;fill-opacity:1.00;}
	.st2{opacity:1.00;fill-rule:evenodd;clip-rule:evenodd;fill:#FFFFFF;fill-opacity:1.00;}
	.st3{opacity:1.00;fill-rule:evenodd;clip-rule:evenodd;fill:#6E3C14;fill-opacity:0.80;}
	.st4{opacity:1.00;fill-rule:evenodd;clip-rule:evenodd;fill:#A54119;fill-opacity:1.00;}
	.st5{opacity:1.00;fill-rule:evenodd;clip-rule:evenodd;fill:url(#FILL_GRADIENT);fill-opacity:1.00;}
</style>
<radialGradient id="FILL_GRADIENT" cx="32.3528" cy="11.5148" r="47.0596" fx="34.8119" fy="15.6264" gradientTransform="matrix(1.175 0 0 1.175 -0.2028 -0.1958)" gradientUnits="userSpaceOnUse">
	<stop offset="0.0" style="stop-color:#FFFFFF;stop-opacity:0.00"/>
	<stop offset="0.4" style="stop-color:#FFFFFF;stop-opacity:0.00"/>
	<stop offset="1.0" style="stop-color:#000000;stop-opacity:0.70"/>
</radialGradient>
<path class="st0" d="M4.52,94.917v-4.033H3.871L2.8,91.217v0.476l0.994-0.161v3.384H4.52L4.52,94.917z M6.949,90.813
	c-0.935,0-1.548,0.541-1.548,1.356c0,0.845,0.464,1.309,1.441,1.309c0.387,0,0.744-0.101,1.048-0.238
	c-0.071,0.601-0.339,1.237-1.31,1.237c-0.238,0-0.524-0.042-0.792-0.101v0.523c0.214,0.054,0.53,0.095,0.804,0.095
	c1.363,0,1.971-0.803,1.971-2.248C8.562,91.74,8.217,90.813,6.949,90.813L6.949,90.813z M6.991,92.96
	c-0.691,0-0.893-0.357-0.893-0.827c0-0.5,0.31-0.785,0.816-0.785c0.679,0,1.006,0.381,1.006,1.338v0.03
	C7.687,92.841,7.384,92.96,6.991,92.96L6.991,92.96z M10.855,91.413c0-0.464-0.369-0.785-0.851-0.785
	c-0.494,0-0.851,0.339-0.851,0.797s0.357,0.785,0.839,0.785C10.485,92.21,10.855,91.871,10.855,91.413L10.855,91.413z
	 M10.462,91.425c0,0.291-0.226,0.434-0.464,0.434c-0.244,0-0.458-0.149-0.458-0.434c0-0.28,0.208-0.44,0.458-0.44
	C10.247,90.985,10.462,91.146,10.462,91.425L10.462,91.425z M12.998,94.917v-4.033h-0.649l-1.072,0.333v0.476l0.994-0.161v3.384
	H12.998L12.998,94.917z M16.665,91.479V90.89h-2.828v0.589h2.161c-0.786,0.975-1.304,2.189-1.518,3.438h0.714
	C15.349,93.882,15.915,92.43,16.665,91.479L16.665,91.479z M17.682,92.288l0.071-1.564h-0.578l0.077,1.564H17.682L17.682,92.288z
	 M18.778,92.496v0.541h0.393c0.828,0,1.274,0.244,1.274,0.702c0,0.446-0.446,0.708-1.203,0.708c-0.327,0-0.643-0.036-0.947-0.119
	v0.541c0.28,0.077,0.643,0.125,0.988,0.125c1.191,0,1.887-0.458,1.887-1.243c0-0.541-0.417-0.91-1.173-1.023V92.71
	c0.643-0.083,1.018-0.434,1.018-0.934c0-0.619-0.524-0.964-1.47-0.964c-0.458,0-0.833,0.06-1.209,0.178v0.529
	c0.357-0.113,0.708-0.173,1.054-0.173c0.589,0,0.899,0.19,0.899,0.547c0,0.381-0.411,0.601-1.161,0.601H18.778L18.778,92.496z
	 M25.268,92.894c0-1.362-0.607-2.088-1.756-2.088c-1.149,0-1.762,0.732-1.762,2.088c0,1.38,0.613,2.106,1.768,2.106
	C24.649,95,25.268,94.256,25.268,92.894L25.268,92.894z M24.541,92.93c0,1.029-0.321,1.493-1.03,1.493
	c-0.732,0-1.042-0.452-1.042-1.541c0-1.029,0.327-1.499,1.042-1.499C24.22,91.384,24.541,91.865,24.541,92.93L24.541,92.93z
	 M26.41,92.288l0.071-1.564h-0.578l0.077,1.564H26.41L26.41,92.288z M27.392,92.288l0.071-1.564h-0.578l0.077,1.564H27.392
	L27.392,92.288z M31.489,94.917h0.631V90.89h-0.708v2.849h-0.006l-2.262-2.849h-0.738v4.027l0.708,0.006v-2.98h0.006L31.489,94.917
	L31.489,94.917z M39.698,90.813c-0.935,0-1.548,0.541-1.548,1.356c0,0.845,0.464,1.309,1.441,1.309c0.387,0,0.744-0.101,1.048-0.238
	c-0.071,0.601-0.339,1.237-1.31,1.237c-0.238,0-0.524-0.042-0.792-0.101v0.523c0.214,0.054,0.53,0.095,0.804,0.095
	c1.363,0,1.971-0.803,1.971-2.248C41.311,91.74,40.966,90.813,39.698,90.813L39.698,90.813z M39.74,92.96
	c-0.691,0-0.893-0.357-0.893-0.827c0-0.5,0.31-0.785,0.816-0.785c0.679,0,1.006,0.381,1.006,1.338v0.03
	C40.436,92.841,40.133,92.96,39.74,92.96L39.74,92.96z M43.395,90.813c-0.935,0-1.548,0.541-1.548,1.356
	c0,0.845,0.464,1.309,1.441,1.309c0.387,0,0.744-0.101,1.048-0.238c-0.071,0.601-0.339,1.237-1.31,1.237
	c-0.238,0-0.524-0.042-0.792-0.101v0.523c0.214,0.054,0.53,0.095,0.804,0.095c1.363,0,1.971-0.803,1.971-2.248
	C45.008,91.74,44.663,90.813,43.395,90.813L43.395,90.813z M43.437,92.96c-0.691,0-0.893-0.357-0.893-0.827
	c0-0.5,0.31-0.785,0.816-0.785c0.679,0,1.006,0.381,1.006,1.338v0.03C44.133,92.841,43.83,92.96,43.437,92.96L43.437,92.96z
	 M47.3,91.413c0-0.464-0.369-0.785-0.851-0.785c-0.494,0-0.851,0.339-0.851,0.797s0.357,0.785,0.839,0.785
	C46.931,92.21,47.3,91.871,47.3,91.413L47.3,91.413z M46.908,91.425c0,0.291-0.226,0.434-0.464,0.434
	c-0.244,0-0.458-0.149-0.458-0.434c0-0.28,0.208-0.44,0.458-0.44C46.693,90.985,46.908,91.146,46.908,91.425L46.908,91.425z
	 M49.444,94.917v-4.033h-0.649l-1.072,0.333v0.476l0.994-0.161v3.384H49.444L49.444,94.917z M50.819,92.496v0.541h0.393
	c0.828,0,1.274,0.244,1.274,0.702c0,0.446-0.446,0.708-1.203,0.708c-0.327,0-0.643-0.036-0.947-0.119v0.541
	c0.28,0.077,0.643,0.125,0.988,0.125c1.191,0,1.887-0.458,1.887-1.243c0-0.541-0.417-0.91-1.173-1.023V92.71
	c0.643-0.083,1.018-0.434,1.018-0.934c0-0.619-0.524-0.964-1.47-0.964c-0.458,0-0.833,0.06-1.209,0.178v0.529
	c0.357-0.113,0.708-0.173,1.054-0.173c0.589,0,0.899,0.19,0.899,0.547c0,0.381-0.411,0.601-1.161,0.601H50.819L50.819,92.496z
	 M54.283,92.288l0.071-1.564h-0.578l0.077,1.564H54.283L54.283,92.288z M56.534,94.917v-4.033h-0.649l-1.072,0.333v0.476
	l0.994-0.161v3.384H56.534L56.534,94.917z M60.201,91.479V90.89h-2.828v0.589h2.161c-0.786,0.975-1.304,2.189-1.518,3.438h0.714
	C58.886,93.882,59.451,92.43,60.201,91.479L60.201,91.479z M61.218,92.288l0.071-1.564h-0.578l0.077,1.564H61.218L61.218,92.288z
	 M62.201,92.288l0.071-1.564h-0.578l0.077,1.564H62.201L62.201,92.288z M65.167,95c1.506,0,2.227-0.922,2.227-2.106
	c0-1.19-0.679-2.088-2.203-2.088c-1.524,0-2.233,0.94-2.233,2.123C62.958,94.155,63.631,95,65.167,95L65.167,95z M65.173,94.423
	c-1.048,0-1.476-0.672-1.476-1.517c0-0.809,0.423-1.523,1.476-1.523c1.06,0,1.476,0.684,1.476,1.523
	C66.649,93.727,66.232,94.423,65.173,94.423L65.173,94.423z M73.233,91.074v0.559c0.363-0.149,0.81-0.274,1.28-0.274
	c0.488,0,0.881,0.184,0.881,0.666c0,0.41-0.214,0.815-1.048,1.451l-1.161,0.904v0.535h3.084v-0.589h-2.131v-0.012l0.822-0.607
	c0.72-0.529,1.161-1.035,1.161-1.725c0-0.827-0.661-1.178-1.524-1.178C74.096,90.807,73.655,90.908,73.233,91.074L73.233,91.074z
	 M77.257,93.418l1.381-2.528H77.96l-1.387,2.48v0.619h2.036v0.928h0.685v-0.928h0.714v-0.571h-0.714V92.43h-0.536l-0.149,0.987
	H77.257L77.257,93.418z M83.401,91.776c0-0.577-0.56-0.97-1.381-0.97c-0.887,0-1.453,0.428-1.453,1.089
	c0,0.404,0.238,0.714,0.756,0.97c-0.595,0.244-0.899,0.601-0.899,1.071c0,0.63,0.613,1.065,1.506,1.065
	c0.964,0,1.607-0.464,1.607-1.16c0-0.452-0.292-0.761-0.964-1.047C83.127,92.549,83.401,92.216,83.401,91.776L83.401,91.776z
	 M81.252,91.83c0-0.327,0.298-0.535,0.75-0.535c0.446,0,0.762,0.22,0.762,0.541c0,0.309-0.226,0.583-0.625,0.767
	C81.46,92.311,81.252,92.127,81.252,91.83L81.252,91.83z M82.847,93.923c0,0.333-0.333,0.553-0.875,0.553
	c-0.554,0-0.893-0.238-0.893-0.625c0-0.309,0.22-0.565,0.661-0.755C82.514,93.388,82.847,93.602,82.847,93.923L82.847,93.923z
	 M85.598,90.813c-0.935,0-1.548,0.541-1.548,1.356c0,0.845,0.464,1.309,1.441,1.309c0.387,0,0.744-0.101,1.048-0.238
	c-0.071,0.601-0.339,1.237-1.31,1.237c-0.238,0-0.524-0.042-0.792-0.101v0.523c0.214,0.054,0.53,0.095,0.804,0.095
	c1.363,0,1.971-0.803,1.971-2.248C87.211,91.74,86.866,90.813,85.598,90.813L85.598,90.813z M85.64,92.96
	c-0.691,0-0.893-0.357-0.893-0.827c0-0.5,0.31-0.785,0.816-0.785c0.679,0,1.006,0.381,1.006,1.338v0.03
	C86.336,92.841,86.033,92.96,85.64,92.96L85.64,92.96z M92.069,91.848c-0.435,0-0.828,0.161-1.191,0.482
	c-0.179-0.309-0.536-0.482-1.018-0.482c-0.381,0-0.768,0.149-1.125,0.434h-0.012v-0.375h-0.631v3.01h0.685v-2.278
	c0.238-0.173,0.518-0.262,0.798-0.262c0.494,0,0.732,0.232,0.732,0.714v1.826h0.685v-2.112c0-0.059-0.012-0.113-0.024-0.161
	c0.226-0.167,0.524-0.268,0.816-0.268c0.5,0,0.732,0.25,0.732,0.714v1.826H93.2v-1.945C93.2,92.228,92.813,91.848,92.069,91.848z"/>
<path class="st0" d="M72.07,75.652v-1.779c-0.961-0.374-2.065-0.64-3.668-0.64c-4.451,0-7.264,2.241-7.264,6.386
	c0,4.412,3.062,6.155,6.784,6.155c1.887,0,3.454-0.302,4.683-0.783v-5.799h-2.119v4.661c-0.605,0.125-1.335,0.213-2.332,0.213
	c-2.92,0-4.807-1.423-4.807-4.554c0-2.793,1.674-4.554,5.359-4.554C70.058,74.958,71.18,75.296,72.07,75.652L72.07,75.652z
	 M79.128,76.346c-2.849,0-4.683,1.85-4.683,4.696c0,2.971,1.887,4.732,5.128,4.732c1.157,0,2.475-0.249,3.436-0.64v-1.494
	c-1.193,0.409-2.172,0.623-3.08,0.623c-2.208,0-3.383-0.925-3.401-2.668h6.801v-0.889C83.33,77.965,81.781,76.346,79.128,76.346
	L79.128,76.346z M79.182,77.876c1.424,0,2.261,0.854,2.261,2.366h-4.914C76.582,78.801,77.615,77.876,79.182,77.876L79.182,77.876z
	 M95,81.113c0-2.882-2.065-4.767-5.199-4.767c-3.045,0-5.146,1.903-5.146,4.696c0,2.811,2.048,4.732,5.057,4.732
	C92.792,85.774,95,83.853,95,81.113L95,81.113z M92.846,81.096c0,1.868-1.228,3.131-3.027,3.131c-1.834,0-3.045-1.245-3.045-3.202
	c0-1.921,1.246-3.131,3.045-3.131C91.635,77.894,92.846,79.139,92.846,81.096z"/>
<path class="st1" d="M11.665,75.51v-1.797c-1.033-0.285-2.243-0.48-3.721-0.48C4.276,73.233,1,75.19,1,79.566
	c0,3.593,2.172,6.208,7.175,6.208c1.531,0,2.76-0.196,3.775-0.48v-1.743c-1.282,0.374-2.261,0.498-3.419,0.498
	c-3.686,0-5.288-1.886-5.288-4.554c0-2.811,1.959-4.536,5.146-4.536C9.546,74.958,10.633,75.19,11.665,75.51L11.665,75.51z
	 M17.709,76.346c-2.849,0-4.683,1.85-4.683,4.696c0,2.971,1.887,4.732,5.128,4.732c1.157,0,2.475-0.249,3.436-0.64v-1.494
	c-1.193,0.409-2.172,0.623-3.08,0.623c-2.208,0-3.383-0.925-3.401-2.668h6.801v-0.889C21.911,77.965,20.362,76.346,17.709,76.346
	L17.709,76.346z M17.762,77.876c1.424,0,2.261,0.854,2.261,2.366h-4.914C15.163,78.801,16.195,77.876,17.762,77.876L17.762,77.876z
	 M30.803,85.525h2.065v-5.817c0-2.224-1.246-3.362-3.401-3.362c-1.424,0-2.671,0.516-3.65,1.299h-0.036v-1.121h-1.887v9.001h2.048
	v-6.813c0.73-0.498,1.674-0.783,2.582-0.783c1.513,0,2.279,0.64,2.279,2.01V85.525L30.803,85.525z M38.004,83.052v-5.088h3.312
	v-1.441h-3.312v-2.473h-2.065v2.473h-1.816v1.441h1.816v5.052c0,1.814,1.068,2.757,3.045,2.757c0.712,0,1.602-0.107,2.19-0.249
	v-1.53c-0.623,0.16-1.157,0.231-1.62,0.231C38.502,84.227,38.004,83.871,38.004,83.052L38.004,83.052z M48.783,78.232v-1.886
	c-1.371,0-2.421,0.498-3.739,1.797h-0.053v-1.619h-1.887v9.001h2.048v-6.137C46.219,78.641,47.519,78.232,48.783,78.232
	L48.783,78.232z M59.723,81.113c0-2.882-2.065-4.767-5.199-4.767c-3.045,0-5.146,1.903-5.146,4.696c0,2.811,2.048,4.732,5.057,4.732
	C57.515,85.774,59.723,83.853,59.723,81.113L59.723,81.113z M57.569,81.096c0,1.868-1.229,3.131-3.027,3.131
	c-1.834,0-3.045-1.245-3.045-3.202c0-1.921,1.246-3.131,3.045-3.131C56.358,77.894,57.569,79.139,57.569,81.096z"/>
<path class="st2" d="M15.1,33.871C15.1,15.766,29.879,1,48,1s32.9,14.766,32.9,32.871c0,18.105-14.779,32.871-32.9,32.871
	S15.1,51.976,15.1,33.871z"/>
<path class="st3" d="M44.713,1.179L44.713,1.179L44.713,1.179L44.713,1.179C44.713,1.178,44.713,1.179,44.713,1.179
	c-0.002,0-0.005,0.001-0.005,0.001C44.708,1.18,44.712,1.179,44.713,1.179L44.713,1.179z M42.17,1.528L42.17,1.528
	c0.016-0.003,0.036-0.007,0.052-0.01c-0.013,0.002-0.031,0.005-0.044,0.007c-0.321,0.053-1.19,0.234-1.274,0.265
	c0.041,0,0.08-0.015,0.121-0.021c-0.005,0.002-0.011,0.004-0.016,0.005c0.23-0.048,0.458-0.105,0.688-0.153
	c-0.011,0.003-0.022,0.005-0.034,0.008c0.005-0.001,0.011-0.002,0.015-0.003c-0.108,0.024-0.173,0.04-0.255,0.06
	c0.215-0.035,0.426-0.09,0.639-0.136C42.098,1.543,42.134,1.535,42.17,1.528L42.17,1.528z M45.709,1.26L45.709,1.26
	c-0.036-0.037-0.036-0.037-1.211,0.088c-0.019,0.001-0.019,0.001-0.048-0.006c-0.047-0.016-0.047-0.016-0.165-0.004
	c0.059-0.013,0.138-0.03,0.197-0.043c-0.245,0.021-0.491,0.016-0.736,0.04l-0.019,0.012c-0.002,0.003-0.006,0.006-0.008,0.009
	c0.017,0.014,0.021,0.017,0.137,0.005c0,0,0,0,0,0l0,0c0,0,0,0,0,0c0,0,0,0,0,0l0,0c0,0,0,0,0,0l0,0c0,0,0,0,0,0
	c0.183-0.021,0.19-0.022,0.206-0.004c0.014,0,0.033,0,0.048-0.001c-0.095,0.052-0.097,0.055-0.116,0.08
	c0.011,0.012,0.03,0.033,0.181,0.023c0.052-0.003,0.122-0.009,0.174-0.014c0.048-0.005,0.078-0.021,0.11-0.038
	c0.004-0.002,0.008-0.006,0.012-0.006c0.033-0.002,0.058,0.024,0.09,0.022c0.207-0.011,0.411-0.041,0.617-0.061
	c0.106-0.024,0.106-0.024,0.145-0.019c-0.003,0.003-0.008,0.007-0.012,0.01c0.003,0,0.35-0.027,0.4-0.038
	c-0.01-0.004-0.023-0.01-0.032-0.017c0.002-0.004,0.005-0.008,0.007-0.012c-0.003,0.001-0.008,0.002-0.011,0.003
	c0.005-0.006,0.013-0.012,0.02-0.015c-0.002,0.003-0.005,0.008-0.008,0.011c0.011-0.003,0.022-0.007,0.033-0.01
	C45.717,1.272,45.713,1.265,45.709,1.26L45.709,1.26z M42.384,1.581c-0.109,0.033-0.259,0.078-0.358,0.099
	c-0.013,0.003-0.03,0.006-0.043,0.008c-0.05,0.009-0.101,0.009-0.151,0.015c-0.312,0.034-0.608,0.148-0.919,0.184
	c0.246-0.078,0.246-0.078,0.334-0.091c0.026-0.008,0.053-0.017,0.072-0.024c-0.047,0.008-0.047,0.008-0.055,0.006
	c0.028-0.016,0.062-0.018,0.09-0.034c-0.282,0.076-0.296,0.078-0.335,0.074c-0.03,0.002-0.071,0.005-0.101,0.006
	c0.06-0.016,0.121-0.031,0.182-0.046c0.627-0.156,0.663-0.155,0.728-0.152c-0.038,0.019-0.04,0.024-0.044,0.034
	c0.04,0.028,0.246-0.033,0.247-0.033C42.02,1.627,42.01,1.63,42,1.63c0.003-0.001,0.007-0.003,0.01-0.005
	c0.213-0.075,0.213-0.075,0.436-0.117c0.008-0.001,0.02-0.003,0.028-0.004c-0.213,0.07-0.213,0.07-0.218,0.08
	c0.08-0.008,0.156-0.034,0.237-0.037C42.46,1.557,42.417,1.571,42.384,1.581L42.384,1.581L42.384,1.581z M43.302,1.484L43.302,1.484
	l0.082-0.023c0.044-0.027,0.1-0.035,0.132-0.081c-0.005-0.002-0.005-0.002-0.018,0c-0.324,0.047-0.324,0.047-0.341,0.061
	c0.004,0,0.004,0,0.018-0.002c-0.014,0.016-0.044,0.028-0.044,0.028c0,0-0.021-0.001-0.025-0.012
	c-0.011-0.027-0.077-0.003-0.121,0.013c-0.082,0.029-0.082,0.029-0.099,0.023c0.001-0.013,0.014-0.018,0.019-0.028
	c-0.038-0.015-0.164,0.016-0.202,0.056c0,0.002,0,0.004,0,0.005c0.028,0.016,0.118,0.005,0.316-0.02
	c-0.039,0.021-0.08,0.038-0.081,0.038c0.005-0.006,0.005-0.006,0.054-0.034c-0.019,0.003-0.099,0.045-0.108,0.052
	c0.015,0.016,0.32-0.037,0.323-0.038C43.24,1.517,43.269,1.494,43.302,1.484L43.302,1.484z M43.534,1.512
	c-0.005,0.001-0.01,0.001-0.016,0.002c-0.026-0.009-0.06-0.022-0.085-0.032c0.099-0.017,0.196-0.047,0.296-0.063
	c0.093-0.012,0.098,0.007,0.067,0.067L43.534,1.512L43.534,1.512L43.534,1.512z M45.748,1.282L45.748,1.282
	c-0.001-0.001-0.009-0.005-0.02-0.005c0,0,0.001,0,0.001,0C45.745,1.284,45.749,1.283,45.748,1.282
	C45.748,1.282,45.748,1.282,45.748,1.282L45.748,1.282z M40.315,2.051L40.315,2.051c0.018-0.006,0.042-0.013,0.059-0.019
	c-0.007,0-0.016-0.001-0.023-0.001c0.018-0.014,0.018-0.014,0.065-0.038c-0.089-0.048-0.163,0.037-0.247,0.028
	c0.001-0.004,0.002-0.01,0.003-0.014c-0.012-0.01-0.012-0.01-0.056-0.002c-0.575,0.114-1.734,0.526-1.864,0.573
	c0.083-0.026,0.09-0.026,0.111-0.028c-0.075,0.062-0.167,0.096-0.25,0.144c0.151,0.003,0.28-0.077,0.421-0.114
	c0.51-0.149,1.014-0.318,1.526-0.46C40.225,2.08,40.225,2.08,40.315,2.051L40.315,2.051z M51.049,66.508l0.027-0.009l0.093-0.029
	L51.049,66.508L51.049,66.508z M29.197,6.888L29.197,6.888l0.002-0.001L29.2,6.886l0.001-0.001L29.197,6.888L29.197,6.888z
	 M29.141,6.927L29.141,6.927l0.056-0.039l-0.128,0.09l0.02-0.014C29.104,6.953,29.125,6.938,29.141,6.927L29.141,6.927z
	 M36.681,3.719c0.02-0.012,0.047-0.029,0.067-0.041c-0.52,0.19-0.52,0.19-0.553,0.161c0.016-0.041,0.079-0.081,0.08-0.081
	c0.038-0.019,0.081-0.005,0.12-0.02c0.074-0.029,0.14-0.072,0.211-0.108c-0.173,0.034-0.304,0.072-0.665,0.187
	c-0.237,0.076-0.48,0.13-0.718,0.205c0,0-0.082,0.052-0.124,0.084c0.012,0.002,0.012,0.002,0.108-0.026
	c0.55-0.16,0.55-0.16,0.611-0.132c-0.13,0.052-0.303,0.122-0.433,0.174c-0.144,0.065-0.288,0.132-0.431,0.198
	c-0.018,0.008-0.036,0.016-0.054,0.025c0.076-0.013,0.154,0.001,0.228-0.026c0.204-0.074,0.391-0.193,0.605-0.242
	c-0.055,0.035-0.111,0.071-0.166,0.107c-0.171,0.046-0.183,0.052-0.38,0.148c0.18-0.038,0.346-0.122,0.522-0.172
	C35.791,4.106,35.874,4.053,35.956,4C36.285,3.952,36.305,3.949,36.681,3.719L36.681,3.719L36.681,3.719z M46.116,10.106
	c0.037,0.007,0.087,0.014,0.124,0.021c-0.066-0.265-0.214-0.501-0.278-0.767C45.84,9.382,45.729,9.453,45.6,9.43
	c-0.22-0.04-0.276-0.099-0.326-0.172c-0.097-0.142-0.151-0.152-0.639-0.122c0,0-0.001,0-0.001,0c0,0-0.001,0-0.001,0
	c0,0-0.001,0-0.001,0c0,0-0.001,0-0.001,0c0,0-0.001,0-0.001,0c0,0-0.001,0-0.001,0c0,0-0.001,0-0.001,0c0,0-0.001,0-0.001,0
	c-0.221,0.023-0.442,0.049-0.663,0.072c-0.045,0.129-0.052,0.142-0.09,0.154c-0.052,0.002-0.097,0.004-0.17,0.049
	c-0.373,0.229-0.795,0.363-1.162,0.602c-0.273,0.177-0.273,0.177-0.425,0.43c0.06-0.03,0.186-0.094,0.329-0.137
	c0.106-0.032,0.106-0.032,0.493,0.008c0.565,0.058,0.928-0.41,1.421-0.541c-0.268,0.346-0.268,0.346-0.28,0.38
	c0.067-0.035,0.225-0.118,0.3-0.12c0.048-0.001,0.081-0.002,0.133,0.067c0.073,0.096,0.14,0.158,0.396,0.137
	c0.338-0.028,0.638-0.229,0.986-0.214C45.974,10.027,46.036,10.091,46.116,10.106L46.116,10.106L46.116,10.106z M48.968,10.793
	L48.968,10.793c0.002,0.031,0.001,0.072,0.002,0.103c-0.347-0.013-0.636-0.218-0.965-0.29c0.259,0.259,0.259,0.259,0.262,0.293
	c-0.111,0.13-0.149,0.174-0.206,0.388c-0.077,0.351-0.077,0.351-0.175,0.462c-0.189-0.053-0.189-0.053-0.496-0.53
	c-0.439,0.284-0.439,0.284-0.576,0.336c0.258-0.717,0.258-0.717,0.175-0.822c-0.211-0.265-0.579-0.245-1.006-0.222
	c-0.035,0.129-0.095,0.252-0.105,0.388c-0.099,0.05-0.217,0.031-0.315,0.088c-0.088,0.051-0.114,0.089-0.171,0.194
	c-0.143,0.261-0.08,0.509-0.007,0.796c0.149,0.584,0.028,0.735-0.684,0.851c-0.241-0.731-0.256-0.775-0.145-1.232
	c0.025-0.145,0.118-0.353,0.056-0.486c-0.037-0.08-0.022-0.133-0.022-0.133c0.039-0.124,0.1-0.198,0.254-0.305
	c0.326-0.226,1.068-0.289,1.512-0.326c0.038-0.004,0.048-0.009,0.1-0.034c0.189-0.092,0.718-0.291,1.533-0.151
	C48.931,10.321,48.955,10.628,48.968,10.793L48.968,10.793z M45.912,10.906c0-0.002-0.001-0.009-0.035-0.001
	c0.001,0.002,0.002,0.004,0.003,0.006C45.89,10.923,45.911,10.913,45.912,10.906L45.912,10.906L45.912,10.906z M49.71,11.766
	c0.014-0.023,0.03-0.056,0.042-0.08c-0.358,0.032-0.364,0.034-0.504,0.097c-0.003,0.001-0.316,0.138-0.485,0.158
	c-0.047,0.002-0.083-0.043-0.132-0.03c-0.036,0.01-0.109,0.037-0.357,0.162c-0.56,0.282-0.56,0.282-0.807,0.299
	c-0.108,0.008-0.141,0.01-0.233,0.018c0.136,0.27,0.289,0.396,0.707,0.29c0.148-0.037,1.318-0.544,1.416-0.594
	C49.566,11.979,49.659,11.852,49.71,11.766L49.71,11.766L49.71,11.766z M42.898,1.869c-0.06,0.042-0.122,0.063-0.201,0.088
	c-0.133,0.03-0.308,0.106-0.444,0.098c-0.063-0.004-0.092-0.067-0.148-0.085c-0.05-0.016-0.104,0.003-0.154-0.013
	c-0.005-0.002-0.012-0.004-0.018-0.007c-0.017-0.008-0.006-0.026-0.01-0.039c-0.002,0-0.005,0-0.006,0.001
	c0.121-0.078,0.212-0.054,0.213-0.053c0.095,0.031,0.096,0.032,0.288-0.051c-0.071-0.01-0.071-0.01-0.131-0.004
	c0.03-0.017,0.061-0.033,0.091-0.049c0.093-0.021,0.582-0.111,0.585-0.111c0.044-0.006,0.086,0.011,0.13,0.008
	c-0.144,0.071-0.144,0.071-0.344,0.117c0.127,0.022,0.127,0.022,0.145,0.047c0.061-0.06,0.061-0.06,0.127-0.078
	C42.98,1.791,42.952,1.83,42.898,1.869L42.898,1.869L42.898,1.869z M41.53,2.354L41.53,2.354c0.009-0.007,0.021-0.016,0.029-0.023
	c-0.175,0.006-0.34-0.058-0.511-0.074c0.189-0.092,0.321-0.274,0.532-0.331c0.037-0.01,0.199-0.059,0.2-0.059
	c0.03-0.017,0.042-0.033,0.051-0.046c-0.028-0.006-0.028-0.006-0.068,0c-0.236,0.042-0.236,0.042-0.286,0.106
	c-0.189,0.009-0.189,0.009-0.256,0.016c-0.181,0.08-0.319,0.247-0.534,0.257c-0.001-0.005-0.003-0.012-0.005-0.018
	c0.062-0.045,0.135-0.074,0.189-0.13c-0.001,0-0.11-0.033-0.174,0.025c-0.094,0.089-0.203,0.038-0.207,0.036
	c0.002-0.006,0.004-0.013,0.005-0.019c-0.153-0.029-0.28,0.062-0.42,0.093c0.104-0.045,0.21-0.081,0.315-0.123
	c-0.199,0.035-0.393,0.092-0.592,0.129c0,0,0,0,0,0c0,0,0,0,0,0l0,0c0,0,0,0,0,0c0,0,0,0,0,0l0,0c0,0,0,0,0,0l0,0l-0.369,0.116
	c-0.149,0.055-0.3,0.102-0.449,0.156c0.001,0.001,0.003,0.003,0.004,0.004c0.011,0.02,0.011,0.02,0.36-0.042
	c-0.027,0.012-0.055,0.024-0.082,0.036c-0.004,0.001-0.456,0.094-0.576,0.16c0.003,0.006,0.006,0.013,0.009,0.019
	c0.042,0.001,0.042,0.001,0.592-0.087c0.074-0.007,0.149,0.003,0.223-0.006c-0.111,0.044-0.111,0.044-0.496,0.101c0,0,0,0,0,0
	c0,0,0,0,0,0c0,0,0,0,0,0c0,0,0,0,0,0c0,0,0,0,0,0c0,0,0,0,0,0c0,0,0,0,0,0c0,0,0,0,0,0c-0.436,0.075-0.676,0.116-0.752,0.256
	c0.134,0.045,0.258-0.043,0.389-0.033c0,0.006-0.001,0.014-0.002,0.02c-0.047,0.038-0.099,0.068-0.144,0.108
	c0.051,0.029,0.051,0.029,0.199,0.003c0.222-0.039,0.586-0.124,0.878-0.192c0.189-0.044,0.359-0.148,0.552-0.179
	c0.01-0.002,0.023,0.006,0.032,0.009c0.251,0.073,0.45,0.06,0.573,0.037c0.18-0.035,0.277-0.075,0.414-0.146
	c-0.061-0.039-0.073-0.04-0.277,0.035c0.161-0.097,0.285-0.153,0.403-0.135C41.402,2.454,41.402,2.454,41.53,2.354L41.53,2.354z
	 M40.5,2.107c-0.001,0-0.002-0.002-0.002-0.008c0,0,0.001,0,0.001,0c0,0,0.001,0,0.001,0C40.502,2.1,40.502,2.107,40.5,2.107
	L40.5,2.107L40.5,2.107z M41.906,1.918L41.906,1.918c0.004-0.002,0.007-0.004,0.011-0.006c0,0,0,0-0.001,0
	c-0.007,0.003-0.013,0.007-0.013,0.008C41.904,1.92,41.905,1.919,41.906,1.918L41.906,1.918z M47.209,1.959L47.209,1.959
	c0,0-0.001,0.001-0.001,0.001C47.209,1.96,47.209,1.96,47.209,1.959L47.209,1.959z M46.172,1.051
	c0.103-0.006,0.195-0.01,0.279-0.014l0.009,0l0.231-0.01l0.019-0.001l0.003,0l0.015-0.001l0.002,0l0.006,0l0.009,0l0.002,0l0.006,0
	l0.008,0l0.003,0c0.085-0.003,0.164-0.006,0.243-0.008l0.001,0l0.01,0l0.005,0l0.005,0c0.071-0.002,0.166-0.004,0.307-0.008l0.002,0
	l0.002,0l0.009,0l0.112-0.002l0.009,0l0.002,0c0.074-0.001,0.158-0.002,0.244-0.003C47.822,1,47.968,1,48.227,1
	c0.241,0.002,0.529,0.008,0.808,0.016c0.141,0.005,0.321,0.012,0.569,0.021l0.132,0.007c0.329,0.018,0.719,0.049,1.023,0.069
	c0.314,0.029,0.712,0.072,1.419,0.149c0.157,0.023,0.323,0.049,0.495,0.076c0.815,0.13,1.76,0.304,2.5,0.447l0.345,0.079l0,0
	c0.023,0.008,0.051,0.023,0.073,0.032c0.02,0.009,0.046,0.02,0.066,0.028c-0.086-0.015-0.086-0.015-0.34-0.071
	c0.202,0.051,0.88,0.232,1.141,0.407c0.004,0.024,0.009,0.056,0.014,0.08c-0.289-0.109-0.289-0.109-0.377-0.126
	c0.108,0.043,0.217,0.082,0.325,0.123c-0.078-0.003-0.158-0.006-0.24-0.009c0.139,0.053,0.139,0.053,0.193,0.112
	c-0.021-0.001-0.05-0.003-0.071-0.004l0.329,0.081c0.018,0.008,1.921,0.932,2.118,1.246c-0.504,0.04-0.924-0.475-1.461-0.22
	c-1.593-0.84-3.418-1.03-5.036-1.798c0.205,0.024,0.205,0.024,0.339,0.023c-0.17-0.054-0.338-0.116-0.509-0.166l-0.023-0.003
	c-0.223-0.025-0.52-0.058-0.742-0.083c0.301,0.052,0.347,0.057,0.496,0.067c0.059,0.017,0.118,0.033,0.136,0.053
	c-0.032,0.012-0.032,0.012-0.53-0.015c-0.11-0.034-0.221-0.067-0.332-0.098c0.049-0.002,0.098-0.003,0.146-0.004
	c-0.102-0.02-0.238-0.046-0.341-0.066c0.243-0.001,0.484,0.029,0.727,0.031c-0.043-0.01-0.101-0.021-0.144-0.029
	c-0.398-0.047-0.807,0.021-1.198-0.109c0.01-0.01,0.024-0.023,0.034-0.033c-0.126,0.003-0.126,0.003-0.496-0.064
	c0.048,0.002,0.113,0.006,0.161,0.01c-0.144-0.034-0.291-0.039-0.437-0.061c-0.623-0.08-1.498-0.168-2.131-0.132
	c-0.005,0-0.69,0.035-1.052,0.02c0.064-0.009,0.149-0.023,0.213-0.034c-0.003,0-0.327,0.032-0.631,0.017
	c0.147-0.016,0.147-0.016,0.212-0.021l-0.005,0L46.172,1.051L46.172,1.051z M45.589,1.089l0.001,0l0.001,0
	c0.016-0.001,0.032-0.002,0.048-0.004l-0.044,0.003l-0.003,0l-0.001,0L45.589,1.089L45.589,1.089z M44.304,1.209
	c0.107-0.012,0.212-0.023,0.305-0.033l0.005-0.001c0.089-0.009,0.177-0.017,0.266-0.027l0,0l0.049-0.005l0.001,0v0
	c0.055-0.003,0.127-0.011,0.184-0.017l0.003,0l0.001,0l0.002,0l0.201-0.017h0l0.005,0l0.002,0l0.003,0
	c0.077-0.006,0.171-0.013,0.255-0.02l-0.041,0.003l-0.002,0h0c-0.013,0.001-0.026,0.002-0.039,0.004
	c0.069-0.003,0.139-0.007,0.208-0.01c0.01,0.002,0.024,0.004,0.031,0.011c-0.016,0.006-0.027,0.01-0.14,0.019
	c0.002,0.001,0.006,0.001,0.008,0.002c0.006,0.002,0.013,0.006,0.018,0.009c-0.011,0.007-0.012,0.008-0.074,0.013
	c0.061,0.014,0.061,0.014,0.166,0.003c0.016,0.004,0.031,0.009,0.047,0.014C45.6,1.199,45.6,1.199,45.397,1.2
	c-0.305,0.023-0.305,0.023-0.367,0.038c-0.167,0.014-0.39,0.034-0.557,0.048c0.02-0.012,0.02-0.012,0.279-0.066
	c-0.039-0.005-0.043-0.007-0.055-0.014c-0.001-0.002-0.001-0.006-0.002-0.008c0.094-0.009,0.094-0.009,0.273-0.006
	c-0.036-0.017-0.036-0.017-0.213-0.011c0.036-0.014,0.076-0.01,0.111-0.027c0,0,0-0.001-0.001-0.001
	c-0.046,0.007-0.046,0.007-0.128,0.016c-0.025,0.009-0.025,0.009-0.037,0.011c-0.002,0-0.255,0.045-0.348,0.037
	c-0.013-0.001-0.03-0.001-0.043-0.003c0.055-0.014,0.111-0.016,0.166-0.024c0.006-0.001,0.013-0.002,0.019-0.003
	C44.431,1.195,44.368,1.204,44.304,1.209L44.304,1.209z M43.575,1.3c0.065-0.009,0.126-0.017,0.182-0.025
	c-0.003,0.001-0.006,0.001-0.009,0.002c0.023-0.003,0.047-0.007,0.07-0.01c-0.044,0.015-0.104,0.036-0.15,0.041l0,0
	c-0.078,0.009-0.08,0.008-0.083,0.007c0.008-0.003,0.017-0.004,0.024-0.008c-0.087-0.003-0.17,0.028-0.257,0.032
	c0.012-0.004,0.06-0.013,0.083-0.018c0.033-0.004,0.067-0.009,0.101-0.013c0.015-0.003,0.03-0.005,0.045-0.009L43.575,1.3
	L43.575,1.3z M29.484,6.69l0.006-0.004l0.877-0.577c0.207-0.129,0.393-0.244,0.563-0.348c0.483-0.291,1.002-0.588,1.433-0.822
	l0.001-0.001c0.594-0.31,1.312-0.649,2.608-1.261l0.025-0.011c0.663-0.219,1.337-0.399,1.992-0.641l0.095-0.038
	c-0.001,0.025-0.001,0.058-0.002,0.083c0.098-0.036,0.23-0.085,0.328-0.121L37.16,3.096c0.199-0.068,0.199-0.068,1.159-0.044
	c-0.049,0.029-0.098,0.058-0.147,0.087c-0.098,0.036-0.229,0.083-0.327,0.119c0.316-0.018,0.316-0.018,1.07-0.174
	c0.195,0.042,0.195,0.042,0.856-0.174c-0.105-0.037-0.259,0.006-0.37,0.017c0.84-0.295,1.769,0,2.593-0.397
	c-0.118,0.004-0.275,0.009-0.392,0.013c0.262-0.1,0.662-0.213,0.929-0.125c-0.112,0.085-0.294,0.147-0.426,0.194
	c0.081,0.059,0.189,0.138,0.271,0.198c0.161-0.135,0.398-0.289,0.588-0.378c-0.008-0.042-0.02-0.097-0.028-0.139
	c-0.091-0.045-0.212-0.104-0.303-0.149c0.534-0.49,0.593-0.501,1.049-0.588c0.068,0.027,0.159,0.062,0.227,0.089
	c-0.197,0.044-0.456,0.123-0.644,0.196c-0.017,0.018-0.033,0.036,0.067,0.05c0.014,0.097,0.033,0.226,0.047,0.323l0.446,0.01
	l-0.046,0.215c0.135-0.065,0.316-0.153,0.451-0.218c0.053,0.088,0.124,0.205,0.177,0.293c0.103-0.003,0.239-0.008,0.342-0.011
	c-0.015-0.044-0.036-0.104-0.051-0.148c0.308-0.117,0.567-0.341,0.895-0.416c-0.821,0.059-1.186,0.034-1.427,0.018
	c0.105-0.035,0.246-0.082,0.352-0.117c-0.082-0.057-0.192-0.133-0.274-0.19c0.21-0.134,0.406-0.156,0.796-0.199
	c-0.062,0.079-0.145,0.183-0.207,0.262c0.098,0.012,0.229,0.028,0.327,0.04c-0.003-0.017-0.006-0.034-0.214-0.081
	c0.166-0.131,0.45-0.227,0.66-0.246c0.125,0.029,0.29,0.077,0.413,0.111l0.251-0.044c-0.112-0.055-0.278-0.085-0.399-0.115
	c0.37-0.003,0.731,0.08,1.096,0.117c0.165,0.029,0.39,0.036,0.557,0.035c0.487,0.088,0.984,0.093,1.47,0.182
	c-0.05,0.012-0.116,0.028-0.166,0.041c0.091,0.052,0.212,0.121,0.303,0.173c0.519,0.051,1.038,0.11,1.558,0.155
	c0.042,0.022,0.084,0.045,0.26,0.061c0.102,0.006,0.239,0.014,0.341,0.02c0.044,0.023,0.089,0.046-0.128,0.242
	c0.102,0.063,0.204,0.128,0.004,0.147c-0.745-0.159-0.745-0.159-1.023-0.093c0.004,0.001,0.689,0.209,1.493,0.401
	c0.039,0.029,0.078,0.058,0.034,0.235c0.084,0.039,0.195,0.091,0.278,0.13c-0.098-0.022-0.228-0.052-0.326-0.074
	c-0.33-0.057-0.775-0.135-1.109-0.115c0.676,0.161,0.676,0.161,0.927,0.352c-1.373-0.119-2.734-0.351-4.112-0.419
	c0.263-0.213,0.61-0.245,0.892-0.417c-0.022-0.026-0.045-0.051,0.022-0.096c0.084-0.061,0.196-0.142,0.281-0.203
	C48.33,2.16,48.056,2.07,47.847,2.022c-0.183-0.029-0.429-0.056-0.614-0.071c0.02-0.009,0.046-0.021,0.066-0.03
	c-0.24-0.032-0.56-0.074-0.8-0.104l-0.127,0.115c-0.026,0.002-0.053,0.004-0.357-0.054c-0.097,0.025-0.226,0.059-0.322,0.085
	c0.085,0.175,0.278,0.372,0.446,0.469c-0.182,0.096-0.448,0.183-0.652,0.216l-0.569,0.099c0.001,0.027,0.003,0.054-0.073,0.097
	c-0.079,0.06-0.185,0.14-0.264,0.2c-0.312,0.329-0.384,0.335-0.783,0.371l0,0h0h0c0,0,0,0,0,0l0,0h0h0h0
	c-1.82,0.951-1.82,0.951-2.169,1.51c0.027,0.106,0.062,0.248,0.089,0.354c0.102-0.013,0.237-0.03,0.339-0.043
	c0.134,0.162,0.31,0.381,0.439,0.547c0.202-0.064,0.484-0.113,0.695-0.128c1.182,0.225,2.387,0.286,3.568,0.51
	c0.264,0.727,0.264,0.727,0.429,0.949l0.882,0.472c0.053,0.025,0.123,0.058,0.175,0.083c0.193-0.12,0.42-0.333,0.556-0.514
	c-0.154-0.319-0.36-0.744-0.514-1.062c0.273-0.141,0.618-0.381,0.818-0.614c-0.292-0.771-0.978-1.265-1.381-1.959
	c0.011-0.002,1.16-0.234,2.126,0.055c0.882,0.156,1.581,0.851,2.514,0.857c0.134-0.152,0.241-0.425,0.246-0.627
	c0.461,0.183,0.51,0.202,1.243,0.536c2.169,1.164,2.169,1.164,3.328,1.267c-0.029,0.064-0.067,0.149-0.095,0.213
	c1.28,0.12,1.436,0.54,1.587,0.947c-4.76,1.901-4.76,1.901-4.815,2.174c1.498-0.914,1.91-1.038,2.48-0.617
	c-0.176,0.13-0.442,0.263-0.652,0.324c0.194,0.047,0.469,0.058,0.666,0.02c0.513,1.207,1.753,0.959,1.996,0.897
	c0.051-0.192,0.18-0.435,0.312-0.583c0.125,0.177,0.277,0.426,0.368,0.623c-0.104,0.025-0.242,0.059-0.346,0.084
	c-0.498,0.324-1.204,0.719-1.608,1.153c-0.111-0.038-0.258-0.088-0.369-0.126c-0.01-0.151-0.022-0.352-0.032-0.503
	c0.203-0.125,0.507-0.246,0.743-0.278c-0.016-0.03-0.032-0.059-0.182-0.082c-0.05,0.002-1.715,0.558-2.174,0.726
	c-0.19,0.134-0.435,0.327-0.599,0.492c0.036,0.298,0.121,0.732,0.334,0.943c-0.1,0.02-0.234,0.047-0.335,0.068l-1.287,0.325
	c0.102,0.062,0.239,0.144,0.341,0.205c-0.108,0.026-0.252,0.06-0.36,0.086c-0.155,0.302-0.199,0.655-0.427,0.922
	c-0.105-0.006-0.246-0.013-0.351-0.019c0.12,0.19,0.236,0.489,0.229,0.714c-0.096,0.086-0.223,0.201-0.319,0.287
	c-0.004-0.103-0.008-0.24-0.012-0.343c-0.11-0.007-0.257-0.016-0.367-0.022c0.334,1.194,0.495,1.357,0.718,1.583
	c-0.294,0.207-0.486,0.539-0.833,0.682c-2.71,2.228-2.762,2.27-2.114,3.33c1.461,2.389,1.207,2.805,0.616,3.208
	c-1.227-0.558-1.146-2.064-2.067-2.844c-0.189-0.108-0.441-0.253-0.63-0.361c-0.203,0.084-0.472,0.197-0.673,0.284
	c-0.603-0.358-0.666-0.359-1.158-0.366c-1.663,0.188-1.663,0.188-1.847,0.249c-0.027,0.097-0.063,0.227-0.09,0.324
	c0.024,0.142,0.055,0.331,0.079,0.473c-2.448-0.368-3.652,0.049-3.963,0.185c-0.349,1.055-1.854,1.47-1.589,2.865
	c-0.274,0.34-1.5,2.178,1.278,4.954c1.113,0.35,2.208-0.107,3.313-0.073c0.349-0.995,0.583-1.598,0.79-2.131
	c1.647-0.594,1.944-0.701,2.426-0.258c-0.086,0.759-0.462,1.461-0.429,2.243c-0.089-0.069-0.209-0.161-0.298-0.23
	c-0.04-0.04-0.094-0.094-0.134-0.134c0.138,0.827,0.138,0.827-0.228,2.354c3.652-0.462,4.412-0.558,4.278,1.106
	c-0.344,4.295,1.582,3.944,2.181,3.734c1.022-0.664,1.994,0.094,2.992,0.108c0.907-1.867,0.907-1.867,1.375-2.103
	c0.815-0.268,1.369-1.036,2.251-1.177c-0.016,0.25-0.168,0.569-0.313,0.773c0.07,0.13,0.163,0.304,0.233,0.435
	c0.906-0.525,0.94-0.61,0.933-1.114c0.491,0.388,1.177,0.524,1.489,1.145c1.245-0.12,2.497-0.17,3.736-0.348
	c-0.032,0.096-0.074,0.225-0.106,0.321c1.486,1.006,2.084,3.205,4.317,3.209c0.884,0.002,1.03,0.101,1.661,0.627
	c0.551,0.727,0.476,1.735,1.092,2.432c-0.026,0.217-0.054,0.434-0.188,0.699c-0.094,0.087-0.218,0.203-0.312,0.29
	c0,0.111,0,0.26,0,0.371c0.708,0.032,0.708,0.032,1.047,0.187c-0.122,0.27-0.285,0.63-0.408,0.901
	c0.155-0.181,0.289-0.493,0.483-0.63c0.123-0.087,1.523,0.015,1.329,1.384c1.476-0.549,1.665,1.505,2.74,1.911
	c-0.075,0.763-0.322,1.456-0.516,1.904l0,0c-0.217,0.484-2.56,3.256-2.58,3.277c-0.758,0.893-1.181,1.999-1.872,2.934
	c-0.947,1.193-0.947,1.193-1.323,1.564c-0.923,0.936-0.923,0.936-1.308,1.206c-8.536,6.114-8.536,6.114-9.107,5.831
	c-0.965,0.47-1.48,1.666-2.724,1.689c-0.003-0.011-0.006-0.026-0.009-0.037c-0.065,0.083-0.151,0.193-0.216,0.276
	c-0.489,0.434-0.489,0.434-1.053,0.477c-0.068,0.083-0.159,0.194-0.227,0.277c-0.01,0.013-0.01,0.013-0.78,0.634
	c-0.574,0.342-1.097,0.766-1.709,1.044c-0.483,0.229-0.483,0.229-0.93,0.438c-0.139,0.052-0.327,0.114-0.469,0.159l-0.015,0.004
	l0.265-0.118l0.174-0.131l0.173-0.117h0h0h0h0c0,0,0,0,0,0h0c0,0,0,0,0.121-0.144c0.073-0.08,0.17-0.187,0.243-0.267
	c0.012-0.001,0.024-0.002,0.116-0.054l0.214-0.165l0.03-0.029c-0.023-0.021-0.053-0.049-0.076-0.069
	c0.169-0.15,0.395-0.349,0.565-0.497c-0.054,0.089-0.125,0.208-0.179,0.297c0.223-0.252,0.509-0.608,0.654-0.912
	c-0.111,0.142-0.291,0.307-0.437,0.413c3.283-4.01,5.004-9.76,4.961-10.701c-0.088-1.917-2.168-2.073-2.971-3.358
	c-0.739-1.184-1.11-2.563-1.96-3.688c-0.226-0.299-0.601-0.395-0.872-0.632c-0.174-1.368-0.174-1.368,0.596-1.907
	c-0.02-0.103-0.046-0.239-0.066-0.342c-0.181-0.066-0.39-0.256-0.481-0.425c-0.1-0.797,0.466-1.466,0.435-2.25
	c0.371-0.188,0.371-0.188,1.038-1.258c0.227-0.338,0.531-0.79,0.758-1.128c-0.969-4.434-1.372-4.047-2.451-3.012
	c0.074,0.083,0.172,0.193,0.246,0.276c-0.033,0.1-0.076,0.233-0.109,0.333c-0.191,0.007-0.451-0.059-0.617-0.154
	c-2.219-1.271-2.654-1.37-3.039-1.458c0,0-0.001,0-0.001,0c0,0-0.001,0-0.001,0c0,0-0.001,0-0.001,0c0,0-0.001,0-0.001,0
	c0,0-0.001,0-0.001,0c0,0-0.001,0-0.001,0c0,0-0.001,0-0.001,0c0,0-0.001,0-0.018,0.002c-0.148-0.061-0.345-0.141-0.493-0.202
	c-0.175-0.72-0.298-0.849-0.567-1.133c-0.369-0.306-0.726-0.626-1.092-0.937c0.005-0.099,0.011-0.231,0.016-0.331
	c-0.698,0.233-0.698,0.233-1.388,0.055c-1.228-0.199-1.228-0.199-3.386-1.52c-0.999-0.612-1.841,0.413-2.795,0.268
	c-5.888-1.721-5.888-1.721-6.043-3.608c-0.246-0.638-0.705-1.826-2.496-2.711c0.206-1.073-1.301-1.916-1.682-1.989
	c0.153-0.67,0.231-1.79-0.963-1.761c-0.46,1.957,1.222,3.083,1.802,4.637l0.228,0.242l0.547,0.675
	c-0.131,0.099-0.306,0.23-0.438,0.329c-0.234-0.585-0.297-0.743-1.223-1.248c0.017-0.3,0.036-0.599,0.057-0.896
	c-0.444-0.269-1.035-0.629-1.481-0.896c0.161-0.152,0.375-0.354,0.535-0.506c-0.004-0.039-0.557-3.849-2.424-3.769
	c0.002-0.016-0.087-2.665-0.262-3.439c3.14-4.822,3.14-4.822,3.286-5.006l0.009-0.306c-0.098-0.049-0.228-0.114-0.326-0.163
	c0.013,0.1,0.031,0.234,0.044,0.335c-0.057,0.123-0.134,0.287-0.191,0.41c-0.088-0.051-0.204-0.118-0.292-0.169
	c-0.075-0.252-0.05-0.612-0.063-0.875c0.098,0.008,0.228,0.02,0.325,0.028c0.008-0.259,0.097-0.602,0.193-0.844
	c0.021-0.391,0.021-0.391,0.501-0.859l0.197-0.418c-0.024,0.006-0.048,0.011-0.13,0.077c-0.099,0.044-0.232,0.102-0.331,0.146
	c0.184-0.187,0.432-0.434,0.628-0.608c-0.056,0.027-0.13,0.063-0.185,0.09c0.082-0.064,0.191-0.15,0.272-0.215
	c0.189-0.131,0.43-0.326,0.588-0.493l-0.547,0.409c0.246-0.217,0.573-0.506,0.81-0.732c-0.405,0.331-0.405,0.331-1.29,1.135
	c0.54-0.654,0.54-0.654,0.886-0.827c-0.001-0.065-0.003-0.153-0.004-0.218c0.078-0.079,0.182-0.185,0.26-0.264l-0.086-0.005
	c-0.042,0.001-0.098,0.002-0.14,0.002L29.484,6.69L29.484,6.69z M47.738,2.233c-0.043-0.046-0.085-0.091-0.128-0.134
	c-0.104-0.001-0.207-0.019-0.311-0.009c-0.135,0.02-0.154,0.08-0.072,0.22C47.394,2.323,47.625,2.304,47.738,2.233L47.738,2.233z
	 M46.723,3.256L46.723,3.256c0.015-0.003,0.036-0.006,0.051-0.009c-0.125-0.087-0.125-0.087-0.48-0.053
	c-0.042-0.103-0.056-0.137-0.126-0.157c-0.023-0.006-0.053-0.015-0.076-0.019c-0.165-0.029-0.165-0.029-0.805-0.085
	c-0.019-0.002-0.083-0.01-0.104-0.045C45.16,2.85,45.14,2.844,44.973,2.824c-0.011,0.016-0.025,0.037-0.035,0.053
	c-0.076,0.134-0.098,0.21-0.1,0.449c-0.171,0.028-0.171,0.028-0.283,0.122c0.172-0.017,0.344-0.033,0.516-0.049
	c0.004,0.048,0.008,0.096,0.012,0.145c0.121-0.019,0.346-0.053,0.628-0.295c0.071-0.061,0.071-0.061,0.164-0.047
	c0.133,0.02,0.256,0.077,0.389,0.096c0.142,0.021,0.22,0.007,0.266-0.001C46.594,3.286,46.658,3.267,46.723,3.256L46.723,3.256z
	 M27.092,9.893L27.092,9.893c0,0.004-0.001,0.01-0.001,0.014c0.124-0.153,0.227-0.323,0.356-0.473
	c0.088-0.103,0.195-0.187,0.291-0.282c-0.051-0.033-0.121-0.077-0.209,0.015C27.235,9.482,27.109,9.693,27.092,9.893L27.092,9.893z
	 M61.915,9.034L61.915,9.034L61.73,8.529c-0.294,0.109-0.288,0.053-0.282-0.018c0.003-0.036,0.009-0.091-0.08-0.078
	C61.33,8.437,61.33,8.437,61.23,8.541c-0.152-0.262-0.152-0.262,0.011-0.336c-0.161-0.142-0.161-0.142-0.181-0.151
	c-0.092,0.065-0.092,0.065-0.165,0.079c-0.074-0.098-0.074-0.098-0.271-0.399c-0.155,0.004-0.362,0.01-0.518,0.014l-0.028,0.005
	l-0.111-0.009c-0.238-0.045-0.238-0.045-0.515-0.293c-0.124,0.049-0.128,0.054-0.225,0.168c-0.052-0.233-0.12-0.543-0.172-0.776
	c-0.068,0.002-0.136,0.004-0.204,0.007c-0.192,0.022-0.192,0.022,0.008,1.292c0.056,0.249,0.053,0.25-0.088,0.308
	c0.014,0.039,0.079,0.167,0.31,0.18c0.012,0.001,1.375,0.016,1.643-0.073c0.002,0.01,0.005,0.024,0.007,0.035
	c0.015,0.068,0.015,0.068-0.011,0.145c0.112-0.083,0.26-0.193,0.372-0.276c0.154,0.2,0.154,0.2,0.322,0.502
	c0.037-0.073,0.054-0.107,0.075-0.104C61.646,8.88,61.769,8.986,61.915,9.034L61.915,9.034z M43.828,20.324L43.828,20.324
	c0.001-0.044-0.045-0.136-0.052-0.139c0,0,0,0,0,0c-0.003,0.009,0.036,0.099,0.048,0.126C43.825,20.315,43.827,20.32,43.828,20.324
	L43.828,20.324z M55.341,26.419L55.341,26.419c0.055-0.009,0.128-0.016,0.183-0.023c-0.275-0.27-0.275-0.27-2.866-1.304
	c-0.599-0.151-1.158-0.428-1.766-0.55c-0.178-0.036-0.447-0.09-1.117-0.031c-1.36,0.127-1.642,0.479-1.926,1.197
	c0.239-0.123,0.557-0.288,0.796-0.411c0.576-0.363,0.576-0.363,1.071-0.41c0.015,0.02,0.04,0.044,0.063,0.055
	c0.008-0.008,0.02-0.019,0.028-0.026c-0.018,0.094-0.025,0.135-0.048,0.359c0.831-0.033,1.641,0.218,2.472,0.185
	c0.072,0.269,0.123,0.464,0.264,0.553c0.261,0.166,0.569,0.071,0.846,0.152c-0.013,0.057-0.013,0.057-0.317,0.558
	c0.121-0.01,0.216-0.019,0.339-0.035c0.314-0.041,0.613-0.175,0.937-0.156C54.577,26.546,54.577,26.546,55.341,26.419L55.341,26.419
	z M59.674,27.339L59.674,27.339c0.011-0.006,0.026-0.015,0.037-0.022c-0.086-0.184-0.119-0.253-0.148-0.273
	c-0.023-0.016-0.064-0.017-0.092-0.02c-0.081-0.009-0.255-0.049-0.515-0.219c-0.351-0.217-0.585-0.354-0.959-0.418
	c-0.033-0.006-0.078-0.008-0.112-0.008c-0.229,0.001-0.448,0.077-0.674,0.1c-0.234,0.024-0.449-0.101-0.681-0.087
	c-0.164,0.031-0.326,0.069-0.49,0.1c0.522,0.314,0.616,0.37,0.876,1.013c-0.462,0.022-0.922-0.045-1.384-0.035
	c0.011,0.089,0.021,0.178,0.031,0.267c0.198,0.034,0.754,0.095,1.646-0.07c0.061-0.011,0.061-0.011,0.085-0.009
	c0.026,0.146,0.127,0.24,0.44,0.468c0.164-0.502,0.164-0.502,0.202-0.523c0.125-0.068,0.867-0.208,1.148-0.205
	C59.557,27.404,59.557,27.404,59.674,27.339L59.674,27.339L59.674,27.339z M52.383,34.853L52.383,34.853
	c0-0.001-0.001-0.002-0.002-0.002c-0.001,0-0.002,0.001-0.001,0.001C52.381,34.854,52.382,34.854,52.383,34.853
	C52.383,34.854,52.383,34.854,52.383,34.853L52.383,34.853z M51.622,36.623L51.622,36.623
	C51.622,36.623,51.622,36.623,51.622,36.623c-0.003,0-0.006-0.001-0.009,0c0,0,0,0,0,0C51.613,36.624,51.615,36.624,51.622,36.623
	L51.622,36.623z M56.49,63.275L56.49,63.275c0.001-0.001,0.001-0.002,0.001-0.002c0,0-0.001,0-0.001,0
	c-0.009,0.002-0.008,0.003-0.008,0.003C56.483,63.276,56.487,63.276,56.49,63.275L56.49,63.275z M51.201,66.444
	c0.006-0.003,0.012-0.005,0.018-0.008l0,0c-0.003,0.001-0.035,0.016-0.036,0.017C51.189,66.45,51.195,66.447,51.201,66.444
	L51.201,66.444L51.201,66.444z M45.912,10.906L45.912,10.906c0-0.002-0.001-0.006-0.016-0.005c-0.005,0.001-0.011,0.002-0.018,0.003
	c0.007,0.02,0.031,0.009,0.034,0.003C45.912,10.907,45.912,10.907,45.912,10.906L45.912,10.906z M62.618,59.659
	c0.018-0.018,0.007-0.028-0.013-0.028c-0.003,0-0.008,0-0.011,0c-0.031,0.004-0.085,0.021-0.097,0.086
	C62.515,59.714,62.593,59.683,62.618,59.659L62.618,59.659z M58.549,34.345c0.025-0.312-0.37-0.576-0.56-0.702
	c-0.045,0.26-0.045,0.26-0.212,0.564c0.195,0.347,0.203,0.361,0.286,0.664C58.345,34.687,58.531,34.565,58.549,34.345z"/>
<path class="st4" d="M36.352,28.325c0.067,1.398,0.168,2.829,0.305,4.285c1.686,18.023,8.125,33.2,14.381,33.898
	c-6.399-0.681-12.954-15.844-14.64-33.867c-0.136-1.456-0.236-2.886-0.302-4.285c-12.888,1.564-20.956,3.238-20.994,4.231
	l0.011-0.272c0.046-0.992,8.103-2.664,20.971-4.225c-0.657-14.905,2.603-26.164,7.895-26.844l0.031-0.004
	c-5.178,0.652-8.345,11.904-7.67,26.816c0.236-0.028,0.473-0.057,0.712-0.085C54,25.963,72.444,24.931,78.246,25.669
	c1.052,0.134,1.616,0.317,1.734,0.538c0.019,0.084,0.037,0.168,0.056,0.254c-0.129-0.218-0.693-0.397-1.73-0.529
	c-5.809-0.739-24.273,0.294-41.241,2.308C36.826,28.268,36.588,28.296,36.352,28.325z"/>
<path class="st5" d="M15.1,33.871C15.1,15.766,29.879,1,48,1s32.9,14.766,32.9,32.871c0,18.105-14.779,32.871-32.9,32.871
	S15.1,51.976,15.1,33.871z"/>
</svg>
