<?xml version="1.0" encoding="utf-8"?>
<svg version="1.1" id="logo_centrogeo_wide" xmlns="http://www.w3.org/2000/svg" xmlns:xlink="http://www.w3.org/1999/xlink" x="0px" y="0px" viewBox="0 0 196 68" style="enable-background:new 0 0 196 68;" xml:space="preserve">
<style type="text/css">
	.st0{opacity:1.00;fill-rule:evenodd;clip-rule:evenodd;fill:#6E3C14;fill-opacity:1.00;}
	.st1{opacity:1.00;fill-rule:evenodd;clip-rule:evenodd;fill:#DC7828;fill-opacity:1.00;}
	.st2{opacity:1.00;fill-rule:evenodd;clip-rule:evenodd;fill:#FFFFFF;fill-opacity:1.00;}
	.st3{opacity:1.00;fill-rule:evenodd;clip-rule:evenodd;fill:#6E3C14;fill-opacity:0.80;}
	.st4{opacity:1.00;fill-rule:evenodd;clip-rule:evenodd;fill:#A54119;fill-opacity:1.00;}
	.st5{opacity:1.00;fill-rule:evenodd;clip-rule:evenodd;fill:url(#FILL_GRADIENT);fill-opacity:1.00;}
</style>
<radialGradient id="FILL_GRADIENT" cx="20.3529" cy="11.5148" r="47.0596" fx="22.812" fy="15.6264" gradientTransform="matrix(1.175 0 0 1.175 -0.2028 -0.1958)" gradientUnits="userSpaceOnUse">
	<stop offset="0.0" style="stop-color:#FFFFFF;stop-opacity:0.00"/>
	<stop offset="0.4" style="stop-color:#FFFFFF;stop-opacity:0.00"/>
	<stop offset="1.0" style="stop-color:#000000;stop-opacity:0.70"/>
</radialGradient>
<path class="st0" d="M81.661,42.674v-5.099h-0.82l-1.354,0.421v0.602l1.256-0.203v4.279H81.661L81.661,42.674z M84.729,37.485
	c-1.181,0-1.955,0.684-1.955,1.715c0,1.068,0.587,1.654,1.82,1.654c0.489,0,0.94-0.128,1.324-0.301
	c-0.09,0.76-0.429,1.564-1.654,1.564c-0.301,0-0.662-0.053-1-0.128v0.662c0.271,0.068,0.669,0.12,1.015,0.12
	c1.722,0,2.489-1.015,2.489-2.843C86.767,38.658,86.33,37.485,84.729,37.485L84.729,37.485z M84.781,40.2
	c-0.872,0-1.128-0.451-1.128-1.045c0-0.632,0.391-0.993,1.03-0.993c0.857,0,1.271,0.481,1.271,1.692v0.038
	C85.661,40.049,85.278,40.2,84.781,40.2L84.781,40.2z M89.662,38.244c0-0.587-0.466-0.993-1.075-0.993
	c-0.624,0-1.075,0.429-1.075,1.008c0,0.579,0.451,0.993,1.06,0.993C89.196,39.252,89.662,38.823,89.662,38.244L89.662,38.244z
	 M89.165,38.259c0,0.368-0.286,0.549-0.587,0.549c-0.308,0-0.579-0.188-0.579-0.549c0-0.353,0.263-0.556,0.579-0.556
	C88.895,37.703,89.165,37.906,89.165,38.259L89.165,38.259z M92.369,42.674v-5.099h-0.82l-1.354,0.421v0.602l1.256-0.203v4.279
	H92.369L92.369,42.674z M97.001,38.327v-0.744h-3.572v0.744h2.73c-0.993,1.233-1.647,2.767-1.918,4.347h0.902
	C95.339,41.365,96.054,39.53,97.001,38.327L97.001,38.327z M98.286,39.35l0.09-1.978h-0.731l0.098,1.978H98.286L98.286,39.35z
	 M99.671,39.613v0.684h0.496c1.045,0,1.609,0.308,1.609,0.887c0,0.564-0.564,0.895-1.519,0.895c-0.414,0-0.812-0.045-1.196-0.15
	v0.684c0.353,0.098,0.812,0.158,1.248,0.158c1.504,0,2.384-0.579,2.384-1.572c0-0.684-0.526-1.151-1.481-1.293v-0.023
	c0.812-0.105,1.286-0.549,1.286-1.181c0-0.782-0.662-1.218-1.857-1.218c-0.579,0-1.053,0.075-1.527,0.226v0.669
	c0.451-0.143,0.895-0.218,1.331-0.218c0.744,0,1.136,0.241,1.136,0.692c0,0.481-0.519,0.759-1.466,0.759H99.671L99.671,39.613z
	 M107.868,40.117c0-1.722-0.767-2.64-2.218-2.64c-1.451,0-2.226,0.925-2.226,2.64c0,1.745,0.775,2.662,2.233,2.662
	C107.086,42.779,107.868,41.839,107.868,40.117L107.868,40.117z M106.95,40.162c0,1.301-0.406,1.887-1.301,1.887
	c-0.925,0-1.316-0.572-1.316-1.948c0-1.301,0.414-1.895,1.316-1.895C106.544,38.207,106.95,38.816,106.95,40.162L106.95,40.162z
	 M109.31,39.35l0.09-1.978h-0.731l0.098,1.978H109.31L109.31,39.35z M110.551,39.35l0.09-1.978h-0.731l0.098,1.978H110.551
	L110.551,39.35z M115.726,42.674h0.797v-5.091h-0.895v3.602h-0.007l-2.858-3.602h-0.933v5.091l0.895,0.008v-3.768h0.008
	L115.726,42.674L115.726,42.674z M126.03,37.485c-1.181,0-1.955,0.684-1.955,1.715c0,1.068,0.587,1.654,1.82,1.654
	c0.489,0,0.94-0.128,1.324-0.301c-0.09,0.76-0.429,1.564-1.654,1.564c-0.301,0-0.662-0.053-1-0.128v0.662
	c0.271,0.068,0.669,0.12,1.015,0.12c1.722,0,2.489-1.015,2.489-2.843C128.068,38.658,127.632,37.485,126.03,37.485L126.03,37.485z
	 M126.083,40.2c-0.872,0-1.128-0.451-1.128-1.045c0-0.632,0.391-0.993,1.03-0.993c0.857,0,1.271,0.481,1.271,1.692v0.038
	C126.962,40.049,126.579,40.2,126.083,40.2L126.083,40.2z M130.7,37.485c-1.181,0-1.955,0.684-1.955,1.715
	c0,1.068,0.587,1.654,1.82,1.654c0.489,0,0.94-0.128,1.324-0.301c-0.09,0.76-0.429,1.564-1.654,1.564c-0.301,0-0.662-0.053-1-0.128
	v0.662c0.271,0.068,0.669,0.12,1.015,0.12c1.722,0,2.489-1.015,2.489-2.843C132.738,38.658,132.302,37.485,130.7,37.485
	L130.7,37.485z M130.753,40.2c-0.872,0-1.128-0.451-1.128-1.045c0-0.632,0.391-0.993,1.03-0.993c0.857,0,1.271,0.481,1.271,1.692
	v0.038C131.632,40.049,131.249,40.2,130.753,40.2L130.753,40.2z M135.633,38.244c0-0.587-0.466-0.993-1.075-0.993
	c-0.624,0-1.075,0.429-1.075,1.008c0,0.579,0.451,0.993,1.06,0.993C135.167,39.252,135.633,38.823,135.633,38.244L135.633,38.244z
	 M135.137,38.259c0,0.368-0.286,0.549-0.587,0.549c-0.308,0-0.579-0.188-0.579-0.549c0-0.353,0.263-0.556,0.579-0.556
	S135.137,37.906,135.137,38.259L135.137,38.259z M138.34,42.674v-5.099h-0.82l-1.354,0.421v0.602l1.256-0.203v4.279H138.34
	L138.34,42.674z M140.077,39.613v0.684h0.496c1.045,0,1.609,0.308,1.609,0.887c0,0.564-0.564,0.895-1.519,0.895
	c-0.414,0-0.812-0.045-1.196-0.15v0.684c0.353,0.098,0.812,0.158,1.248,0.158c1.504,0,2.384-0.579,2.384-1.572
	c0-0.684-0.526-1.151-1.481-1.293v-0.023c0.812-0.105,1.286-0.549,1.286-1.181c0-0.782-0.662-1.218-1.857-1.218
	c-0.579,0-1.053,0.075-1.527,0.226v0.669c0.451-0.143,0.895-0.218,1.331-0.218c0.744,0,1.136,0.241,1.136,0.692
	c0,0.481-0.519,0.759-1.466,0.759H140.077L140.077,39.613z M144.453,39.35l0.09-1.978h-0.731l0.098,1.978H144.453L144.453,39.35z
	 M147.297,42.674v-5.099h-0.82l-1.354,0.421v0.602l1.256-0.203v4.279H147.297L147.297,42.674z M151.929,38.327v-0.744h-3.572v0.744
	h2.73c-0.993,1.233-1.647,2.767-1.918,4.347h0.902C150.267,41.365,150.981,39.53,151.929,38.327L151.929,38.327z M153.214,39.35
	l0.09-1.978h-0.731l0.098,1.978H153.214L153.214,39.35z M154.454,39.35l0.09-1.978h-0.731l0.098,1.978H154.454L154.454,39.35z
	 M158.201,42.779c1.903,0,2.812-1.166,2.812-2.662c0-1.504-0.857-2.64-2.782-2.64s-2.82,1.188-2.82,2.685
	C155.411,41.711,156.26,42.779,158.201,42.779L158.201,42.779z M158.208,42.049c-1.324,0-1.865-0.85-1.865-1.918
	c0-1.023,0.534-1.925,1.865-1.925c1.339,0,1.865,0.865,1.865,1.925C160.073,41.17,159.547,42.049,158.208,42.049L158.208,42.049z
	 M168.324,37.816v0.707c0.459-0.188,1.023-0.346,1.617-0.346c0.617,0,1.113,0.233,1.113,0.842c0,0.519-0.271,1.03-1.324,1.835
	l-1.466,1.143v0.677h3.895v-0.744h-2.692v-0.015l1.038-0.767c0.91-0.669,1.466-1.308,1.466-2.181c0-1.045-0.835-1.489-1.925-1.489
	C169.415,37.477,168.858,37.605,168.324,37.816L168.324,37.816z M173.408,40.779l1.745-3.196h-0.857l-1.752,3.136V41.5h2.572v1.173
	h0.865V41.5h0.902v-0.722h-0.902V39.53h-0.677l-0.188,1.248H173.408L173.408,40.779z M181.168,38.703
	c0-0.729-0.707-1.226-1.745-1.226c-1.12,0-1.835,0.541-1.835,1.376c0,0.511,0.301,0.902,0.955,1.226
	c-0.752,0.308-1.136,0.76-1.136,1.354c0,0.797,0.775,1.346,1.903,1.346c1.218,0,2.03-0.587,2.03-1.466
	c0-0.572-0.368-0.963-1.218-1.324C180.822,39.681,181.168,39.26,181.168,38.703L181.168,38.703z M178.454,38.771
	c0-0.414,0.376-0.677,0.948-0.677c0.564,0,0.963,0.278,0.963,0.684c0,0.391-0.286,0.737-0.79,0.97
	C178.717,39.38,178.454,39.147,178.454,38.771L178.454,38.771z M180.469,41.418c0,0.421-0.421,0.699-1.105,0.699
	c-0.699,0-1.128-0.301-1.128-0.79c0-0.391,0.278-0.714,0.835-0.955C180.048,40.741,180.469,41.012,180.469,41.418L180.469,41.418z
	 M183.943,37.485c-1.181,0-1.955,0.684-1.955,1.715c0,1.068,0.587,1.654,1.82,1.654c0.489,0,0.94-0.128,1.324-0.301
	c-0.09,0.76-0.429,1.564-1.654,1.564c-0.301,0-0.662-0.053-1-0.128v0.662c0.271,0.068,0.669,0.12,1.015,0.12
	c1.722,0,2.489-1.015,2.489-2.843C185.981,38.658,185.545,37.485,183.943,37.485L183.943,37.485z M183.996,40.2
	c-0.872,0-1.128-0.451-1.128-1.045c0-0.632,0.391-0.993,1.03-0.993c0.857,0,1.271,0.481,1.271,1.692v0.038
	C184.876,40.049,184.492,40.2,183.996,40.2L183.996,40.2z M192.117,38.793c-0.549,0-1.045,0.203-1.504,0.609
	c-0.226-0.391-0.677-0.609-1.286-0.609c-0.481,0-0.97,0.188-1.421,0.549h-0.015v-0.474h-0.797v3.805h0.865v-2.88
	c0.301-0.218,0.654-0.331,1.008-0.331c0.624,0,0.925,0.293,0.925,0.902v2.309h0.865v-2.67c0-0.075-0.015-0.143-0.03-0.203
	c0.286-0.211,0.662-0.338,1.03-0.338c0.632,0,0.925,0.316,0.925,0.902v2.309h0.865v-2.459
	C193.546,39.275,193.057,38.793,192.117,38.793z"/>
<path class="st0" d="M166.604,17.492v-2.226c-1.202-0.467-2.582-0.801-4.585-0.801c-5.564,0-9.08,2.804-9.08,7.99
	c0,5.519,3.828,7.701,8.48,7.701c2.359,0,4.318-0.378,5.853-0.979v-7.255h-2.648v5.831c-0.757,0.156-1.669,0.267-2.916,0.267
	c-3.65,0-6.009-1.78-6.009-5.697c0-3.494,2.092-5.698,6.699-5.698C164.089,16.624,165.491,17.047,166.604,17.492L166.604,17.492z
	 M175.427,18.36c-3.561,0-5.853,2.315-5.853,5.876c0,3.717,2.359,5.92,6.41,5.92c1.447,0,3.094-0.312,4.295-0.801v-1.87
	c-1.491,0.512-2.715,0.779-3.85,0.779c-2.76,0-4.229-1.157-4.251-3.338h8.502v-1.113C180.679,20.385,178.743,18.36,175.427,18.36
	L175.427,18.36z M175.494,20.274c1.781,0,2.827,1.068,2.827,2.96h-6.143C172.244,21.431,173.535,20.274,175.494,20.274
	L175.494,20.274z M195.266,24.325c0-3.605-2.582-5.965-6.499-5.965c-3.806,0-6.432,2.381-6.432,5.876c0,3.516,2.559,5.92,6.321,5.92
	C192.507,30.156,195.266,27.752,195.266,24.325L195.266,24.325z M192.574,24.303c0,2.337-1.536,3.917-3.784,3.917
	c-2.292,0-3.806-1.558-3.806-4.006c0-2.404,1.558-3.917,3.806-3.917C191.06,20.296,192.574,21.854,192.574,24.303z"/>
<path class="st1" d="M91.099,17.314v-2.248c-1.291-0.356-2.804-0.601-4.651-0.601c-4.585,0-8.68,2.448-8.68,7.923
	c0,4.496,2.715,7.767,8.969,7.767c1.914,0,3.45-0.245,4.718-0.601v-2.181c-1.602,0.467-2.826,0.623-4.273,0.623
	c-4.607,0-6.61-2.359-6.61-5.698c0-3.516,2.448-5.675,6.432-5.675C88.45,16.624,89.808,16.914,91.099,17.314L91.099,17.314z
	 M98.653,18.36c-3.561,0-5.853,2.315-5.853,5.876c0,3.717,2.359,5.92,6.41,5.92c1.447,0,3.094-0.312,4.295-0.801v-1.87
	c-1.491,0.512-2.715,0.779-3.85,0.779c-2.76,0-4.229-1.157-4.251-3.338h8.502v-1.113C103.905,20.385,101.969,18.36,98.653,18.36
	L98.653,18.36z M98.72,20.274c1.781,0,2.827,1.068,2.827,2.96h-6.143C95.47,21.431,96.761,20.274,98.72,20.274L98.72,20.274z
	 M115.021,29.844h2.582v-7.278c0-2.782-1.558-4.206-4.251-4.206c-1.78,0-3.338,0.645-4.562,1.625h-0.045v-1.402h-2.359v11.262h2.559
	V21.32c0.913-0.623,2.092-0.979,3.227-0.979c1.892,0,2.849,0.801,2.849,2.515V29.844L115.021,29.844z M124.022,26.751v-6.365h4.14
	v-1.803h-4.14v-3.094h-2.582v3.094h-2.27v1.803h2.27v6.321c0,2.27,1.335,3.45,3.806,3.45c0.89,0,2.003-0.134,2.738-0.312V27.93
	c-0.779,0.2-1.447,0.289-2.025,0.289C124.645,28.22,124.022,27.774,124.022,26.751L124.022,26.751z M137.496,20.719V18.36
	c-1.714,0-3.027,0.623-4.674,2.248h-0.067v-2.025h-2.359v11.262h2.559v-7.678C134.291,21.231,135.916,20.719,137.496,20.719
	L137.496,20.719z M151.171,24.325c0-3.605-2.582-5.965-6.499-5.965c-3.806,0-6.432,2.381-6.432,5.876c0,3.516,2.559,5.92,6.321,5.92
	C148.411,30.156,151.171,27.752,151.171,24.325L151.171,24.325z M148.478,24.303c0,2.337-1.536,3.917-3.784,3.917
	c-2.292,0-3.806-1.558-3.806-4.006c0-2.404,1.558-3.917,3.806-3.917C146.965,20.296,148.478,21.854,148.478,24.303z"/>
<path class="st2" d="M1,33.9C1,15.78,15.779,1,33.9,1C52.021,1,66.8,15.78,66.8,33.9c0,18.121-14.779,32.9-32.9,32.9
	C15.779,66.8,1,52.021,1,33.9z"/>
<path class="st3" d="M30.613,1.179L30.613,1.179L30.613,1.179L30.613,1.179C30.613,1.178,30.613,1.179,30.613,1.179
	c-0.002,0-0.005,0.001-0.005,0.001C30.608,1.18,30.612,1.179,30.613,1.179L30.613,1.179z M28.07,1.528L28.07,1.528
	c0.016-0.003,0.036-0.007,0.052-0.01c-0.013,0.002-0.031,0.005-0.044,0.007c-0.321,0.053-1.19,0.234-1.274,0.265
	c0.041,0,0.08-0.015,0.121-0.021c-0.005,0.002-0.011,0.004-0.016,0.005c0.23-0.048,0.458-0.105,0.688-0.153
	c-0.011,0.003-0.022,0.005-0.034,0.008c0.005-0.001,0.011-0.002,0.015-0.003c-0.108,0.024-0.173,0.04-0.255,0.06
	c0.215-0.035,0.426-0.09,0.639-0.136C27.998,1.543,28.034,1.535,28.07,1.528L28.07,1.528z M31.609,1.26L31.609,1.26
	c-0.036-0.037-0.036-0.037-1.211,0.088c-0.019,0.001-0.019,0.001-0.048-0.006c-0.047-0.016-0.047-0.016-0.165-0.004
	c0.059-0.013,0.138-0.03,0.197-0.043c-0.245,0.021-0.491,0.016-0.736,0.04l-0.019,0.012c-0.002,0.003-0.006,0.006-0.008,0.009
	c0.017,0.014,0.021,0.017,0.137,0.005c0,0,0,0,0,0l0,0c0,0,0,0,0,0c0,0,0,0,0,0l0,0c0,0,0,0,0,0l0,0c0,0,0,0,0,0
	c0.183-0.021,0.19-0.022,0.206-0.004c0.014,0,0.033,0,0.048-0.001c-0.095,0.052-0.097,0.055-0.116,0.08
	c0.011,0.012,0.03,0.033,0.181,0.023c0.052-0.003,0.122-0.009,0.174-0.014c0.048-0.005,0.078-0.021,0.11-0.038
	c0.004-0.002,0.008-0.006,0.012-0.006c0.033-0.002,0.058,0.024,0.09,0.022c0.207-0.011,0.411-0.041,0.617-0.061
	c0.106-0.024,0.106-0.024,0.145-0.019c-0.003,0.003-0.008,0.007-0.012,0.01c0.003,0,0.35-0.027,0.4-0.038
	c-0.01-0.004-0.023-0.01-0.032-0.017c0.002-0.004,0.005-0.008,0.007-0.012c-0.003,0.001-0.008,0.002-0.011,0.003
	c0.005-0.006,0.013-0.012,0.02-0.015c-0.002,0.003-0.005,0.008-0.008,0.011c0.011-0.003,0.022-0.007,0.033-0.01
	C31.617,1.272,31.613,1.265,31.609,1.26L31.609,1.26z M28.284,1.581c-0.109,0.033-0.259,0.078-0.358,0.099
	c-0.013,0.003-0.03,0.006-0.043,0.008c-0.05,0.009-0.101,0.009-0.151,0.015c-0.312,0.034-0.608,0.148-0.919,0.184
	c0.246-0.078,0.246-0.078,0.334-0.091c0.026-0.008,0.053-0.017,0.072-0.024c-0.047,0.008-0.047,0.008-0.055,0.006
	c0.028-0.016,0.062-0.018,0.09-0.034c-0.282,0.076-0.296,0.078-0.335,0.074c-0.03,0.002-0.071,0.005-0.101,0.006
	c0.06-0.016,0.121-0.031,0.182-0.046c0.627-0.156,0.663-0.155,0.728-0.152c-0.038,0.019-0.04,0.024-0.044,0.034
	c0.04,0.028,0.246-0.033,0.247-0.033C27.92,1.627,27.91,1.63,27.9,1.63c0.003-0.001,0.007-0.003,0.01-0.005
	c0.213-0.075,0.213-0.075,0.436-0.117c0.008-0.001,0.02-0.003,0.028-0.004c-0.213,0.07-0.213,0.07-0.218,0.08
	c0.08-0.008,0.156-0.034,0.237-0.037C28.36,1.557,28.317,1.571,28.284,1.581L28.284,1.581L28.284,1.581z M29.202,1.484L29.202,1.484
	l0.082-0.023c0.044-0.027,0.1-0.035,0.132-0.081c-0.005-0.002-0.005-0.002-0.018,0c-0.324,0.047-0.324,0.047-0.341,0.061
	c0.004,0,0.004,0,0.018-0.002c-0.014,0.016-0.044,0.028-0.044,0.028c0,0-0.021-0.001-0.025-0.012
	c-0.011-0.027-0.077-0.003-0.121,0.013c-0.082,0.029-0.082,0.029-0.099,0.023c0.001-0.013,0.014-0.018,0.019-0.028
	c-0.038-0.015-0.164,0.016-0.202,0.056c0,0.002,0,0.004,0,0.005c0.028,0.016,0.118,0.005,0.316-0.02
	c-0.039,0.021-0.08,0.038-0.081,0.038c0.005-0.006,0.005-0.006,0.054-0.034c-0.019,0.003-0.099,0.045-0.108,0.052
	c0.015,0.016,0.32-0.037,0.323-0.038C29.141,1.517,29.169,1.494,29.202,1.484L29.202,1.484z M29.434,1.512
	c-0.005,0.001-0.01,0.001-0.016,0.002c-0.026-0.009-0.06-0.022-0.085-0.032c0.099-0.017,0.196-0.047,0.296-0.063
	c0.093-0.012,0.098,0.007,0.067,0.067L29.434,1.512L29.434,1.512L29.434,1.512z M31.648,1.282L31.648,1.282
	c-0.001-0.001-0.009-0.005-0.02-0.005c0,0,0.001,0,0.001,0C31.646,1.284,31.649,1.283,31.648,1.282
	C31.648,1.282,31.648,1.282,31.648,1.282L31.648,1.282z M26.215,2.051L26.215,2.051c0.018-0.006,0.042-0.013,0.059-0.019
	c-0.007,0-0.016-0.001-0.023-0.001c0.018-0.014,0.018-0.014,0.065-0.038c-0.089-0.048-0.163,0.037-0.247,0.028
	c0.001-0.004,0.002-0.01,0.003-0.014c-0.012-0.01-0.012-0.01-0.056-0.002c-0.575,0.114-1.734,0.526-1.864,0.573
	c0.083-0.026,0.09-0.026,0.111-0.028c-0.075,0.062-0.167,0.096-0.25,0.144c0.151,0.003,0.28-0.077,0.421-0.114
	c0.51-0.149,1.014-0.318,1.526-0.46C26.125,2.08,26.125,2.08,26.215,2.051L26.215,2.051z M36.949,66.508l0.027-0.009l0.093-0.029
	L36.949,66.508L36.949,66.508z M15.097,6.888L15.097,6.888l0.002-0.001L15.1,6.886l0.001-0.001L15.097,6.888L15.097,6.888z
	 M15.041,6.927L15.041,6.927l0.056-0.039l-0.128,0.09l0.02-0.014C15.004,6.953,15.025,6.938,15.041,6.927L15.041,6.927z
	 M22.581,3.719c0.02-0.012,0.047-0.029,0.067-0.041c-0.52,0.19-0.52,0.19-0.553,0.161c0.016-0.041,0.079-0.081,0.08-0.081
	c0.038-0.019,0.081-0.005,0.12-0.02c0.074-0.029,0.14-0.072,0.211-0.108c-0.173,0.034-0.304,0.072-0.664,0.187
	c-0.237,0.076-0.48,0.13-0.718,0.205c0,0-0.082,0.052-0.124,0.084c0.012,0.002,0.012,0.002,0.108-0.026
	c0.55-0.16,0.55-0.16,0.611-0.132c-0.13,0.052-0.303,0.122-0.433,0.174c-0.144,0.065-0.288,0.132-0.431,0.198
	c-0.018,0.008-0.036,0.016-0.054,0.025c0.076-0.013,0.154,0.001,0.228-0.026c0.204-0.074,0.391-0.193,0.605-0.242
	c-0.055,0.035-0.111,0.071-0.166,0.107c-0.171,0.046-0.183,0.052-0.38,0.148c0.18-0.038,0.346-0.122,0.522-0.172
	C21.692,4.106,21.774,4.053,21.856,4C22.185,3.952,22.205,3.949,22.581,3.719L22.581,3.719L22.581,3.719z M32.016,10.106
	c0.037,0.007,0.087,0.014,0.124,0.021c-0.066-0.265-0.214-0.501-0.278-0.767c-0.121,0.022-0.232,0.094-0.362,0.07
	c-0.22-0.04-0.276-0.099-0.326-0.172c-0.097-0.142-0.151-0.152-0.639-0.122c0,0-0.001,0-0.001,0c0,0-0.001,0-0.001,0
	c0,0-0.001,0-0.001,0c0,0-0.001,0-0.001,0c0,0-0.001,0-0.001,0c0,0-0.001,0-0.001,0c0,0-0.001,0-0.001,0c0,0-0.001,0-0.001,0
	c-0.221,0.023-0.442,0.049-0.663,0.072c-0.045,0.129-0.052,0.142-0.09,0.154c-0.052,0.002-0.097,0.004-0.17,0.049
	c-0.373,0.229-0.795,0.363-1.162,0.602c-0.273,0.177-0.273,0.177-0.425,0.43c0.06-0.03,0.186-0.094,0.329-0.137
	c0.106-0.032,0.106-0.032,0.493,0.008c0.565,0.058,0.928-0.41,1.421-0.541c-0.268,0.346-0.268,0.346-0.28,0.38
	c0.067-0.035,0.225-0.118,0.3-0.12c0.048-0.001,0.081-0.002,0.133,0.067c0.073,0.096,0.14,0.158,0.396,0.137
	c0.338-0.028,0.638-0.229,0.986-0.214C31.874,10.027,31.937,10.091,32.016,10.106L32.016,10.106L32.016,10.106z M34.868,10.793
	L34.868,10.793c0.002,0.031,0.001,0.072,0.002,0.103c-0.347-0.013-0.636-0.218-0.965-0.29c0.259,0.259,0.259,0.259,0.262,0.293
	c-0.111,0.13-0.149,0.174-0.206,0.388c-0.077,0.351-0.077,0.351-0.175,0.462c-0.189-0.053-0.189-0.053-0.496-0.53
	c-0.439,0.284-0.439,0.284-0.576,0.336c0.258-0.717,0.258-0.717,0.175-0.822c-0.211-0.265-0.579-0.245-1.006-0.222
	c-0.035,0.129-0.095,0.252-0.105,0.388c-0.099,0.05-0.217,0.031-0.315,0.088c-0.088,0.051-0.114,0.089-0.171,0.194
	c-0.143,0.261-0.08,0.509-0.007,0.796c0.149,0.584,0.028,0.735-0.684,0.851c-0.241-0.731-0.256-0.775-0.145-1.232
	c0.025-0.145,0.118-0.353,0.056-0.486c-0.037-0.08-0.022-0.133-0.022-0.133c0.039-0.124,0.1-0.198,0.254-0.305
	c0.326-0.226,1.068-0.289,1.512-0.326c0.038-0.004,0.048-0.009,0.1-0.034c0.189-0.092,0.718-0.291,1.533-0.151
	C34.831,10.321,34.855,10.628,34.868,10.793L34.868,10.793z M31.812,10.906c0-0.002-0.001-0.009-0.035-0.001
	c0.001,0.002,0.002,0.004,0.003,0.006C31.79,10.923,31.811,10.913,31.812,10.906L31.812,10.906L31.812,10.906z M35.61,11.766
	c0.014-0.023,0.03-0.056,0.042-0.08c-0.358,0.032-0.364,0.034-0.504,0.097c-0.003,0.001-0.316,0.138-0.485,0.158
	c-0.047,0.002-0.083-0.043-0.132-0.03c-0.036,0.01-0.109,0.037-0.357,0.162c-0.56,0.282-0.56,0.282-0.807,0.299
	c-0.108,0.008-0.141,0.01-0.233,0.018c0.136,0.27,0.289,0.396,0.707,0.29c0.148-0.037,1.318-0.544,1.416-0.594
	C35.466,11.979,35.559,11.852,35.61,11.766L35.61,11.766L35.61,11.766z M28.798,1.869c-0.06,0.042-0.122,0.063-0.201,0.088
	c-0.133,0.03-0.308,0.106-0.444,0.098c-0.063-0.004-0.092-0.067-0.148-0.085c-0.05-0.016-0.104,0.003-0.154-0.013
	c-0.005-0.002-0.012-0.004-0.018-0.007c-0.017-0.008-0.006-0.026-0.01-0.039c-0.002,0-0.005,0-0.006,0.001
	c0.121-0.078,0.212-0.054,0.213-0.053c0.095,0.031,0.096,0.032,0.288-0.051c-0.071-0.01-0.071-0.01-0.131-0.004
	c0.03-0.017,0.061-0.033,0.091-0.049c0.093-0.021,0.582-0.111,0.585-0.111c0.044-0.006,0.086,0.011,0.13,0.008
	c-0.144,0.071-0.144,0.071-0.344,0.117c0.127,0.022,0.127,0.022,0.145,0.047c0.061-0.06,0.061-0.06,0.127-0.078
	C28.88,1.791,28.852,1.83,28.798,1.869L28.798,1.869L28.798,1.869z M27.43,2.354L27.43,2.354c0.009-0.007,0.021-0.016,0.029-0.023
	c-0.175,0.006-0.34-0.058-0.511-0.074c0.189-0.092,0.321-0.274,0.532-0.331c0.037-0.01,0.199-0.059,0.2-0.059
	c0.03-0.017,0.042-0.033,0.051-0.046c-0.028-0.006-0.028-0.006-0.068,0c-0.236,0.042-0.236,0.042-0.286,0.106
	c-0.189,0.009-0.189,0.009-0.256,0.016c-0.181,0.08-0.319,0.247-0.534,0.257c-0.001-0.005-0.003-0.012-0.005-0.018
	c0.062-0.045,0.135-0.074,0.189-0.13c-0.001,0-0.11-0.033-0.174,0.025c-0.094,0.089-0.203,0.038-0.207,0.036
	c0.002-0.006,0.004-0.013,0.005-0.019c-0.153-0.029-0.28,0.062-0.42,0.093c0.104-0.045,0.21-0.081,0.315-0.123
	c-0.199,0.035-0.393,0.092-0.592,0.129c0,0,0,0,0,0c0,0,0,0,0,0l0,0c0,0,0,0,0,0c0,0,0,0,0,0l0,0c0,0,0,0,0,0l0,0l-0.369,0.116
	c-0.149,0.055-0.3,0.102-0.449,0.156c0.001,0.001,0.003,0.003,0.004,0.004c0.011,0.02,0.011,0.02,0.36-0.042
	c-0.027,0.012-0.055,0.024-0.082,0.036c-0.004,0.001-0.456,0.094-0.576,0.16c0.003,0.006,0.006,0.013,0.009,0.019
	c0.042,0.001,0.042,0.001,0.592-0.087c0.074-0.007,0.149,0.003,0.223-0.006c-0.111,0.044-0.111,0.044-0.496,0.101c0,0,0,0,0,0
	c0,0,0,0,0,0c0,0,0,0,0,0c0,0,0,0,0,0c0,0,0,0,0,0c0,0,0,0,0,0c0,0,0,0,0,0c0,0,0,0,0,0c-0.436,0.075-0.676,0.116-0.752,0.256
	c0.134,0.045,0.258-0.043,0.389-0.033c0,0.006-0.001,0.014-0.002,0.02c-0.047,0.038-0.099,0.068-0.144,0.108
	c0.051,0.029,0.051,0.029,0.199,0.003c0.222-0.039,0.586-0.124,0.878-0.192c0.189-0.044,0.359-0.148,0.552-0.179
	c0.01-0.002,0.023,0.006,0.032,0.009c0.251,0.073,0.45,0.06,0.573,0.037c0.18-0.035,0.277-0.075,0.414-0.146
	c-0.061-0.039-0.073-0.04-0.277,0.035c0.161-0.097,0.285-0.153,0.403-0.135C27.302,2.454,27.302,2.454,27.43,2.354L27.43,2.354z
	 M26.401,2.107c-0.001,0-0.002-0.002-0.002-0.008c0,0,0.001,0,0.001,0c0,0,0.001,0,0.001,0C26.402,2.1,26.402,2.107,26.401,2.107
	L26.401,2.107L26.401,2.107z M27.806,1.918L27.806,1.918c0.004-0.002,0.007-0.004,0.011-0.006c0,0,0,0-0.001,0
	c-0.007,0.003-0.013,0.007-0.013,0.008C27.804,1.92,27.805,1.919,27.806,1.918L27.806,1.918z M33.11,1.959L33.11,1.959
	c0,0-0.001,0.001-0.001,0.001C33.109,1.96,33.109,1.96,33.11,1.959L33.11,1.959z M32.072,1.051c0.103-0.006,0.195-0.01,0.279-0.014
	l0.009,0l0.231-0.01l0.019-0.001l0.003,0l0.015-0.001l0.002,0l0.006,0l0.009,0l0.002,0l0.006,0l0.008,0l0.003,0
	c0.085-0.003,0.164-0.006,0.243-0.008l0.001,0l0.01,0l0.005,0l0.005,0c0.071-0.002,0.166-0.004,0.307-0.008l0.002,0l0.002,0l0.009,0
	l0.112-0.002l0.009,0l0.002,0c0.074-0.001,0.158-0.002,0.244-0.003C33.723,1,33.869,1,34.128,1c0.241,0.002,0.529,0.008,0.808,0.016
	c0.141,0.005,0.321,0.012,0.569,0.021l0.132,0.007c0.329,0.018,0.719,0.049,1.023,0.069c0.314,0.029,0.712,0.072,1.419,0.149
	c0.157,0.023,0.323,0.049,0.495,0.076c0.815,0.13,1.76,0.304,2.5,0.447l0.345,0.079l0,0c0.023,0.008,0.051,0.023,0.073,0.032
	c0.02,0.009,0.046,0.02,0.066,0.028c-0.086-0.015-0.086-0.015-0.34-0.071c0.202,0.051,0.88,0.232,1.141,0.407
	c0.004,0.024,0.009,0.056,0.014,0.08c-0.289-0.109-0.289-0.109-0.377-0.126c0.108,0.043,0.217,0.082,0.325,0.123
	c-0.078-0.003-0.158-0.006-0.24-0.009c0.139,0.053,0.139,0.053,0.193,0.112c-0.021-0.001-0.05-0.003-0.071-0.004l0.329,0.081
	c0.018,0.008,1.921,0.932,2.118,1.246c-0.504,0.04-0.924-0.475-1.461-0.22c-1.593-0.84-3.418-1.03-5.036-1.798
	c0.205,0.024,0.205,0.024,0.339,0.023c-0.17-0.054-0.338-0.116-0.509-0.166l-0.023-0.003c-0.223-0.025-0.52-0.058-0.742-0.083
	c0.301,0.052,0.347,0.057,0.496,0.067c0.059,0.017,0.118,0.033,0.136,0.053c-0.032,0.012-0.032,0.012-0.53-0.015
	c-0.11-0.034-0.221-0.067-0.332-0.098c0.049-0.002,0.098-0.003,0.146-0.004c-0.102-0.02-0.238-0.046-0.341-0.066
	c0.243-0.001,0.484,0.029,0.727,0.031c-0.043-0.01-0.101-0.021-0.144-0.029c-0.398-0.047-0.807,0.021-1.198-0.109
	c0.01-0.01,0.024-0.023,0.034-0.033c-0.126,0.003-0.126,0.003-0.496-0.064c0.048,0.002,0.113,0.006,0.161,0.01
	c-0.144-0.034-0.291-0.039-0.437-0.061c-0.623-0.08-1.498-0.168-2.131-0.132c-0.005,0-0.69,0.035-1.052,0.02
	c0.064-0.009,0.149-0.023,0.213-0.034c-0.003,0-0.327,0.032-0.631,0.017c0.147-0.016,0.147-0.016,0.212-0.021l-0.005,0L32.072,1.051
	L32.072,1.051z M31.49,1.089l0.001,0l0.001,0c0.016-0.001,0.032-0.002,0.048-0.004l-0.044,0.003l-0.003,0l-0.001,0L31.49,1.089
	L31.49,1.089z M30.204,1.209c0.107-0.012,0.212-0.023,0.305-0.033l0.005-0.001c0.089-0.009,0.177-0.017,0.266-0.027l0,0l0.049-0.005
	l0.001,0v0c0.055-0.003,0.127-0.011,0.184-0.017l0.003,0l0.001,0l0.002,0l0.201-0.017h0l0.005,0l0.002,0l0.003,0
	c0.077-0.006,0.171-0.013,0.255-0.02l-0.041,0.003l-0.002,0h0c-0.013,0.001-0.026,0.002-0.039,0.004
	c0.069-0.003,0.139-0.007,0.208-0.01c0.01,0.002,0.024,0.004,0.031,0.011c-0.016,0.006-0.027,0.01-0.14,0.019
	c0.002,0.001,0.006,0.001,0.008,0.002c0.006,0.002,0.013,0.006,0.018,0.009c-0.011,0.007-0.012,0.008-0.074,0.013
	c0.061,0.014,0.061,0.014,0.166,0.003c0.016,0.004,0.031,0.009,0.047,0.014C31.5,1.199,31.5,1.199,31.297,1.2
	c-0.305,0.023-0.305,0.023-0.367,0.038c-0.167,0.014-0.39,0.034-0.557,0.048c0.02-0.012,0.02-0.012,0.279-0.066
	c-0.039-0.005-0.043-0.007-0.055-0.014c-0.001-0.002-0.001-0.006-0.002-0.008c0.094-0.009,0.094-0.009,0.273-0.006
	c-0.036-0.017-0.036-0.017-0.213-0.011c0.036-0.014,0.076-0.01,0.111-0.027c0,0,0-0.001-0.001-0.001
	C30.72,1.161,30.72,1.161,30.638,1.17c-0.025,0.009-0.025,0.009-0.037,0.011c-0.002,0-0.255,0.045-0.348,0.037
	c-0.013-0.001-0.03-0.001-0.043-0.003c0.055-0.014,0.111-0.016,0.166-0.024c0.006-0.001,0.013-0.002,0.019-0.003
	C30.331,1.195,30.268,1.204,30.204,1.209L30.204,1.209z M29.475,1.3c0.065-0.009,0.126-0.017,0.182-0.025
	c-0.003,0.001-0.006,0.001-0.009,0.002c0.023-0.003,0.047-0.007,0.07-0.01c-0.044,0.015-0.104,0.036-0.15,0.041l0,0
	c-0.078,0.009-0.08,0.008-0.083,0.007c0.008-0.003,0.017-0.004,0.024-0.008c-0.087-0.003-0.17,0.028-0.257,0.032
	c0.012-0.004,0.06-0.013,0.083-0.018c0.033-0.004,0.067-0.009,0.101-0.013c0.015-0.003,0.03-0.005,0.045-0.009L29.475,1.3
	L29.475,1.3z M15.385,6.69l0.006-0.004l0.877-0.577c0.207-0.129,0.393-0.244,0.563-0.348c0.483-0.291,1.002-0.588,1.433-0.822
	l0.001-0.001c0.594-0.31,1.312-0.649,2.608-1.261l0.025-0.011c0.663-0.219,1.337-0.399,1.992-0.641l0.095-0.038
	c-0.001,0.025-0.001,0.058-0.002,0.083c0.098-0.036,0.23-0.085,0.328-0.121L23.06,3.096c0.199-0.068,0.199-0.068,1.159-0.044
	c-0.049,0.029-0.098,0.058-0.147,0.087c-0.098,0.036-0.229,0.083-0.327,0.119c0.316-0.018,0.316-0.018,1.07-0.174
	c0.195,0.042,0.195,0.042,0.856-0.174c-0.105-0.037-0.259,0.006-0.37,0.017c0.84-0.295,1.769,0,2.593-0.397
	c-0.118,0.004-0.275,0.009-0.392,0.013c0.262-0.1,0.662-0.213,0.929-0.125c-0.112,0.085-0.294,0.147-0.426,0.194
	c0.081,0.059,0.189,0.138,0.271,0.198c0.161-0.135,0.398-0.289,0.588-0.378c-0.008-0.042-0.02-0.097-0.028-0.139
	c-0.091-0.045-0.212-0.104-0.303-0.149c0.534-0.49,0.593-0.501,1.049-0.588c0.068,0.027,0.159,0.062,0.227,0.089
	c-0.197,0.044-0.456,0.123-0.644,0.196c-0.017,0.018-0.033,0.036,0.067,0.05c0.014,0.097,0.033,0.226,0.047,0.323l0.446,0.01
	l-0.046,0.215c0.135-0.065,0.316-0.153,0.451-0.218c0.053,0.088,0.124,0.205,0.177,0.293c0.103-0.003,0.239-0.008,0.342-0.011
	c-0.015-0.044-0.036-0.104-0.051-0.148c0.308-0.117,0.567-0.341,0.895-0.416c-0.821,0.059-1.186,0.034-1.427,0.018
	c0.105-0.035,0.246-0.082,0.352-0.117c-0.082-0.057-0.192-0.133-0.274-0.19c0.21-0.134,0.406-0.156,0.796-0.199
	c-0.062,0.079-0.145,0.183-0.207,0.262c0.098,0.012,0.229,0.028,0.327,0.04c-0.003-0.017-0.006-0.034-0.214-0.081
	c0.166-0.131,0.45-0.227,0.66-0.246c0.125,0.029,0.29,0.077,0.413,0.111l0.251-0.044c-0.112-0.055-0.278-0.085-0.399-0.115
	c0.37-0.003,0.731,0.08,1.096,0.117c0.165,0.029,0.39,0.036,0.557,0.035c0.487,0.088,0.984,0.093,1.47,0.182
	c-0.05,0.012-0.116,0.028-0.166,0.041c0.091,0.052,0.212,0.121,0.303,0.173c0.519,0.051,1.038,0.11,1.558,0.155
	c0.042,0.022,0.084,0.045,0.26,0.061c0.102,0.006,0.239,0.014,0.341,0.02c0.044,0.023,0.089,0.046-0.128,0.242
	c0.102,0.063,0.204,0.128,0.004,0.147c-0.745-0.159-0.745-0.159-1.023-0.093c0.004,0.001,0.689,0.209,1.493,0.401
	c0.039,0.029,0.078,0.058,0.034,0.235c0.084,0.039,0.195,0.091,0.278,0.13c-0.098-0.022-0.228-0.052-0.326-0.074
	c-0.33-0.057-0.775-0.135-1.109-0.115c0.676,0.161,0.676,0.161,0.927,0.352c-1.373-0.119-2.734-0.351-4.112-0.419
	c0.263-0.213,0.61-0.245,0.892-0.417c-0.022-0.026-0.045-0.051,0.022-0.096c0.084-0.061,0.196-0.142,0.281-0.203
	C34.23,2.16,33.956,2.07,33.747,2.022c-0.183-0.029-0.429-0.056-0.614-0.071c0.02-0.009,0.046-0.021,0.066-0.03
	c-0.24-0.032-0.56-0.074-0.8-0.104l-0.127,0.115c-0.026,0.002-0.053,0.004-0.357-0.054c-0.097,0.025-0.226,0.059-0.322,0.085
	c0.085,0.175,0.278,0.372,0.446,0.469c-0.182,0.096-0.448,0.183-0.652,0.216l-0.569,0.099c0.001,0.027,0.003,0.054-0.073,0.097
	c-0.079,0.06-0.185,0.14-0.264,0.2c-0.312,0.329-0.384,0.335-0.783,0.371l0,0h0h0c0,0,0,0,0,0l0,0h0h0h0
	c-1.82,0.951-1.82,0.951-2.169,1.51c0.027,0.106,0.062,0.248,0.089,0.354c0.102-0.013,0.237-0.03,0.339-0.043
	c0.134,0.162,0.31,0.381,0.439,0.547c0.202-0.064,0.484-0.113,0.695-0.128c1.182,0.225,2.387,0.286,3.568,0.51
	c0.264,0.727,0.264,0.727,0.429,0.949l0.882,0.472c0.053,0.025,0.123,0.058,0.175,0.083c0.193-0.12,0.42-0.333,0.556-0.514
	c-0.154-0.319-0.36-0.744-0.514-1.062c0.273-0.141,0.618-0.381,0.818-0.614c-0.292-0.771-0.978-1.265-1.381-1.959
	c0.011-0.002,1.16-0.234,2.126,0.055c0.882,0.156,1.581,0.851,2.514,0.857c0.134-0.152,0.241-0.425,0.246-0.627
	c0.461,0.183,0.51,0.202,1.243,0.536c2.169,1.164,2.169,1.164,3.328,1.267c-0.029,0.064-0.066,0.149-0.095,0.213
	c1.28,0.12,1.436,0.54,1.587,0.947c-4.76,1.901-4.76,1.901-4.815,2.174c1.498-0.914,1.91-1.038,2.48-0.617
	c-0.176,0.13-0.442,0.263-0.652,0.324c0.194,0.047,0.469,0.058,0.666,0.02c0.513,1.207,1.753,0.959,1.996,0.897
	c0.051-0.192,0.18-0.435,0.312-0.583c0.125,0.177,0.277,0.426,0.368,0.623c-0.104,0.025-0.242,0.059-0.346,0.084
	c-0.498,0.324-1.204,0.719-1.608,1.153c-0.111-0.038-0.258-0.088-0.369-0.126c-0.01-0.151-0.022-0.352-0.032-0.503
	c0.203-0.125,0.507-0.246,0.743-0.278c-0.016-0.03-0.032-0.059-0.182-0.082c-0.05,0.002-1.715,0.558-2.174,0.726
	c-0.19,0.134-0.435,0.327-0.599,0.492c0.036,0.298,0.121,0.732,0.334,0.943c-0.1,0.02-0.234,0.047-0.335,0.068l-1.287,0.325
	c0.102,0.062,0.239,0.144,0.341,0.205c-0.108,0.026-0.252,0.06-0.36,0.086c-0.155,0.302-0.199,0.655-0.427,0.922
	c-0.105-0.006-0.246-0.013-0.351-0.019c0.12,0.19,0.236,0.489,0.229,0.714c-0.096,0.086-0.223,0.201-0.319,0.287
	c-0.004-0.103-0.008-0.24-0.012-0.343c-0.11-0.007-0.257-0.016-0.367-0.022c0.334,1.194,0.495,1.357,0.718,1.583
	c-0.294,0.207-0.486,0.539-0.833,0.682c-2.71,2.228-2.762,2.27-2.114,3.33c1.461,2.389,1.207,2.805,0.616,3.208
	c-1.227-0.558-1.146-2.064-2.067-2.844c-0.189-0.108-0.441-0.253-0.63-0.361c-0.203,0.084-0.472,0.197-0.673,0.284
	c-0.603-0.358-0.666-0.359-1.158-0.366c-1.663,0.188-1.663,0.188-1.847,0.249c-0.027,0.097-0.063,0.227-0.09,0.324
	c0.024,0.142,0.055,0.331,0.079,0.473c-2.448-0.368-3.652,0.049-3.963,0.185c-0.349,1.055-1.854,1.47-1.589,2.865
	c-0.274,0.34-1.5,2.178,1.278,4.954c1.113,0.35,2.208-0.107,3.313-0.073c0.349-0.995,0.583-1.598,0.79-2.131
	c1.647-0.594,1.944-0.701,2.426-0.258c-0.086,0.759-0.462,1.461-0.429,2.243c-0.089-0.069-0.209-0.161-0.298-0.23
	c-0.04-0.04-0.094-0.094-0.134-0.134c0.138,0.827,0.138,0.827-0.228,2.354c3.652-0.462,4.412-0.558,4.278,1.106
	c-0.344,4.295,1.582,3.944,2.181,3.734c1.022-0.664,1.994,0.094,2.992,0.108c0.907-1.867,0.907-1.867,1.375-2.103
	c0.815-0.268,1.369-1.036,2.251-1.177c-0.016,0.25-0.168,0.569-0.313,0.773c0.07,0.13,0.163,0.304,0.233,0.435
	c0.906-0.525,0.94-0.61,0.933-1.114c0.491,0.388,1.177,0.524,1.489,1.145c1.245-0.12,2.497-0.17,3.736-0.348
	c-0.032,0.096-0.074,0.225-0.106,0.321c1.486,1.006,2.084,3.205,4.317,3.209c0.884,0.002,1.03,0.101,1.661,0.627
	c0.551,0.727,0.476,1.735,1.092,2.432c-0.026,0.217-0.054,0.434-0.188,0.699c-0.094,0.087-0.218,0.203-0.312,0.29
	c0,0.111,0,0.26,0,0.371c0.708,0.032,0.708,0.032,1.047,0.187c-0.122,0.27-0.285,0.63-0.408,0.901
	c0.155-0.181,0.289-0.493,0.483-0.63c0.123-0.087,1.523,0.015,1.329,1.384c1.476-0.549,1.665,1.505,2.74,1.911
	c-0.075,0.763-0.322,1.456-0.516,1.904l0,0c-0.217,0.484-2.56,3.256-2.58,3.277c-0.758,0.893-1.181,1.999-1.872,2.934
	c-0.947,1.193-0.947,1.193-1.323,1.564c-0.923,0.936-0.923,0.936-1.308,1.206c-8.536,6.114-8.536,6.114-9.107,5.831
	c-0.965,0.47-1.48,1.666-2.724,1.689c-0.003-0.011-0.006-0.026-0.009-0.037c-0.065,0.083-0.151,0.193-0.216,0.276
	c-0.489,0.434-0.489,0.434-1.053,0.477c-0.068,0.083-0.159,0.194-0.227,0.277c-0.01,0.013-0.01,0.013-0.78,0.634
	c-0.574,0.342-1.097,0.766-1.709,1.044c-0.483,0.229-0.483,0.229-0.93,0.438c-0.139,0.052-0.327,0.114-0.469,0.159l-0.015,0.004
	l0.265-0.118l0.174-0.131l0.173-0.117h0h0h0h0c0,0,0,0,0,0h0c0,0,0,0,0.121-0.144c0.073-0.08,0.17-0.187,0.243-0.267
	c0.012-0.001,0.024-0.002,0.116-0.054l0.214-0.165l0.03-0.029c-0.023-0.021-0.053-0.049-0.076-0.069
	c0.169-0.15,0.395-0.349,0.565-0.497c-0.054,0.089-0.125,0.208-0.179,0.297c0.223-0.252,0.509-0.608,0.654-0.912
	c-0.111,0.142-0.291,0.307-0.437,0.413c3.283-4.01,5.004-9.76,4.961-10.701c-0.088-1.917-2.168-2.073-2.971-3.358
	c-0.739-1.184-1.11-2.563-1.96-3.688c-0.226-0.299-0.601-0.395-0.872-0.632c-0.174-1.368-0.174-1.368,0.596-1.907
	c-0.02-0.103-0.046-0.239-0.066-0.342c-0.181-0.066-0.39-0.256-0.481-0.425c-0.1-0.797,0.466-1.466,0.435-2.25
	c0.371-0.188,0.371-0.188,1.038-1.258c0.227-0.338,0.531-0.79,0.758-1.128c-0.969-4.434-1.372-4.047-2.451-3.012
	c0.074,0.083,0.172,0.193,0.246,0.276c-0.033,0.1-0.076,0.233-0.109,0.333c-0.191,0.007-0.451-0.059-0.617-0.154
	c-2.219-1.271-2.654-1.37-3.039-1.458c0,0-0.001,0-0.001,0c0,0-0.001,0-0.001,0c0,0-0.001,0-0.001,0c0,0-0.001,0-0.001,0
	c0,0-0.001,0-0.001,0c0,0-0.001,0-0.001,0c0,0-0.001,0-0.001,0c0,0-0.001,0-0.018,0.002c-0.148-0.061-0.345-0.141-0.493-0.202
	c-0.175-0.72-0.298-0.849-0.567-1.133c-0.369-0.306-0.726-0.626-1.092-0.937c0.005-0.099,0.011-0.231,0.016-0.331
	c-0.698,0.233-0.698,0.233-1.388,0.055c-1.228-0.199-1.228-0.199-3.386-1.52c-0.999-0.612-1.841,0.413-2.795,0.268
	c-5.888-1.721-5.888-1.721-6.043-3.608c-0.246-0.638-0.705-1.826-2.496-2.711c0.206-1.073-1.301-1.916-1.682-1.989
	c0.153-0.67,0.231-1.79-0.963-1.761c-0.46,1.957,1.222,3.083,1.802,4.637l0.228,0.242l0.547,0.675
	c-0.131,0.099-0.306,0.23-0.438,0.329c-0.234-0.585-0.297-0.743-1.223-1.248c0.017-0.3,0.036-0.599,0.057-0.896
	c-0.444-0.269-1.035-0.629-1.481-0.896c0.161-0.152,0.375-0.354,0.535-0.506c-0.004-0.039-0.557-3.849-2.424-3.769
	c0.002-0.016-0.087-2.665-0.262-3.439c3.14-4.822,3.14-4.822,3.286-5.006l0.009-0.306c-0.098-0.049-0.228-0.114-0.326-0.163
	c0.013,0.1,0.031,0.234,0.044,0.335c-0.057,0.123-0.134,0.287-0.191,0.41c-0.088-0.051-0.204-0.118-0.292-0.169
	c-0.075-0.252-0.05-0.612-0.063-0.875c0.098,0.008,0.228,0.02,0.325,0.028c0.008-0.259,0.097-0.602,0.193-0.844
	c0.021-0.391,0.021-0.391,0.501-0.859l0.197-0.418c-0.024,0.006-0.048,0.011-0.13,0.077c-0.099,0.044-0.232,0.102-0.331,0.146
	c0.184-0.187,0.432-0.434,0.628-0.608c-0.056,0.027-0.13,0.063-0.185,0.09c0.082-0.064,0.191-0.15,0.272-0.215
	c0.189-0.131,0.43-0.326,0.588-0.493l-0.547,0.409c0.246-0.217,0.573-0.506,0.81-0.732c-0.405,0.331-0.405,0.331-1.29,1.135
	c0.54-0.654,0.54-0.654,0.886-0.827c-0.001-0.065-0.003-0.153-0.004-0.218c0.078-0.079,0.182-0.185,0.26-0.264l-0.086-0.005
	c-0.042,0.001-0.098,0.002-0.14,0.002L15.385,6.69L15.385,6.69z M33.638,2.233c-0.043-0.046-0.085-0.091-0.128-0.134
	c-0.104-0.001-0.207-0.019-0.311-0.009c-0.135,0.02-0.154,0.08-0.072,0.22C33.294,2.323,33.525,2.304,33.638,2.233L33.638,2.233z
	 M32.623,3.256L32.623,3.256c0.015-0.003,0.036-0.006,0.051-0.009c-0.125-0.087-0.125-0.087-0.48-0.053
	c-0.042-0.103-0.056-0.137-0.126-0.157c-0.023-0.006-0.053-0.015-0.076-0.019c-0.165-0.029-0.165-0.029-0.805-0.085
	c-0.019-0.002-0.083-0.01-0.104-0.045C31.06,2.85,31.04,2.844,30.874,2.824c-0.011,0.016-0.025,0.037-0.035,0.053
	c-0.076,0.134-0.098,0.21-0.1,0.449c-0.171,0.028-0.171,0.028-0.283,0.122c0.172-0.017,0.344-0.033,0.516-0.049
	c0.004,0.048,0.008,0.096,0.012,0.145c0.121-0.019,0.346-0.053,0.628-0.295c0.071-0.061,0.071-0.061,0.164-0.047
	c0.133,0.02,0.256,0.077,0.389,0.096c0.142,0.021,0.22,0.007,0.266-0.001C32.494,3.286,32.558,3.267,32.623,3.256L32.623,3.256z
	 M12.993,9.893L12.993,9.893c0,0.004-0.001,0.01-0.001,0.014c0.124-0.153,0.227-0.323,0.356-0.473
	c0.088-0.103,0.195-0.187,0.291-0.282c-0.051-0.033-0.121-0.077-0.209,0.015C13.135,9.482,13.009,9.693,12.993,9.893L12.993,9.893z
	 M47.816,9.034L47.816,9.034L47.63,8.529c-0.294,0.109-0.288,0.053-0.282-0.018c0.003-0.036,0.009-0.091-0.08-0.078
	c-0.039,0.005-0.039,0.005-0.138,0.109c-0.152-0.262-0.152-0.262,0.011-0.336c-0.161-0.142-0.161-0.142-0.181-0.151
	c-0.092,0.065-0.092,0.065-0.165,0.079c-0.074-0.098-0.074-0.098-0.271-0.399c-0.155,0.004-0.362,0.01-0.518,0.014l-0.028,0.005
	l-0.111-0.009c-0.238-0.045-0.238-0.045-0.515-0.293c-0.124,0.049-0.128,0.054-0.225,0.168c-0.052-0.233-0.12-0.543-0.172-0.776
	c-0.068,0.002-0.136,0.004-0.204,0.007c-0.192,0.022-0.192,0.022,0.008,1.292c0.056,0.249,0.053,0.25-0.088,0.308
	c0.014,0.039,0.079,0.167,0.31,0.18c0.012,0.001,1.375,0.016,1.643-0.073c0.002,0.01,0.005,0.024,0.007,0.035
	c0.015,0.068,0.015,0.068-0.011,0.145c0.112-0.083,0.26-0.193,0.372-0.276c0.154,0.2,0.154,0.2,0.322,0.502
	c0.037-0.073,0.054-0.107,0.075-0.104C47.546,8.88,47.669,8.986,47.816,9.034L47.816,9.034z M29.728,20.324L29.728,20.324
	c0.001-0.044-0.045-0.136-0.052-0.139c0,0,0,0,0,0c-0.003,0.009,0.036,0.099,0.048,0.126C29.725,20.315,29.727,20.32,29.728,20.324
	L29.728,20.324z M41.241,26.419L41.241,26.419c0.055-0.009,0.128-0.016,0.183-0.023c-0.275-0.27-0.275-0.27-2.866-1.304
	c-0.599-0.151-1.158-0.428-1.766-0.55c-0.178-0.036-0.447-0.09-1.117-0.031c-1.36,0.127-1.642,0.479-1.926,1.197
	c0.239-0.123,0.557-0.288,0.796-0.411c0.576-0.363,0.576-0.363,1.071-0.41c0.015,0.02,0.04,0.044,0.063,0.055
	c0.008-0.008,0.02-0.019,0.028-0.026c-0.018,0.094-0.025,0.135-0.048,0.359c0.831-0.033,1.641,0.218,2.472,0.185
	c0.072,0.269,0.123,0.464,0.264,0.553c0.261,0.166,0.569,0.071,0.846,0.152c-0.013,0.057-0.013,0.057-0.317,0.558
	c0.121-0.01,0.216-0.019,0.339-0.035c0.314-0.041,0.613-0.175,0.937-0.156C40.478,26.546,40.478,26.546,41.241,26.419L41.241,26.419
	z M45.574,27.339L45.574,27.339c0.011-0.006,0.026-0.015,0.037-0.022c-0.086-0.184-0.119-0.253-0.148-0.273
	c-0.023-0.016-0.064-0.017-0.092-0.02c-0.081-0.009-0.255-0.049-0.515-0.219c-0.351-0.217-0.585-0.354-0.959-0.418
	c-0.033-0.006-0.078-0.008-0.112-0.008c-0.229,0.001-0.448,0.077-0.674,0.1c-0.234,0.024-0.449-0.101-0.681-0.087
	c-0.164,0.031-0.326,0.069-0.49,0.1c0.522,0.314,0.616,0.37,0.876,1.013c-0.462,0.022-0.922-0.045-1.384-0.035
	c0.011,0.089,0.021,0.178,0.031,0.267c0.198,0.034,0.754,0.095,1.646-0.07c0.061-0.011,0.061-0.011,0.085-0.009
	c0.026,0.146,0.127,0.24,0.44,0.468c0.164-0.502,0.164-0.502,0.202-0.523c0.125-0.068,0.867-0.208,1.148-0.205
	C45.457,27.404,45.457,27.404,45.574,27.339L45.574,27.339L45.574,27.339z M38.283,34.853L38.283,34.853
	c0-0.001-0.001-0.002-0.002-0.002c-0.001,0-0.002,0.001-0.001,0.001C38.281,34.854,38.282,34.854,38.283,34.853
	C38.283,34.854,38.283,34.854,38.283,34.853L38.283,34.853z M37.522,36.623L37.522,36.623
	C37.522,36.623,37.522,36.623,37.522,36.623c-0.003,0-0.006-0.001-0.009,0c0,0,0,0,0,0C37.513,36.624,37.515,36.624,37.522,36.623
	L37.522,36.623z M42.39,63.275L42.39,63.275c0.001-0.001,0.001-0.002,0.001-0.002c0,0-0.001,0-0.001,0
	c-0.009,0.002-0.008,0.003-0.008,0.003C42.383,63.276,42.388,63.276,42.39,63.275L42.39,63.275z M37.101,66.444
	c0.006-0.003,0.012-0.005,0.018-0.008l0,0c-0.003,0.001-0.035,0.016-0.036,0.017C37.089,66.45,37.095,66.447,37.101,66.444
	L37.101,66.444L37.101,66.444z M31.812,10.906L31.812,10.906c0-0.002-0.001-0.006-0.016-0.005c-0.005,0.001-0.011,0.002-0.018,0.003
	c0.007,0.02,0.031,0.009,0.034,0.003C31.812,10.907,31.812,10.907,31.812,10.906L31.812,10.906z M48.518,59.659
	c0.018-0.018,0.007-0.028-0.013-0.028c-0.003,0-0.008,0-0.011,0c-0.031,0.004-0.085,0.021-0.097,0.086
	C48.415,59.714,48.493,59.683,48.518,59.659L48.518,59.659z M44.449,34.345c0.025-0.312-0.37-0.576-0.56-0.702
	c-0.045,0.26-0.045,0.26-0.212,0.564c0.195,0.347,0.203,0.361,0.286,0.664C44.245,34.687,44.431,34.565,44.449,34.345z"/>
<path class="st4" d="M22.252,28.325c0.067,1.398,0.168,2.829,0.305,4.285c1.686,18.023,8.125,33.2,14.381,33.898
	c-6.399-0.681-12.954-15.844-14.64-33.867c-0.136-1.456-0.236-2.886-0.302-4.285C9.107,29.919,1.039,31.594,1.001,32.587
	l0.011-0.272c0.046-0.992,8.103-2.664,20.971-4.225c-0.657-14.905,2.603-26.164,7.895-26.844l0.031-0.004
	c-5.178,0.652-8.345,11.904-7.67,26.816c0.236-0.028,0.473-0.057,0.712-0.085c16.949-2.011,35.392-3.043,41.195-2.305
	c1.052,0.134,1.616,0.317,1.734,0.538c0.019,0.084,0.037,0.168,0.056,0.254c-0.129-0.218-0.693-0.397-1.73-0.529
	c-5.809-0.739-24.273,0.294-41.241,2.308C22.726,28.268,22.488,28.296,22.252,28.325z"/>
<path class="st5" d="M1,33.871C1,15.766,15.779,1,33.9,1s32.9,14.766,32.9,32.871c0,18.105-14.779,32.871-32.9,32.871
	S1,51.976,1,33.871z"/>
</svg>
