<?xml version="1.0" encoding="utf-8"?>
<!-- Generator: Adobe Illustrator 22.1.0, SVG Export Plug-In . SVG Version: 6.00 Build 0)  -->
<svg version="1.1" id="Layer_1" xmlns="http://www.w3.org/2000/svg" xmlns:xlink="http://www.w3.org/1999/xlink" x="0px" y="0px"
	 viewBox="0 0 115 96" style="enable-background:new 0 0 115 96;" xml:space="preserve">
<style type="text/css">
	.st0{fill-rule:evenodd;clip-rule:evenodd;fill:#032462;}
</style>
<path class="st0" d="M57.727,37.782c1.127,0,2.038-0.912,2.038-2.033c0-1.124-0.912-2.035-2.038-2.035
	c-1.13,0-2.041,0.911-2.041,2.035C55.686,36.869,56.597,37.782,57.727,37.782L57.727,37.782z M63.096,37.083
	c1.288,0,2.334-1.038,2.334-2.323c0-1.285-1.047-2.32-2.334-2.32c-1.283,0-2.329,1.036-2.329,2.32
	C60.766,36.044,61.813,37.083,63.096,37.083L63.096,37.083z M68.776,34.439c1.528,0,2.769-1.236,2.769-2.759
	c0-1.52-1.241-2.76-2.769-2.76c-1.527,0-2.769,1.24-2.769,2.76C66.008,33.203,67.25,34.439,68.776,34.439L68.776,34.439z
	 M77.39,38.499c2.171,0,3.929-1.753,3.929-3.92c0-2.166-1.758-3.921-3.929-3.921c-2.17,0-3.933,1.755-3.933,3.921
	C73.458,36.745,75.221,38.499,77.39,38.499L77.39,38.499z M87.346,36.739c2.782,0,5.042-2.244,5.042-5.016
	c0-2.773-2.261-5.016-5.042-5.016c-2.777,0-5.033,2.243-5.033,5.016C82.313,34.495,84.569,36.739,87.346,36.739L87.346,36.739z
	 M86.725,47.593c2.777,0,5.031-2.247,5.031-5.017c0-2.771-2.254-5.016-5.031-5.016c-2.784,0-5.038,2.246-5.038,5.016
	C81.687,45.346,83.942,47.593,86.725,47.593L86.725,47.593z M82.303,57.88c2.784,0,5.036-2.247,5.036-5.018
	c0-2.772-2.253-5.016-5.036-5.016c-2.777,0-5.033,2.243-5.033,5.016C77.27,55.633,79.526,57.88,82.303,57.88L82.303,57.88z
	 M74.529,65.602c-2.78,0-5.033-2.243-5.033-5.016c0-2.771,2.253-5.018,5.033-5.018c2.782,0,5.033,2.247,5.033,5.018
	C79.562,63.358,77.31,65.602,74.529,65.602L74.529,65.602z M64.456,69.854c2.78,0,5.033-2.245,5.033-5.017
	c0-2.773-2.253-5.019-5.033-5.019c-2.782,0-5.036,2.246-5.036,5.019C59.42,67.609,61.675,69.854,64.456,69.854L64.456,69.854z
	 M53.318,70.461c2.783,0,5.038-2.248,5.038-5.019c0-2.773-2.255-5.016-5.038-5.016c-2.777,0-5.032,2.243-5.032,5.016
	C48.286,68.212,50.541,70.461,53.318,70.461L53.318,70.461z M42.509,66.731c2.782,0,5.034-2.247,5.034-5.016
	c0-2.772-2.253-5.022-5.034-5.022c-2.777,0-5.033,2.249-5.033,5.022C37.476,64.484,39.732,66.731,42.509,66.731L42.509,66.731z
	 M34.254,59.721c-2.783,0-5.038-2.244-5.038-5.015c0-2.771,2.254-5.017,5.038-5.017c2.779,0,5.035,2.247,5.035,5.017
	C39.288,57.477,37.032,59.721,34.254,59.721L34.254,59.721z M28.968,49.923c2.781,0,5.033-2.247,5.033-5.018
	c0-2.769-2.252-5.016-5.033-5.016c-2.784,0-5.036,2.247-5.036,5.016C23.932,47.675,26.184,49.923,28.968,49.923L28.968,49.923z
	 M27.675,38.564c2.777,0,5.034-2.247,5.034-5.017c0-2.772-2.257-5.02-5.034-5.02c-2.784,0-5.037,2.248-5.037,5.02
	C22.638,36.317,24.891,38.564,27.675,38.564L27.675,38.564z M84.123,26.688c2.778,0,5.033-2.245,5.033-5.015
	c0-2.774-2.254-5.017-5.033-5.017c-2.78,0-5.033,2.244-5.033,5.017C79.09,24.443,81.342,26.688,84.123,26.688L84.123,26.688z
	 M77.306,18.392c-2.78,0-5.034-2.247-5.034-5.013c0-2.772,2.254-5.022,5.034-5.022c2.78,0,5.036,2.251,5.036,5.022
	C82.342,16.144,80.086,18.392,77.306,18.392L77.306,18.392z M68.024,12.807c2.777,0,5.033-2.243,5.033-5.013
	c0-2.775-2.256-5.019-5.033-5.019c-2.783,0-5.036,2.244-5.036,5.019C62.988,10.564,65.241,12.807,68.024,12.807L68.024,12.807z
	 M56.978,11.033c2.774,0,5.034-2.246,5.034-5.016c0-2.773-2.26-5.017-5.034-5.017c-2.783,0-5.038,2.244-5.038,5.017
	C51.94,8.787,54.195,11.033,56.978,11.033L56.978,11.033z M46.227,13.268c2.781,0,5.033-2.244,5.033-5.016
	c0-2.771-2.252-5.016-5.033-5.016c-2.781,0-5.036,2.244-5.036,5.016C41.191,11.024,43.446,13.268,46.227,13.268L46.227,13.268z
	 M36.947,19.094c-2.779,0-5.034-2.244-5.034-5.013c0-2.772,2.255-5.017,5.034-5.017c2.78,0,5.032,2.245,5.032,5.017
	C41.979,16.85,39.727,19.094,36.947,19.094L36.947,19.094z M30.585,27.812c2.778,0,5.035-2.244,5.035-5.018
	c0-2.767-2.257-5.018-5.035-5.018c-2.782,0-5.038,2.251-5.038,5.018C25.547,25.568,27.803,27.812,30.585,27.812L30.585,27.812z
	 M69.138,23.909c2.17,0,3.932-1.757,3.932-3.919c0-2.165-1.763-3.92-3.932-3.92c-2.178,0-3.936,1.755-3.936,3.92
	C65.202,22.152,66.96,23.909,69.138,23.909L69.138,23.909z M61.136,20.364c-2.172,0-3.932-1.754-3.932-3.919
	c0-2.166,1.76-3.923,3.932-3.923c2.175,0,3.937,1.757,3.937,3.923C65.073,18.61,63.311,20.364,61.136,20.364L61.136,20.364z
	 M76.039,46.827c2.173,0,3.931-1.752,3.931-3.916c0-2.17-1.758-3.92-3.931-3.92c-2.171,0-3.936,1.75-3.936,3.92
	C72.104,45.075,73.868,46.827,76.039,46.827L76.039,46.827z M74.929,30.301c-2.171,0-3.929-1.756-3.929-3.921
	c0-2.165,1.758-3.92,3.929-3.92c2.173,0,3.932,1.755,3.932,3.92C78.862,28.545,77.102,30.301,74.929,30.301L74.929,30.301z
	 M52.366,20.734c-2.174,0-3.933-1.753-3.933-3.917c0-2.165,1.759-3.923,3.933-3.923c2.172,0,3.932,1.758,3.932,3.923
	C56.298,18.981,54.539,20.734,52.366,20.734L52.366,20.734z M44.56,24.842c2.178,0,3.937-1.756,3.937-3.921
	c0-2.165-1.758-3.918-3.937-3.918c-2.171,0-3.931,1.753-3.931,3.918C40.629,23.086,42.389,24.842,44.56,24.842L44.56,24.842z
	 M39.541,31.965c-2.176,0-3.936-1.754-3.936-3.919c0-2.166,1.76-3.922,3.936-3.922c2.169,0,3.933,1.755,3.933,3.922
	C43.473,30.211,41.71,31.965,39.541,31.965L39.541,31.965z M37.771,40.952c-2.174,0-3.931-1.757-3.931-3.922
	c0-2.163,1.757-3.921,3.931-3.921c2.17,0,3.936,1.757,3.936,3.921C41.707,39.196,39.941,40.952,37.771,40.952L37.771,40.952z
	 M40.529,49.792c2.175,0,3.934-1.755,3.934-3.914c0-2.17-1.759-3.923-3.934-3.923c-2.172,0-3.932,1.753-3.932,3.923
	C36.597,48.038,38.356,49.792,40.529,49.792L40.529,49.792z M46.906,56.239c-2.174,0-3.933-1.755-3.933-3.919
	c0-2.166,1.759-3.922,3.933-3.922c2.172,0,3.935,1.756,3.935,3.922C50.841,54.484,49.078,56.239,46.906,56.239L46.906,56.239z
	 M55.085,59.213c2.17,0,3.933-1.754,3.933-3.918c0-2.166-1.763-3.918-3.933-3.918c-2.171,0-3.936,1.753-3.936,3.918
	C51.15,57.46,52.915,59.213,55.085,59.213L55.085,59.213z M63.921,58.396c2.173,0,3.936-1.757,3.936-3.923
	c0-2.163-1.763-3.918-3.936-3.918c-2.173,0-3.933,1.755-3.933,3.918C59.988,56.639,61.748,58.396,63.921,58.396L63.921,58.396z
	 M71.236,54.004c-2.173,0-3.939-1.756-3.939-3.92c0-2.166,1.766-3.922,3.939-3.922c2.17,0,3.931,1.756,3.931,3.922
	C75.167,52.249,73.406,54.004,71.236,54.004L71.236,54.004z M59.41,33.076c-1.289,0-2.329-1.041-2.329-2.324
	c0-1.282,1.04-2.32,2.329-2.32c1.286,0,2.331,1.038,2.331,2.32C61.741,32.034,60.696,33.076,59.41,33.076L59.41,33.076z
	 M53.997,34.001c-1.285,0-2.33-1.042-2.33-2.324c0-1.283,1.046-2.323,2.33-2.323c1.284,0,2.33,1.04,2.33,2.323
	C56.327,32.958,55.282,34.001,53.997,34.001L53.997,34.001z M52.309,39.354c1.289,0,2.332-1.04,2.332-2.324
	c0-1.281-1.043-2.322-2.332-2.322c-1.284,0-2.332,1.041-2.332,2.322C49.978,38.313,51.025,39.354,52.309,39.354L52.309,39.354z
	 M56.1,43.375c-1.288,0-2.332-1.041-2.332-2.324c0-1.286,1.044-2.325,2.332-2.325c1.285,0,2.327,1.04,2.327,2.325
	C58.427,42.333,57.385,43.375,56.1,43.375L56.1,43.375z M61.268,42.283c-1.289,0-2.333-1.041-2.333-2.323
	c0-1.282,1.044-2.325,2.333-2.325c1.284,0,2.326,1.043,2.326,2.325C63.594,41.242,62.552,42.283,61.268,42.283L61.268,42.283z
	 M58.317,26.617c1.532,0,2.767-1.234,2.767-2.758c0-1.522-1.235-2.758-2.767-2.758c-1.527,0-2.765,1.236-2.765,2.758
	C55.551,25.382,56.79,26.617,58.317,26.617L58.317,26.617z M64.72,28.893c-1.527,0-2.764-1.234-2.764-2.76
	c0-1.526,1.237-2.757,2.764-2.757c1.53,0,2.767,1.231,2.767,2.757C67.487,27.659,66.25,28.893,64.72,28.893L64.72,28.893z
	 M51.81,28.016c1.529,0,2.769-1.237,2.769-2.759c0-1.523-1.24-2.756-2.769-2.756c-1.528,0-2.762,1.233-2.762,2.756
	C49.048,26.78,50.283,28.016,51.81,28.016L51.81,28.016z M47.2,32.632c-1.529,0-2.77-1.23-2.77-2.754
	c0-1.523,1.241-2.762,2.77-2.762c1.528,0,2.769,1.239,2.769,2.762C49.969,31.402,48.728,32.632,47.2,32.632L47.2,32.632z
	 M45.702,39.581c1.53,0,2.77-1.231,2.77-2.753c0-1.525-1.24-2.764-2.77-2.764c-1.525,0-2.766,1.239-2.766,2.764
	C42.937,38.35,44.177,39.581,45.702,39.581L45.702,39.581z M48.395,46.004c1.531,0,2.772-1.234,2.772-2.759
	c0-1.525-1.241-2.757-2.772-2.757c-1.528,0-2.763,1.231-2.763,2.757C45.632,44.771,46.867,46.004,48.395,46.004L48.395,46.004z
	 M53.992,49.88c1.529,0,2.767-1.234,2.767-2.756c0-1.523-1.238-2.762-2.767-2.762c-1.528,0-2.769,1.239-2.769,2.762
	C51.223,48.646,52.464,49.88,53.992,49.88L53.992,49.88z M60.47,50.109c1.532,0,2.769-1.234,2.769-2.759
	c0-1.521-1.237-2.758-2.769-2.758c-1.528,0-2.764,1.237-2.764,2.758C57.706,48.875,58.942,50.109,60.47,50.109L60.47,50.109z
	 M66.099,46.913c1.527,0,2.767-1.236,2.767-2.759c0-1.525-1.24-2.758-2.767-2.758c-1.525,0-2.769,1.234-2.769,2.758
	C63.33,45.677,64.574,46.913,66.099,46.913L66.099,46.913z M69.174,40.918c1.53,0,2.769-1.235,2.769-2.76
	c0-1.52-1.239-2.755-2.769-2.755c-1.527,0-2.769,1.235-2.769,2.755C66.405,39.683,67.647,40.918,69.174,40.918L69.174,40.918z
	 M14.664,78.006l-0.32,2.222c0.027-0.305,0.07-0.509,0,0c-0.731-0.594-1.723-0.889-2.971-0.889c-2.485,0-4.357,1.071-5.622,3.215
	c-1.002,1.71-1.44,3.58-1.322,5.606c0.101,1.66,0.686,2.839,1.767,3.53c0.905,0.579,1.944,0.866,3.115,0.866
	c1.274,0,2.374-0.318,3.296-0.957c0,0-0.027,1.729,0,0c-0.025,0.762-0.082,0.963-0.166,1.589c-0.07,0.545-0.082,0.623-0.164,1.291
	C11.939,94.523,10.901,95,9.05,95c-1.759,0-3.273-0.292-4.541-0.881c-2.143-0.99-3.299-2.885-3.47-5.679
	c-0.084-1.416,0.095-2.828,0.539-4.234c0.784-2.504,2.237-4.412,4.359-5.72c1.742-1.057,3.754-1.557,6.04-1.583
	c1.554-0.026,2.812,0.519,2.812,0.519S14.664,77.672,14.664,78.006L14.664,78.006z M25.281,76.903
	c-2.036,0.013-3.811,0.428-5.321,1.239c-2.223,1.197-3.736,3.007-4.54,5.428c-0.58,1.723-0.816,3.429-0.714,5.123
	c0.106,1.762,0.738,3.202,1.902,4.318C17.992,94.338,19.948,95,22.483,95c1.987,0,3.757-0.415,5.305-1.236
	c2.239-1.204,3.756-3.014,4.546-5.425c0.567-1.719,0.8-3.424,0.702-5.113c-0.108-1.797-0.743-3.241-1.91-4.347
	C29.745,77.559,27.799,76.903,25.281,76.903L25.281,76.903z M24.879,79.34c1.104,0.01,2.027,0.249,2.76,0.724
	c1.196,0.762,1.844,2.04,1.956,3.838c0.055,0.957-0.033,1.94-0.273,2.936c-0.234,0.993-0.595,1.872-1.064,2.643
	c-1.262,2.049-3.067,3.077-5.414,3.077c-1.706,0-2.956-0.55-3.735-1.653c-0.578-0.809-0.897-1.773-0.964-2.883
	c-0.074-1.203,0.076-2.394,0.436-3.56c0.559-1.864,1.503-3.239,2.837-4.115C22.442,79.677,23.594,79.34,24.879,79.34L24.879,79.34
	L24.879,79.34z M52.667,77.28l-2.656,17.347h-3.07l-7.927-12.368l-1.892,12.368h-3.072l2.652-17.347h3l7.981,12.493l1.912-12.493
	H52.667L52.667,77.28z M65.166,77.28h-3.444l-9.734,17.347h3.303l2.489-4.662h6.95l1.081,4.662h3.473L65.166,77.28L65.166,77.28z
	 M64.284,87.661h-5.266l3.723-6.823L64.284,87.661L64.284,87.661L64.284,87.661z M113.982,77.28l-0.375,2.43h-5.334l-2.285,14.917
	h-3.143l2.299-14.917h-5.086l-5.94,7.459l-1.143,7.458h-3.137l1.135-7.397l-4.935-9.95h3.793l3.358,7.03l5.349-7.03H113.982
	L113.982,77.28z M84.547,77.888l-0.317,2.224c0.023-0.306,0.068-0.516,0,0c-0.736-0.595-1.725-0.892-2.972-0.892
	c-2.487,0-4.359,1.072-5.625,3.216c-1.006,1.711-1.444,3.579-1.32,5.605c0.098,1.661,0.69,2.838,1.766,3.533
	c0.904,0.577,1.942,0.863,3.115,0.863c1.276,0,2.373-0.317,3.298-0.952c0,0-0.029,1.726,0,0c-0.023,0.757-0.085,0.959-0.163,1.586
	c-0.075,0.543-0.085,0.627-0.172,1.29c-0.332,0.042-1.369,0.519-3.223,0.519c-1.761,0-3.275-0.295-4.545-0.879
	c-2.136-0.991-3.296-2.884-3.464-5.684c-0.088-1.411,0.088-2.823,0.537-4.226c0.78-2.513,2.235-4.414,4.359-5.721
	c1.742-1.063,3.752-1.559,6.039-1.59c1.555-0.021,2.811,0.521,2.811,0.521S84.547,77.556,84.547,77.888z"/>
</svg>
