<?xml version="1.0" encoding="utf-8"?>
<!-- Generator: Adobe Illustrator 23.0.3, SVG Export Plug-In . SVG Version: 6.00 Build 0)  -->
<svg version="1.1" id="Capa_1" xmlns="http://www.w3.org/2000/svg" xmlns:xlink="http://www.w3.org/1999/xlink" x="0px" y="0px"
	 viewBox="0 0 100 32" style="enable-background:new 0 0 100 32;" xml:space="preserve">
<style type="text/css">
	.st0{fill:#FFFFFF;}
</style>
<path class="st0" d="M1,3.176c0-0.74,0.201-1.287,0.602-1.643C2.004,1.178,2.565,1,3.288,1c0.455,0,0.877,0.064,1.265,0.192
	C4.94,1.32,5.201,1.427,5.335,1.512v28.805H1V3.176z M17.1,11.626c-1.739,0-2.971,0.256-3.693,0.768
	c-0.723,0.512-1.084,1.237-1.084,2.176c0,0.768,0.307,1.352,0.923,1.75c0.615,0.399,1.538,0.697,2.769,0.896l3.453,0.512
	c2.569,0.399,4.396,1.117,5.48,2.155c1.084,1.038,1.626,2.397,1.626,4.075c0,2.048-0.75,3.72-2.248,5.014
	c-1.499,1.295-3.787,1.942-6.865,1.942c-1.419,0-2.697-0.121-3.834-0.363c-1.138-0.242-2.107-0.512-2.91-0.811
	c-0.803-0.298-1.439-0.597-1.907-0.896c-0.468-0.299-0.756-0.491-0.863-0.576l1.646-3.073c0.107,0.085,0.367,0.249,0.783,0.491
	c0.414,0.242,0.956,0.498,1.626,0.768c0.669,0.27,1.459,0.505,2.369,0.704c0.909,0.199,1.927,0.298,3.051,0.298
	c1.525,0,2.703-0.22,3.532-0.661s1.245-1.174,1.245-2.198c0-0.825-0.301-1.458-0.904-1.899c-0.602-0.441-1.693-0.775-3.272-1.003
	l-2.769-0.427c-2.248-0.341-3.988-1.003-5.219-1.984c-1.231-0.982-1.847-2.425-1.847-4.332c0-0.882,0.147-1.721,0.442-2.518
	c0.294-0.796,0.783-1.5,1.465-2.112c0.682-0.611,1.578-1.102,2.69-1.472c1.11-0.37,2.482-0.555,4.114-0.555
	c1.847,0,3.319,0.156,4.416,0.469c1.097,0.313,1.913,0.612,2.449,0.896c1.097,0.597,1.646,1.323,1.646,2.176
	c0,0.569-0.147,1.032-0.441,1.387c-0.295,0.356-0.589,0.633-0.883,0.832c-0.054-0.057-0.235-0.22-0.542-0.491
	c-0.308-0.27-0.743-0.547-1.305-0.832c-0.562-0.284-1.272-0.54-2.128-0.768C19.255,11.74,18.251,11.626,17.1,11.626z M34.884,12.565
	v11.01c0,1.423,0.294,2.397,0.883,2.923c0.588,0.527,1.391,0.789,2.408,0.789c0.428,0,0.829-0.049,1.205-0.149
	c0.374-0.1,0.708-0.22,1.004-0.363c0.294-0.142,0.535-0.277,0.722-0.405c0.187-0.128,0.321-0.22,0.402-0.278l1.605,2.731
	c-0.107,0.085-0.308,0.25-0.602,0.491c-0.295,0.242-0.683,0.477-1.164,0.704c-0.482,0.228-1.064,0.434-1.747,0.619
	c-0.682,0.185-1.452,0.277-2.308,0.277c-1.151,0-2.141-0.171-2.971-0.512c-0.83-0.341-1.512-0.817-2.047-1.43
	c-0.535-0.611-0.93-1.33-1.184-2.155c-0.254-0.825-0.381-1.721-0.381-2.689V12.565h-1.847c-1.285,0-1.927-0.612-1.927-1.835
	c0-0.455,0.067-0.846,0.201-1.174c0.134-0.327,0.227-0.547,0.281-0.661h3.292V4.243c0-0.683,0.194-1.187,0.582-1.515
	c0.388-0.327,0.929-0.491,1.626-0.491c0.455,0,0.863,0.058,1.225,0.171c0.361,0.114,0.608,0.2,0.743,0.256v6.231h5.138
	c1.258,0,1.887,0.612,1.887,1.835c0,0.455-0.06,0.847-0.181,1.174c-0.12,0.327-0.207,0.548-0.261,0.662H34.884z M52.788,8.212
	c1.713,0,3.245,0.32,4.597,0.96c1.351,0.64,2.429,1.643,3.231,3.008c0.696-1.195,1.659-2.155,2.89-2.881
	c1.231-0.725,2.69-1.088,4.376-1.088c1.15,0,2.234,0.171,3.251,0.512c1.017,0.341,1.9,0.847,2.65,1.515
	c0.749,0.669,1.338,1.509,1.766,2.518c0.428,1.01,0.642,2.198,0.642,3.563v13.997h-4.175V17.814c0-2.048-0.415-3.542-1.244-4.481
	c-0.83-0.939-2.007-1.408-3.533-1.408c-1.499,0-2.717,0.519-3.653,1.557c-0.937,1.039-1.405,2.667-1.405,4.887v11.949h-4.135V18.198
	c0-2.19-0.469-3.783-1.405-4.779c-0.937-0.996-2.248-1.494-3.934-1.494c-1.311,0-2.328,0.128-3.051,0.384
	c-0.723,0.256-1.178,0.441-1.365,0.555v17.454h-4.135V10.09c0.107-0.057,0.381-0.185,0.823-0.384c0.441-0.199,1.03-0.412,1.766-0.64
	c0.735-0.227,1.612-0.427,2.629-0.597C50.393,8.297,51.53,8.212,52.788,8.212z M99,19.606c0,1.622-0.261,3.13-0.783,4.523
	c-0.522,1.395-1.251,2.596-2.188,3.606c-0.937,1.01-2.061,1.807-3.372,2.39C91.346,30.708,89.901,31,88.322,31
	s-3.031-0.292-4.356-0.875c-1.325-0.583-2.456-1.38-3.392-2.39c-0.937-1.01-1.666-2.212-2.187-3.606
	c-0.522-1.393-0.783-2.902-0.783-4.523s0.261-3.129,0.783-4.523c0.522-1.394,1.25-2.596,2.187-3.606
	c0.937-1.009,2.068-1.807,3.392-2.39c1.325-0.583,2.777-0.875,4.356-0.875s3.024,0.292,4.336,0.875
	c1.311,0.583,2.435,1.38,3.372,2.39c0.937,1.01,1.666,2.212,2.188,3.606C98.739,16.477,99,17.984,99,19.606z M94.705,19.606
	c0-1.138-0.147-2.183-0.441-3.137c-0.295-0.953-0.717-1.778-1.265-2.475c-0.549-0.697-1.218-1.237-2.007-1.622
	c-0.79-0.384-1.68-0.576-2.67-0.576c-1.017,0-1.92,0.192-2.71,0.576c-0.79,0.384-1.459,0.925-2.007,1.622
	c-0.549,0.698-0.971,1.522-1.265,2.475c-0.295,0.954-0.441,1.999-0.441,3.137c0,1.138,0.147,2.184,0.441,3.137
	c0.294,0.954,0.716,1.778,1.265,2.475c0.548,0.698,1.217,1.238,2.007,1.622c0.789,0.384,1.692,0.576,2.71,0.576
	c0.99,0,1.88-0.192,2.67-0.576c0.789-0.384,1.458-0.924,2.007-1.622c0.548-0.697,0.97-1.521,1.265-2.475
	C94.558,21.79,94.705,20.744,94.705,19.606z"/>
</svg>
