<?xml version="1.0" encoding="utf-8"?>
<!-- Generator: Adobe Illustrator 22.1.0, SVG Export Plug-In . SVG Version: 6.00 Build 0)  -->
<svg version="1.1" id="Capa_1" xmlns="http://www.w3.org/2000/svg" xmlns:xlink="http://www.w3.org/1999/xlink" x="0px" y="0px"
	 viewBox="-49 225 82 96" style="enable-background:new -49 225 82 96;" xml:space="preserve">
<style type="text/css">
	.st0{fill:#000000;}
</style>
<path class="st0" d="M28.639,301.006H9.246l-8.1-8.068h-18.54l-7.884,7.855h-18.329c-2.248,0.158-4.254-1.205-4.369-2.68v-69.082
	c-0.186-0.875,0.037-2.799,2.9-3.031l33.224,0.06v10.616h-22.163v51.166h7.469l7.891-7.86H2.01l7.895,7.866h7.868v-51.172H-4.184
	V226.27h32.823c3.377-0.268,3.319,2.453,3.347,3.616v66.67C32.234,298.59,31.302,300.551,28.639,301.006z M-41.986,308.284
	c1.937-1.201,4.484-1.805,7.645-1.805c2.756,0,4.998,0.472,6.72,1.418c1.031,0.559,1.798,1.363,2.312,2.409l-4.512,0.624
	c-0.261-0.679-0.818-1.214-1.669-1.607c-0.846-0.391-1.876-0.587-3.083-0.587c-1.67,0-3.03,0.348-4.068,1.044
	c-1.039,0.694-1.56,1.82-1.56,3.379c0,1.653,0.509,2.831,1.538,3.531c1.024,0.703,2.356,1.055,3.995,1.055
	c1.212,0,2.253-0.223,3.125-0.671c0.871-0.443,1.496-1.147,1.879-2.104l4.409,0.812c-0.677,1.428-1.8,2.486-3.375,3.182
	C-30.2,319.652-32.199,320-34.62,320c-2.993,0-5.454-0.595-7.382-1.779c-1.927-1.187-2.894-2.81-2.894-4.866
	C-44.896,311.179-43.924,309.489-41.986,308.284z M-16.929,319.777h-4.553v-13.075h4.553V319.777z M-1.283,306.702l9.03,13.075H2.79
	l-1.968-2.97h-9.016l-1.858,2.97h-4.83l8.785-13.075H-1.283z M-0.638,314.604l-3.107-4.853l-3.046,4.853H-0.638z M22.759,306.952
	c1.323,0.224,2.458,0.627,3.397,1.204c0.946,0.576,1.665,1.283,2.158,2.117c0.488,0.838,0.737,1.867,0.737,3.093
	c0,1.075-0.233,2.004-0.694,2.785c-0.561,0.95-1.365,1.718-2.415,2.307c-0.787,0.447-1.853,0.793-3.197,1.043
	c-1.004,0.188-2.346,0.278-4.033,0.278h-8.564v-13.075h8.322C20.346,306.702,21.773,306.785,22.759,306.952z M14.7,308.915v8.657
	h3.397c1.271,0,2.189-0.038,2.756-0.125c0.734-0.105,1.349-0.285,1.837-0.543c0.488-0.255,0.882-0.677,1.192-1.262
	c0.306-0.584,0.462-1.385,0.462-2.396c0-1.01-0.156-1.783-0.462-2.326c-0.309-0.541-0.739-0.965-1.291-1.266
	c-0.556-0.304-1.259-0.508-2.111-0.615c-0.636-0.084-1.879-0.125-3.739-0.125H14.7z"/>
</svg>
