<?xml version="1.0" encoding="utf-8"?>
<!-- Generator: Adobe Illustrator 22.1.0, SVG Export Plug-In . SVG Version: 6.00 Build 0)  -->
<svg version="1.1" id="Capa_1" xmlns="http://www.w3.org/2000/svg" xmlns:xlink="http://www.w3.org/1999/xlink" x="0px" y="0px"
	 viewBox="0 0 233 70" style="enable-background:new 0 0 233 70;" xml:space="preserve">
<style type="text/css">
	.st0{fill-rule:evenodd;clip-rule:evenodd;fill:#FFFFFF;fill-opacity:0.7;}
	.st1{fill-rule:evenodd;clip-rule:evenodd;fill:#FFFFFF;}
</style>
<path id="XMLID_27_" class="st0" d="M77.365,48.6c0.23-0.344,0.525-0.665,0.885-0.962c0.353-0.296,0.742-0.519,1.166-0.667
	c0.424-0.149,0.875-0.223,1.352-0.223c0.028,0,0.056,0,0.084,0c0.028,0,0.056,0,0.084,0c0.028,0.006,0.056,0.009,0.085,0.009
	c0.028,0,0.056,0,0.084,0c0.056,0.005,0.114,0.01,0.173,0.012c0.059,0.003,0.119,0.007,0.181,0.012
	c0.113,0.006,0.223,0.018,0.333,0.038c0.11,0.02,0.218,0.044,0.325,0.072c0.107,0.028,0.205,0.063,0.295,0.105
	c0.09,0.042,0.171,0.091,0.244,0.147l-0.379,0.646H82.21c-0.073-0.09-0.153-0.172-0.24-0.247c-0.088-0.076-0.178-0.142-0.274-0.198
	c-0.101-0.056-0.202-0.102-0.304-0.139c-0.101-0.036-0.208-0.065-0.32-0.088c-0.034-0.005-0.066-0.01-0.097-0.013
	c-0.031-0.003-0.06-0.006-0.088-0.012c-0.017,0-0.034,0-0.051,0c-0.017,0-0.031-0.003-0.042-0.009c-0.017,0-0.032,0-0.046,0
	s-0.029,0-0.046,0c-0.298,0-0.594,0.057-0.889,0.168c-0.295,0.113-0.586,0.28-0.872,0.504c-0.287,0.225-0.53,0.49-0.729,0.798
	c-0.199,0.308-0.353,0.661-0.459,1.057c-0.006,0.012-0.01,0.021-0.013,0.03c-0.003,0.009-0.004,0.018-0.004,0.03
	c0,0.006-0.001,0.01-0.004,0.012c-0.003,0.003-0.004,0.007-0.004,0.013c0,0.005-0.001,0.01-0.004,0.012
	c-0.003,0.003-0.004,0.008-0.004,0.013c-0.118,0.476-0.161,0.885-0.131,1.225c0.031,0.342,0.136,0.611,0.316,0.806
	c0.18,0.203,0.386,0.351,0.619,0.45c0.233,0.098,0.493,0.146,0.78,0.146c0.011,0,0.022,0,0.034,0c0.011,0,0.022,0,0.033,0
	c0.011,0,0.024,0,0.038,0c0.014,0,0.029,0,0.046,0c0.157-0.011,0.316-0.032,0.476-0.063c0.16-0.031,0.319-0.075,0.476-0.13
	c0.163-0.056,0.319-0.121,0.468-0.197c0.149-0.076,0.29-0.158,0.426-0.248l-0.211,0.512c-0.028,0.022-0.057,0.042-0.088,0.058
	c-0.031,0.017-0.06,0.031-0.088,0.042c-0.062,0.028-0.122,0.054-0.181,0.08c-0.059,0.025-0.116,0.049-0.172,0.071
	c-0.068,0.022-0.134,0.042-0.198,0.06c-0.065,0.016-0.128,0.036-0.19,0.058c-0.022,0.006-0.043,0.012-0.063,0.017
	c-0.02,0.006-0.041,0.011-0.063,0.016c-0.09,0.017-0.177,0.034-0.262,0.051c-0.084,0.016-0.166,0.031-0.244,0.041
	c-0.079,0.012-0.158,0.02-0.236,0.026c-0.079,0.005-0.157,0.008-0.236,0.008c-0.411,0-0.774-0.065-1.091-0.192
	c-0.317-0.129-0.591-0.33-0.821-0.604c-0.23-0.275-0.369-0.599-0.417-0.97c-0.048-0.373-0.01-0.794,0.114-1.264v-0.017
	C76.964,49.312,77.135,48.944,77.365,48.6L77.365,48.6z M82.481,49.813c-0.169,0.269-0.298,0.565-0.387,0.889v0.017
	c-0.073,0.263-0.096,0.508-0.068,0.735c0.028,0.227,0.104,0.432,0.228,0.617c0.123,0.185,0.295,0.322,0.514,0.412
	c0.219,0.089,0.486,0.134,0.801,0.134c0.006,0,0.011,0,0.017,0c0.006,0,0.012,0,0.017,0c0.011,0,0.019,0,0.025,0
	c0.011,0,0.023,0,0.034,0c0.011,0,0.022,0,0.034,0c0.281,0,0.542-0.035,0.783-0.105c0.241-0.069,0.461-0.175,0.657-0.315
	c0.197-0.145,0.369-0.299,0.518-0.462c0.149-0.162,0.277-0.33,0.384-0.503c0.028-0.056,0.056-0.11,0.084-0.164
	c0.028-0.053,0.054-0.107,0.076-0.163c0.028-0.057,0.05-0.11,0.067-0.164c0.017-0.054,0.031-0.106,0.042-0.155
	c0.017-0.051,0.031-0.111,0.042-0.181c0.011-0.069,0.02-0.149,0.025-0.239c0.005-0.089,0.005-0.181,0-0.273
	c-0.005-0.093-0.014-0.187-0.025-0.282c-0.028-0.145-0.076-0.282-0.143-0.411c-0.068-0.129-0.155-0.252-0.261-0.37
	c-0.106-0.117-0.248-0.206-0.425-0.268c-0.177-0.062-0.389-0.092-0.636-0.092c-0.331,0-0.644,0.052-0.939,0.155
	c-0.295,0.103-0.569,0.262-0.822,0.474C82.863,49.306,82.649,49.544,82.481,49.813L82.481,49.813z M82.843,50.913
	c0.011-0.057,0.022-0.106,0.033-0.152l-0.008,0.017c0-0.011,0.001-0.023,0.004-0.037c0.003-0.014,0.007-0.03,0.012-0.046
	c0-0.012,0.002-0.019,0.004-0.025c0.003-0.006,0.007-0.014,0.013-0.025c0-0.006,0.001-0.013,0.004-0.02
	c0.003-0.009,0.005-0.016,0.005-0.022c0-0.012,0.001-0.021,0.004-0.03c0.003-0.008,0.007-0.015,0.012-0.02
	c0-0.012,0.002-0.023,0.005-0.034c0.003-0.01,0.007-0.022,0.012-0.033c0.062-0.213,0.15-0.415,0.266-0.609
	c0.115-0.193,0.254-0.377,0.417-0.55c0.158-0.18,0.33-0.312,0.519-0.399c0.188-0.087,0.386-0.13,0.594-0.13
	c0.213,0,0.389,0.042,0.526,0.126c0.138,0.084,0.235,0.207,0.291,0.37c0.056,0.167,0.08,0.359,0.072,0.574
	c-0.009,0.216-0.049,0.456-0.122,0.718c-0.095,0.296-0.208,0.557-0.337,0.781c-0.129,0.224-0.272,0.409-0.429,0.553
	c-0.163,0.151-0.33,0.263-0.501,0.337c-0.172,0.073-0.347,0.109-0.527,0.109c-0.157-0.011-0.292-0.039-0.404-0.084
	c-0.113-0.045-0.2-0.109-0.262-0.193c-0.067-0.084-0.121-0.174-0.16-0.269c-0.039-0.095-0.064-0.193-0.075-0.294
	c-0.012-0.079-0.016-0.153-0.013-0.223c0.003-0.07,0.007-0.139,0.013-0.205C82.821,51.031,82.832,50.969,82.843,50.913
	L82.843,50.913L82.843,50.913z M87.874,48.453c0.017,0.01,0.036,0.021,0.059,0.029c0.022,0.008,0.044,0.015,0.067,0.021
	c0.011,0,0.023,0.002,0.034,0.004c0.011,0.003,0.025,0.004,0.042,0.004c0.011,0.006,0.023,0.009,0.034,0.009
	c0.011,0,0.022,0,0.034,0c0.005,0,0.011,0,0.016,0c0.006,0,0.011,0,0.017,0c0.005,0,0.011,0,0.017,0c0.006,0,0.011,0,0.016,0
	c0.012,0,0.023,0,0.034,0c0.011,0,0.022,0,0.034,0c0.022,0,0.045-0.002,0.068-0.005c0.022-0.003,0.045-0.005,0.067-0.005
	c0.034-0.005,0.066-0.012,0.097-0.021c0.031-0.008,0.06-0.015,0.089-0.021l-0.194,0.705c0.022-0.011,0.047-0.03,0.072-0.055
	c0.025-0.025,0.052-0.052,0.08-0.08c0.028-0.028,0.057-0.056,0.088-0.084c0.031-0.028,0.066-0.058,0.106-0.092
	c0.073-0.055,0.152-0.109,0.236-0.159c0.084-0.05,0.18-0.1,0.286-0.151c0.107-0.05,0.222-0.088,0.346-0.113
	c0.123-0.025,0.255-0.038,0.396-0.038h0.009c0.006,0,0.011,0,0.017,0c0.162,0.006,0.31,0.042,0.442,0.109
	c0.132,0.067,0.246,0.165,0.342,0.294c0.101,0.13,0.155,0.303,0.164,0.521c0.008,0.218-0.029,0.484-0.114,0.798l-0.649,2.426
	c-0.011,0-0.023,0-0.034,0c-0.011,0-0.022-0.003-0.034-0.008c-0.017,0-0.031-0.001-0.042-0.004
	c-0.011-0.003-0.023-0.004-0.034-0.004c-0.011-0.006-0.027-0.009-0.046-0.009c-0.02,0-0.038-0.003-0.055-0.008
	c-0.006,0-0.013,0-0.021,0c-0.009,0-0.018,0-0.029,0c-0.028,0-0.059,0.001-0.093,0.004c-0.033,0.003-0.07,0.007-0.11,0.014
	c-0.034,0.005-0.069,0.009-0.105,0.011c-0.036,0.003-0.077,0.004-0.122,0.004l0.649-2.443c0.056-0.191,0.079-0.36,0.067-0.507
	c-0.011-0.149-0.05-0.273-0.118-0.374c-0.073-0.101-0.157-0.176-0.253-0.227c-0.095-0.05-0.202-0.075-0.32-0.075
	c-0.006,0-0.01,0-0.013,0c-0.003,0-0.007,0-0.013,0c-0.006,0-0.01,0-0.013,0c-0.003,0-0.007,0-0.013,0
	c-0.129,0.006-0.26,0.039-0.391,0.101c-0.132,0.061-0.263,0.148-0.392,0.26c-0.134,0.107-0.248,0.241-0.341,0.404
	c-0.093,0.162-0.17,0.35-0.232,0.562l-0.615,2.3c-0.034,0-0.066-0.001-0.097-0.004c-0.031-0.002-0.061-0.007-0.088-0.011
	c-0.012,0-0.024-0.002-0.038-0.005c-0.014-0.003-0.027-0.004-0.038-0.004c-0.017-0.006-0.033-0.008-0.046-0.008
	c-0.014,0-0.027,0-0.038,0c-0.028,0-0.057,0.001-0.088,0.004c-0.031,0.003-0.063,0.007-0.097,0.014c-0.017,0-0.033,0.001-0.05,0.004
	c-0.017,0.003-0.031,0.004-0.042,0.004c-0.017,0.005-0.034,0.008-0.051,0.008c-0.017,0-0.033,0-0.05,0L87.874,48.453L87.874,48.453z
	 M92.248,49.141c0.118-0.162,0.263-0.294,0.438-0.394c0.089-0.051,0.179-0.095,0.269-0.135c0.09-0.039,0.179-0.07,0.27-0.092
	c0.09-0.028,0.18-0.049,0.27-0.063c0.09-0.015,0.179-0.021,0.27-0.021c0.056,0,0.111,0.003,0.165,0.009
	c0.053,0.006,0.105,0.011,0.156,0.017c0.028,0.005,0.055,0.011,0.08,0.017c0.025,0.006,0.052,0.011,0.08,0.017
	c0.079,0.022,0.152,0.048,0.219,0.076c0.067,0.028,0.132,0.059,0.194,0.091l-0.379,0.647h-0.135
	c-0.006-0.078-0.022-0.149-0.05-0.214c-0.028-0.065-0.071-0.119-0.127-0.164c-0.056-0.044-0.115-0.078-0.177-0.101
	c-0.062-0.022-0.132-0.036-0.21-0.042c-0.006,0-0.011,0-0.017,0c-0.006,0-0.011,0-0.017,0c-0.084,0-0.167,0.011-0.249,0.034
	c-0.081,0.023-0.161,0.056-0.24,0.101c-0.085,0.044-0.157,0.101-0.219,0.167c-0.062,0.067-0.112,0.146-0.151,0.236
	c-0.006,0.006-0.01,0.011-0.013,0.016c-0.003,0.006-0.004,0.012-0.004,0.017c-0.006,0.005-0.009,0.011-0.009,0.016
	c0,0.005,0,0.012,0,0.017c-0.006,0.005-0.011,0.013-0.017,0.021c-0.005,0.008-0.008,0.016-0.008,0.021c0,0.006,0,0.011,0,0.017
	c-0.006,0.006-0.008,0.011-0.008,0.017c-0.022,0.1-0.024,0.19-0.004,0.268c0.019,0.079,0.063,0.143,0.13,0.194
	c0.073,0.05,0.152,0.097,0.236,0.142c0.084,0.045,0.174,0.084,0.269,0.117c0.011,0.006,0.021,0.009,0.029,0.013
	c0.008,0.003,0.016,0.003,0.021,0.003c0.011,0.006,0.021,0.01,0.029,0.013c0.008,0.003,0.018,0.007,0.029,0.013
	c0.017,0.006,0.035,0.012,0.055,0.017c0.02,0.006,0.041,0.011,0.063,0.017c0.006,0.006,0.014,0.011,0.025,0.016
	c0.011,0.006,0.022,0.012,0.034,0.017c0.011,0.005,0.023,0.01,0.034,0.013c0.011,0.003,0.023,0.005,0.034,0.005
	c0.135,0.055,0.247,0.12,0.337,0.192c0.09,0.073,0.155,0.156,0.194,0.252c0.045,0.089,0.071,0.182,0.08,0.278
	c0.008,0.095,0.001,0.19-0.021,0.285v0.009c-0.006,0.005-0.008,0.012-0.008,0.017c0,0.005,0,0.01,0,0.012
	c0,0.004-0.003,0.008-0.008,0.013c-0.051,0.157-0.134,0.308-0.249,0.454c-0.115,0.145-0.263,0.282-0.443,0.411
	c-0.18,0.129-0.366,0.224-0.56,0.286c-0.194,0.061-0.398,0.092-0.611,0.092c-0.118,0-0.231-0.006-0.337-0.016
	c-0.107-0.012-0.211-0.028-0.312-0.051c-0.106-0.011-0.198-0.038-0.274-0.08c-0.076-0.042-0.136-0.097-0.181-0.164l0.362-0.613
	h0.135c0.022,0.084,0.049,0.156,0.08,0.218c0.031,0.061,0.066,0.114,0.105,0.159c0.04,0.045,0.081,0.085,0.126,0.118
	c0.045,0.034,0.093,0.059,0.143,0.076c0.017,0.006,0.036,0.012,0.059,0.021c0.022,0.008,0.045,0.015,0.067,0.021
	c0.017,0.006,0.036,0.008,0.059,0.008c0.022,0,0.045,0,0.068,0c0.05,0,0.102-0.002,0.156-0.008c0.053-0.006,0.105-0.017,0.156-0.034
	c0.05-0.016,0.102-0.039,0.156-0.067c0.053-0.027,0.105-0.059,0.156-0.092c0.095-0.072,0.177-0.148,0.244-0.227
	c0.067-0.078,0.121-0.159,0.16-0.243c0-0.007,0-0.011,0-0.017c0-0.006,0.003-0.012,0.008-0.017c0-0.005,0-0.011,0-0.017
	c0-0.005,0.003-0.011,0.008-0.016c0.022-0.129,0.02-0.237-0.008-0.323c-0.028-0.087-0.082-0.153-0.16-0.197
	c-0.073-0.045-0.153-0.085-0.24-0.122c-0.087-0.036-0.178-0.071-0.274-0.105c-0.006,0-0.011,0-0.017,0
	c-0.006,0-0.011-0.003-0.017-0.008c-0.006,0-0.01,0-0.013,0c-0.003,0-0.004-0.003-0.004-0.008c-0.006,0-0.01,0-0.013,0
	c-0.003,0-0.007,0-0.012,0c-0.012-0.005-0.023-0.01-0.034-0.013c-0.011-0.003-0.023-0.007-0.034-0.013
	c-0.011,0-0.023-0.001-0.034-0.005c-0.011-0.003-0.022-0.006-0.033-0.012c-0.011-0.006-0.022-0.01-0.034-0.013
	c-0.011-0.003-0.022-0.007-0.034-0.012c-0.011-0.006-0.023-0.01-0.034-0.013c-0.011-0.002-0.022-0.006-0.034-0.012
	c-0.09-0.034-0.17-0.078-0.24-0.134c-0.07-0.057-0.131-0.121-0.181-0.194c-0.056-0.078-0.087-0.172-0.093-0.282
	c-0.006-0.109,0.011-0.239,0.051-0.39v-0.017C92.039,49.491,92.129,49.304,92.248,49.141L92.248,49.141z M95.222,49.759
	c0.169-0.272,0.37-0.497,0.606-0.676c0.242-0.179,0.488-0.314,0.742-0.407c0.253-0.092,0.511-0.139,0.775-0.139
	c0.236,0,0.438,0.03,0.607,0.089c0.168,0.058,0.3,0.144,0.396,0.256c0.095,0.117,0.171,0.239,0.228,0.365
	c0.056,0.125,0.09,0.259,0.101,0.399c0.006,0.056,0.009,0.113,0.009,0.172s-0.006,0.119-0.017,0.181
	c0,0.016-0.001,0.035-0.005,0.055c-0.003,0.019-0.007,0.037-0.013,0.054c-0.005,0.039-0.009,0.075-0.012,0.105
	c-0.003,0.031-0.01,0.063-0.021,0.096c-0.006,0.028-0.013,0.055-0.021,0.08c-0.008,0.026-0.018,0.049-0.029,0.072
	c-0.006,0.022-0.013,0.044-0.022,0.067c-0.008,0.023-0.018,0.042-0.029,0.059l-2.847-0.017c-0.067,0.257-0.103,0.487-0.105,0.688
	c-0.003,0.201,0.024,0.378,0.08,0.529c0.062,0.151,0.18,0.264,0.354,0.34c0.174,0.076,0.401,0.113,0.682,0.113
	c0.112,0,0.226-0.011,0.341-0.033c0.115-0.022,0.234-0.059,0.358-0.109c0.123-0.045,0.239-0.1,0.345-0.164
	c0.106-0.064,0.205-0.138,0.295-0.222l-0.059,0.445c0,0.006-0.001,0.01-0.004,0.013c-0.003,0.002-0.004,0.007-0.004,0.013
	c-0.006,0-0.011,0.002-0.017,0.008h-0.008l-0.009,0.008c-0.011,0.006-0.021,0.011-0.029,0.017c-0.009,0.006-0.018,0.012-0.03,0.017
	c-0.011,0.005-0.021,0.011-0.03,0.017c-0.008,0.005-0.018,0.011-0.029,0.016c-0.107,0.056-0.212,0.109-0.316,0.159
	c-0.104,0.05-0.212,0.092-0.324,0.126c-0.112,0.045-0.241,0.078-0.387,0.101c-0.146,0.023-0.306,0.033-0.48,0.033
	c-0.342-0.016-0.625-0.077-0.846-0.18c-0.222-0.103-0.381-0.253-0.476-0.449c-0.101-0.196-0.163-0.406-0.186-0.63
	c-0.022-0.223-0.008-0.459,0.043-0.705v-0.017C94.922,50.345,95.053,50.03,95.222,49.759L95.222,49.759z M97.956,50.204
	L97.956,50.204c0.003-0.014,0.007-0.029,0.013-0.047c0-0.011,0.001-0.019,0.004-0.025c0.003-0.006,0.004-0.014,0.004-0.025
	c0-0.005,0.001-0.013,0.004-0.021c0.003-0.008,0.005-0.015,0.005-0.021c0.033-0.151,0.047-0.295,0.041-0.432
	c-0.005-0.137-0.031-0.267-0.076-0.39c-0.04-0.129-0.117-0.224-0.232-0.286c-0.115-0.062-0.271-0.092-0.468-0.092
	c-0.146,0-0.285,0.027-0.417,0.08c-0.132,0.053-0.257,0.13-0.375,0.231c-0.118,0.106-0.222,0.215-0.312,0.327
	c-0.09,0.112-0.168,0.232-0.235,0.361c-0.023,0.033-0.042,0.067-0.059,0.101c-0.017,0.033-0.031,0.067-0.042,0.1
	c-0.011,0.034-0.021,0.066-0.029,0.097c-0.009,0.031-0.018,0.06-0.03,0.088l2.19-0.017C97.949,50.227,97.953,50.217,97.956,50.204
	L97.956,50.204z M100.261,48.52l-1.171,4.357c-0.073,0.269-0.155,0.502-0.244,0.702c-0.09,0.198-0.185,0.359-0.286,0.482
	c-0.107,0.129-0.205,0.224-0.295,0.285c-0.09,0.061-0.176,0.092-0.261,0.092c-0.011,0-0.02,0-0.025,0c-0.005,0-0.014,0-0.025,0
	c-0.006-0.005-0.013-0.009-0.022-0.009c-0.008,0-0.015,0-0.021,0c-0.011-0.005-0.023-0.01-0.038-0.013
	c-0.014-0.003-0.027-0.01-0.038-0.021l-0.068,0.269c0.011,0,0.022,0.002,0.03,0.004c0.008,0.003,0.018,0.007,0.029,0.013
	c0.011,0,0.021,0.001,0.029,0.005c0.009,0.003,0.018,0.003,0.03,0.003c0.011,0,0.022,0,0.034,0c0.011,0,0.02,0.003,0.025,0.009
	c0.011,0,0.023,0,0.034,0c0.011,0,0.023,0,0.034,0c0.157,0,0.317-0.038,0.48-0.113c0.163-0.076,0.328-0.186,0.497-0.332
	c0.174-0.151,0.319-0.319,0.434-0.503c0.115-0.185,0.201-0.386,0.257-0.605l1.247-4.61c-0.028,0.006-0.057,0.014-0.085,0.022
	c-0.028,0.008-0.056,0.015-0.084,0.021c-0.033,0.006-0.066,0.009-0.097,0.009c-0.031,0-0.06,0-0.088,0c-0.028,0-0.056,0-0.084,0
	s-0.053-0.003-0.076-0.009c-0.028-0.006-0.054-0.013-0.08-0.021C100.307,48.55,100.283,48.537,100.261,48.52L100.261,48.52z
	 M100.64,46.845L100.64,46.845c0.039-0.047,0.087-0.09,0.143-0.129c0.056-0.035,0.111-0.061,0.164-0.081
	c0.053-0.019,0.108-0.029,0.164-0.029h0.009c0.005,0,0.011,0,0.017,0c0.051,0.006,0.097,0.018,0.139,0.038
	c0.042,0.019,0.078,0.049,0.105,0.088c0.034,0.039,0.056,0.087,0.067,0.143c0.011,0.057,0.011,0.124,0,0.201
	c-0.034,0.073-0.073,0.139-0.118,0.197c-0.045,0.059-0.093,0.105-0.143,0.139c-0.056,0.04-0.111,0.068-0.165,0.084
	c-0.053,0.016-0.105,0.025-0.156,0.025c-0.056,0-0.108-0.011-0.156-0.033c-0.047-0.022-0.088-0.056-0.122-0.101
	c-0.039-0.044-0.063-0.097-0.071-0.16c-0.009-0.061-0.002-0.131,0.021-0.209l0.008-0.017
	C100.57,46.945,100.601,46.892,100.64,46.845L100.64,46.845z M101.728,49.813c0.168-0.269,0.382-0.507,0.641-0.714
	c0.252-0.212,0.526-0.371,0.821-0.474c0.295-0.103,0.608-0.155,0.939-0.155c0.247,0,0.46,0.03,0.636,0.092
	c0.177,0.062,0.319,0.151,0.426,0.268c0.106,0.118,0.194,0.241,0.261,0.37c0.067,0.129,0.115,0.265,0.143,0.411
	c0.011,0.095,0.02,0.189,0.025,0.282c0.006,0.092,0.006,0.184,0,0.273c-0.005,0.089-0.014,0.169-0.026,0.239
	c-0.011,0.07-0.025,0.13-0.042,0.181c-0.011,0.05-0.025,0.102-0.042,0.155c-0.017,0.054-0.039,0.107-0.067,0.164
	c-0.023,0.056-0.048,0.11-0.076,0.163c-0.028,0.054-0.056,0.109-0.084,0.164c-0.107,0.173-0.234,0.341-0.383,0.503
	c-0.149,0.163-0.322,0.317-0.518,0.462c-0.197,0.14-0.416,0.246-0.657,0.315c-0.242,0.07-0.503,0.105-0.784,0.105
	c-0.011,0-0.023,0-0.034,0c-0.011,0-0.022,0-0.033,0c-0.006,0-0.014,0-0.026,0c-0.006,0-0.011,0-0.017,0c-0.006,0-0.011,0-0.017,0
	c-0.314,0-0.581-0.045-0.8-0.134c-0.219-0.09-0.39-0.227-0.514-0.412c-0.124-0.185-0.2-0.39-0.227-0.617
	c-0.028-0.227-0.006-0.472,0.067-0.735v-0.017C101.43,50.378,101.559,50.082,101.728,49.813L101.728,49.813z M102.09,50.913
	L102.09,50.913c-0.011,0.055-0.022,0.118-0.034,0.184c-0.006,0.067-0.01,0.136-0.012,0.205c-0.003,0.07,0.001,0.144,0.012,0.223
	c0.011,0.101,0.036,0.198,0.076,0.294c0.04,0.095,0.093,0.184,0.16,0.269c0.062,0.084,0.149,0.148,0.261,0.193
	c0.112,0.045,0.247,0.073,0.404,0.084c0.18,0,0.355-0.036,0.527-0.109c0.171-0.073,0.338-0.185,0.501-0.337
	c0.157-0.144,0.3-0.33,0.429-0.553c0.129-0.224,0.242-0.484,0.337-0.781c0.073-0.263,0.114-0.502,0.122-0.718
	c0.008-0.215-0.015-0.407-0.071-0.574c-0.056-0.163-0.153-0.286-0.291-0.37c-0.138-0.084-0.313-0.126-0.527-0.126
	c-0.208,0-0.406,0.043-0.594,0.13c-0.188,0.087-0.361,0.22-0.518,0.399c-0.163,0.173-0.302,0.356-0.417,0.55
	c-0.115,0.193-0.203,0.396-0.265,0.609c-0.006,0.011-0.01,0.023-0.013,0.033c-0.003,0.011-0.004,0.022-0.004,0.034
	c-0.005,0.005-0.01,0.012-0.013,0.02c-0.003,0.008-0.004,0.018-0.004,0.03c0,0.006-0.001,0.012-0.004,0.022
	c-0.003,0.007-0.004,0.014-0.004,0.02c-0.006,0.011-0.01,0.019-0.013,0.025c-0.003,0.006-0.004,0.013-0.004,0.025
	c-0.005,0.017-0.01,0.032-0.013,0.046c-0.002,0.014-0.004,0.027-0.004,0.037l0.008-0.017
	C102.112,50.807,102.101,50.856,102.09,50.913L102.09,50.913z M110.036,46.721h0.405l2.856,4.432l1.188-4.432
	c0.011,0.017,0.027,0.029,0.047,0.038c0.02,0.008,0.041,0.015,0.063,0.021c0.017,0.005,0.038,0.009,0.064,0.009
	c0.025,0,0.049,0,0.071,0c0.011,0,0.02,0,0.025,0c0.006,0,0.014,0,0.025,0c0.017,0,0.033-0.002,0.051-0.005
	c0.017-0.002,0.033-0.004,0.05-0.004c0.028-0.006,0.052-0.013,0.072-0.021c0.02-0.008,0.041-0.016,0.063-0.021l-1.559,5.801h-0.329
	l-2.898-4.559l-1.222,4.559c-0.017,0-0.034-0.001-0.05-0.004c-0.017-0.003-0.036-0.007-0.059-0.012
	c-0.017-0.006-0.036-0.01-0.055-0.013c-0.02-0.002-0.041-0.004-0.063-0.004c-0.006,0-0.013,0-0.022,0c-0.008,0-0.018,0-0.029,0
	c-0.017,0.006-0.032,0.009-0.046,0.009c-0.014,0-0.032,0.003-0.055,0.009c-0.022,0.005-0.046,0.01-0.072,0.012
	c-0.026,0.003-0.052,0.004-0.08,0.004L110.036,46.721L110.036,46.721z M115.051,51.274c-0.067,0.113-0.118,0.23-0.152,0.353v0.017
	c-0.039,0.145-0.049,0.281-0.029,0.407c0.019,0.126,0.071,0.239,0.156,0.34c0.085,0.095,0.188,0.167,0.312,0.214
	c0.123,0.048,0.269,0.071,0.438,0.071c0.084,0,0.175-0.008,0.274-0.025c0.098-0.017,0.2-0.042,0.307-0.075
	c0.1-0.029,0.206-0.07,0.316-0.126c0.109-0.056,0.226-0.123,0.349-0.201c0.017-0.012,0.033-0.023,0.051-0.034
	c0.017-0.011,0.037-0.022,0.059-0.033c0.011-0.011,0.025-0.022,0.042-0.034c0.017-0.011,0.037-0.025,0.059-0.041
	c-0.011,0.073-0.005,0.14,0.021,0.201c0.025,0.062,0.066,0.115,0.122,0.159c0.062,0.04,0.128,0.069,0.198,0.089
	c0.07,0.02,0.147,0.03,0.232,0.03c0.006,0,0.009,0,0.013,0c0.002,0,0.006,0,0.013,0c0.005,0,0.011,0,0.017,0s0.01,0,0.012,0
	c0.003,0,0.007,0,0.013,0c0.006-0.005,0.01-0.008,0.013-0.008c0.002,0,0.007,0,0.012,0c0.017,0,0.035-0.002,0.055-0.005
	c0.019-0.002,0.038-0.007,0.055-0.012c0.017-0.006,0.035-0.009,0.055-0.009c0.02,0,0.038-0.003,0.055-0.008
	c0.016-0.006,0.034-0.011,0.054-0.017c0.019-0.006,0.038-0.014,0.055-0.025c0.017-0.011,0.035-0.022,0.054-0.034
	c0.02-0.011,0.038-0.027,0.055-0.049l0.051-0.177c-0.023,0.006-0.045,0.012-0.068,0.018c-0.022,0.006-0.045,0.008-0.068,0.008
	c-0.022,0.006-0.042,0.008-0.059,0.008c-0.016,0-0.033,0-0.051,0c-0.033,0-0.065-0.004-0.092-0.013
	c-0.028-0.007-0.051-0.021-0.068-0.037c-0.017-0.017-0.025-0.041-0.025-0.072c0-0.031,0.006-0.074,0.017-0.13l0.573-2.099
	c0.062-0.245,0.088-0.459,0.08-0.638c-0.008-0.179-0.058-0.322-0.147-0.428c-0.09-0.106-0.221-0.186-0.392-0.239
	c-0.171-0.054-0.38-0.081-0.628-0.081c-0.124,0-0.243,0.01-0.358,0.03c-0.115,0.02-0.229,0.046-0.341,0.08
	c-0.107,0.039-0.21,0.077-0.308,0.114c-0.098,0.036-0.193,0.076-0.282,0.122c-0.022,0.011-0.044,0.022-0.063,0.033
	c-0.02,0.011-0.038,0.022-0.055,0.033c-0.022,0.005-0.042,0.013-0.059,0.021c-0.017,0.008-0.034,0.013-0.051,0.013l-0.118,0.462
	l0.118,0.017c0.045-0.033,0.086-0.067,0.122-0.1c0.036-0.034,0.074-0.065,0.113-0.093c0.028-0.028,0.06-0.056,0.097-0.084
	c0.037-0.027,0.074-0.053,0.114-0.075c0.061-0.039,0.12-0.073,0.177-0.101c0.056-0.027,0.112-0.053,0.169-0.076
	c0.017-0.005,0.032-0.011,0.046-0.016c0.014-0.005,0.027-0.008,0.038-0.008c0.044-0.017,0.089-0.029,0.135-0.034
	c0.045-0.005,0.093-0.008,0.143-0.008c0.005,0,0.011,0,0.017,0c0.005,0,0.011,0,0.017,0c0.011,0,0.018,0,0.021,0
	c0.003,0,0.007,0,0.013,0c0.118,0,0.222,0.02,0.311,0.059c0.09,0.039,0.163,0.098,0.219,0.176c0.061,0.073,0.107,0.151,0.138,0.236
	c0.031,0.083,0.049,0.17,0.055,0.26c0,0.023,0,0.045,0,0.067c0,0.023,0,0.045,0,0.067c-0.006,0.017-0.01,0.033-0.013,0.047
	c-0.003,0.014-0.004,0.029-0.004,0.046c0,0.005-0.001,0.012-0.004,0.017c-0.003,0.005-0.004,0.011-0.004,0.016
	c-0.017,0.056-0.039,0.11-0.067,0.16c-0.029,0.051-0.062,0.098-0.101,0.143c-0.04,0.04-0.086,0.071-0.14,0.097
	c-0.053,0.025-0.113,0.041-0.181,0.046l-1.112,0.218c-0.213,0.051-0.399,0.113-0.556,0.189c-0.157,0.075-0.289,0.161-0.396,0.256
	C115.205,51.059,115.118,51.161,115.051,51.274L115.051,51.274z M117.645,50.569l-0.303,1.125v0.017
	c-0.051,0.05-0.098,0.095-0.143,0.134c-0.046,0.039-0.09,0.075-0.135,0.11c-0.045,0.033-0.09,0.064-0.135,0.091
	c-0.045,0.028-0.09,0.054-0.135,0.076c-0.012,0.006-0.025,0.012-0.038,0.02c-0.014,0.009-0.027,0.016-0.038,0.021
	c-0.039,0.017-0.077,0.033-0.114,0.047c-0.037,0.014-0.072,0.024-0.105,0.029c-0.051,0.012-0.097,0.02-0.139,0.026
	c-0.042,0.006-0.085,0.008-0.13,0.008c-0.09,0-0.17-0.011-0.24-0.034c-0.07-0.021-0.133-0.053-0.189-0.092
	c-0.056-0.045-0.101-0.089-0.135-0.134c-0.034-0.044-0.056-0.093-0.067-0.143c0-0.005-0.001-0.01-0.004-0.013
	c-0.003-0.002-0.004-0.007-0.004-0.013c0-0.006,0-0.011,0-0.016c0-0.011,0-0.022,0-0.03c0-0.008,0-0.015,0-0.02
	c0-0.012,0.001-0.023,0.004-0.034c0.003-0.011,0.004-0.02,0.004-0.026c0-0.011,0.001-0.022,0.004-0.034
	c0.003-0.01,0.004-0.019,0.004-0.025c0-0.011,0.002-0.024,0.004-0.037c0.003-0.015,0.007-0.027,0.013-0.038
	c0-0.005,0.001-0.013,0.004-0.02c0.003-0.009,0.004-0.016,0.004-0.021c0.04-0.146,0.108-0.271,0.206-0.378
	c0.098-0.105,0.226-0.196,0.383-0.268c0.152-0.079,0.347-0.143,0.585-0.194C117.046,50.652,117.325,50.608,117.645,50.569
	L117.645,50.569L117.645,50.569z M119.711,49.793c0.163-0.255,0.362-0.477,0.598-0.668c0.235-0.196,0.509-0.343,0.821-0.441
	c0.312-0.098,0.658-0.147,1.041-0.147c0.101,0,0.193,0.005,0.278,0.014c0.084,0.008,0.16,0.021,0.228,0.038
	c0.062,0.017,0.125,0.033,0.189,0.05c0.065,0.017,0.125,0.039,0.182,0.067c0.028,0.012,0.053,0.023,0.076,0.038
	c0.022,0.014,0.044,0.026,0.067,0.038c0.023,0.017,0.046,0.032,0.071,0.046c0.026,0.014,0.052,0.027,0.08,0.038l-0.286,0.579h-0.135
	c-0.04-0.089-0.089-0.171-0.148-0.243c-0.059-0.073-0.125-0.134-0.198-0.185c-0.079-0.051-0.171-0.089-0.278-0.114
	c-0.108-0.025-0.225-0.038-0.354-0.038c-0.214,0-0.414,0.045-0.602,0.134c-0.188,0.09-0.364,0.225-0.527,0.403
	c-0.157,0.174-0.291,0.36-0.4,0.558c-0.11,0.198-0.193,0.404-0.249,0.618c-0.057,0.218-0.083,0.426-0.08,0.625
	c0.003,0.198,0.041,0.388,0.114,0.567c0.067,0.178,0.182,0.313,0.345,0.402c0.163,0.09,0.368,0.135,0.616,0.135
	c0.129,0,0.248-0.011,0.358-0.034c0.11-0.022,0.214-0.053,0.316-0.092c0.096-0.045,0.194-0.098,0.295-0.16
	c0.101-0.061,0.205-0.129,0.312-0.201c0-0.005,0.001-0.01,0.004-0.013c0.003-0.003,0.007-0.004,0.013-0.004l0.008-0.008
	c0.005,0,0.01-0.002,0.013-0.005c0.002-0.002,0.007-0.007,0.012-0.012l0.059,0.042l-0.177,0.403
	c-0.112,0.078-0.228,0.145-0.346,0.201c-0.118,0.056-0.239,0.098-0.362,0.126c-0.124,0.029-0.249,0.052-0.375,0.071
	c-0.127,0.019-0.248,0.029-0.366,0.029c-0.006,0-0.01,0-0.013,0c-0.003,0-0.007,0-0.013,0c-0.005,0-0.01,0-0.012,0
	c-0.003,0-0.007,0-0.012,0c-0.259-0.006-0.495-0.049-0.708-0.13c-0.214-0.081-0.408-0.202-0.581-0.365
	c-0.174-0.162-0.282-0.363-0.324-0.6c-0.042-0.238-0.021-0.511,0.063-0.819c0-0.006,0-0.01,0-0.017c0-0.005,0.003-0.012,0.008-0.017
	v-0.008c0-0.006,0.003-0.011,0.008-0.017c0-0.005,0-0.009,0-0.012c0-0.003,0-0.007,0-0.013l0.009-0.017
	C119.427,50.328,119.548,50.047,119.711,49.793L119.711,49.793z M124.581,48.453c0.011,0.01,0.021,0.019,0.03,0.025
	c0.008,0.006,0.015,0.008,0.021,0.008c0.011,0.006,0.022,0.009,0.034,0.009c0.011,0,0.022,0,0.033,0
	c0.011,0.005,0.021,0.01,0.029,0.013c0.009,0.003,0.018,0.004,0.029,0.004c0.012,0.006,0.021,0.009,0.03,0.009
	c0.008,0,0.018,0,0.03,0c0.022,0,0.043,0,0.063,0c0.02,0,0.041,0,0.063,0c0.027,0,0.058,0,0.088,0c0.031,0,0.063-0.003,0.097-0.009
	c0.028-0.005,0.058-0.012,0.089-0.021c0.031-0.008,0.06-0.015,0.088-0.021l-1.095,4.08c-0.022,0-0.046-0.001-0.072-0.004
	c-0.025-0.002-0.052-0.007-0.079-0.011c-0.023-0.006-0.049-0.01-0.08-0.014c-0.032-0.003-0.061-0.004-0.089-0.004
	c-0.011,0-0.023,0-0.034,0c-0.012,0-0.023,0-0.034,0c-0.023,0.006-0.044,0.008-0.063,0.008c-0.02,0-0.044,0.003-0.072,0.009
	c-0.033,0.005-0.067,0.009-0.1,0.011c-0.034,0.003-0.068,0.004-0.101,0.004L124.581,48.453L124.581,48.453z M124.994,46.807
	L124.994,46.807c0.04-0.056,0.088-0.103,0.144-0.143c0.056-0.039,0.111-0.069,0.164-0.088c0.054-0.02,0.108-0.029,0.165-0.029
	c0.062,0,0.119,0.01,0.173,0.029c0.053,0.019,0.1,0.049,0.139,0.088c0.039,0.039,0.064,0.088,0.071,0.147
	c0.009,0.058,0.002,0.127-0.021,0.205c-0.028,0.079-0.063,0.147-0.105,0.206c-0.043,0.058-0.094,0.108-0.156,0.147
	c-0.028,0.017-0.056,0.033-0.084,0.05c-0.028,0.017-0.057,0.028-0.084,0.033c-0.028,0.012-0.056,0.02-0.084,0.026
	c-0.028,0.005-0.056,0.008-0.085,0.008c-0.056,0-0.108-0.01-0.156-0.029c-0.048-0.02-0.088-0.049-0.122-0.088
	c-0.04-0.044-0.062-0.097-0.068-0.156c-0.006-0.059,0-0.125,0.017-0.197l0.008-0.017C124.927,46.928,124.955,46.864,124.994,46.807
	L124.994,46.807z M126.157,49.813c0.169-0.269,0.382-0.507,0.64-0.714c0.253-0.212,0.527-0.371,0.822-0.474
	c0.295-0.103,0.608-0.155,0.939-0.155c0.247,0,0.459,0.03,0.636,0.092c0.177,0.062,0.319,0.151,0.426,0.268
	c0.107,0.118,0.194,0.241,0.261,0.37c0.067,0.129,0.115,0.265,0.144,0.411c0.011,0.095,0.02,0.189,0.025,0.282
	c0.006,0.092,0.006,0.184,0,0.273c-0.006,0.089-0.014,0.169-0.025,0.239c-0.011,0.07-0.026,0.13-0.042,0.181
	c-0.011,0.05-0.025,0.102-0.043,0.155c-0.016,0.054-0.039,0.107-0.066,0.164c-0.023,0.056-0.048,0.11-0.076,0.163
	c-0.028,0.054-0.056,0.109-0.084,0.164c-0.107,0.173-0.235,0.341-0.384,0.503c-0.148,0.163-0.321,0.317-0.518,0.462
	c-0.197,0.14-0.416,0.246-0.658,0.315c-0.242,0.07-0.503,0.105-0.783,0.105c-0.012,0-0.022,0-0.034,0c-0.011,0-0.022,0-0.033,0
	c-0.006,0-0.014,0-0.025,0c-0.006,0-0.011,0-0.017,0c-0.005,0-0.011,0-0.017,0c-0.315,0-0.581-0.045-0.801-0.134
	c-0.219-0.09-0.39-0.227-0.513-0.412c-0.124-0.185-0.2-0.39-0.228-0.617c-0.028-0.227-0.005-0.472,0.068-0.735v-0.017
	C125.859,50.378,125.989,50.082,126.157,49.813L126.157,49.813z M126.519,50.913L126.519,50.913
	c-0.011,0.055-0.022,0.118-0.033,0.184c-0.006,0.067-0.01,0.136-0.013,0.205c-0.003,0.07,0.001,0.144,0.013,0.223
	c0.011,0.101,0.036,0.198,0.075,0.294c0.04,0.095,0.093,0.184,0.16,0.269c0.062,0.084,0.149,0.148,0.262,0.193
	c0.111,0.045,0.247,0.073,0.404,0.084c0.18,0,0.355-0.036,0.526-0.109c0.171-0.073,0.339-0.185,0.502-0.337
	c0.157-0.144,0.3-0.33,0.43-0.553c0.129-0.224,0.241-0.484,0.336-0.781c0.074-0.263,0.114-0.502,0.123-0.718
	c0.008-0.215-0.016-0.407-0.071-0.574c-0.057-0.163-0.153-0.286-0.291-0.37c-0.138-0.084-0.313-0.126-0.527-0.126
	c-0.208,0-0.406,0.043-0.594,0.13c-0.188,0.087-0.361,0.22-0.518,0.399c-0.163,0.173-0.302,0.356-0.417,0.55
	c-0.115,0.193-0.204,0.396-0.265,0.609c-0.005,0.011-0.01,0.023-0.013,0.033c-0.003,0.011-0.004,0.022-0.004,0.034
	c-0.006,0.005-0.01,0.012-0.013,0.02c-0.003,0.008-0.005,0.018-0.005,0.03c0,0.006-0.001,0.012-0.004,0.022
	c-0.003,0.007-0.005,0.014-0.005,0.02c-0.005,0.011-0.009,0.019-0.012,0.025c-0.003,0.006-0.005,0.013-0.005,0.025
	c-0.005,0.017-0.009,0.032-0.013,0.046c-0.003,0.014-0.004,0.027-0.004,0.037l0.009-0.017
	C126.542,50.807,126.531,50.856,126.519,50.913L126.519,50.913z M131.55,48.453c0.017,0.01,0.036,0.021,0.06,0.029
	c0.022,0.008,0.044,0.015,0.067,0.021c0.012,0,0.022,0.002,0.034,0.004c0.011,0.003,0.025,0.004,0.042,0.004
	c0.011,0.006,0.022,0.009,0.034,0.009c0.011,0,0.022,0,0.034,0c0.005,0,0.011,0,0.017,0c0.006,0,0.011,0,0.017,0
	c0.006,0,0.011,0,0.017,0c0.005,0,0.011,0,0.017,0c0.012,0,0.022,0,0.033,0c0.012,0,0.023,0,0.034,0
	c0.023,0,0.045-0.002,0.068-0.005c0.023-0.003,0.045-0.005,0.068-0.005c0.033-0.005,0.065-0.012,0.096-0.021
	c0.031-0.008,0.061-0.015,0.089-0.021l-0.194,0.705c0.022-0.011,0.046-0.03,0.071-0.055c0.026-0.025,0.052-0.052,0.08-0.08
	c0.028-0.028,0.057-0.056,0.089-0.084c0.03-0.028,0.066-0.058,0.106-0.092c0.072-0.055,0.151-0.109,0.235-0.159
	c0.085-0.05,0.18-0.1,0.287-0.151c0.107-0.05,0.222-0.088,0.346-0.113c0.123-0.025,0.255-0.038,0.396-0.038h0.009
	c0.005,0,0.011,0,0.017,0c0.163,0.006,0.31,0.042,0.443,0.109c0.132,0.067,0.246,0.165,0.341,0.294
	c0.102,0.13,0.156,0.303,0.165,0.521c0.008,0.218-0.03,0.484-0.114,0.798l-0.648,2.426c-0.012,0-0.023,0-0.035,0
	c-0.011,0-0.022-0.003-0.033-0.008c-0.017,0-0.031-0.001-0.042-0.004c-0.011-0.003-0.021-0.004-0.033-0.004
	c-0.011-0.006-0.026-0.009-0.047-0.009c-0.019,0-0.038-0.003-0.054-0.008c-0.005,0-0.013,0-0.021,0c-0.008,0-0.019,0-0.03,0
	c-0.028,0-0.059,0.001-0.092,0.004c-0.034,0.003-0.07,0.007-0.11,0.014c-0.033,0.005-0.068,0.009-0.105,0.011
	c-0.036,0.003-0.077,0.004-0.122,0.004l0.649-2.443c0.055-0.191,0.078-0.36,0.067-0.507c-0.011-0.149-0.05-0.273-0.117-0.374
	c-0.074-0.101-0.158-0.176-0.253-0.227c-0.095-0.05-0.203-0.075-0.32-0.075c-0.006,0-0.01,0-0.013,0c-0.003,0-0.006,0-0.012,0
	c-0.006,0-0.01,0-0.013,0c-0.003,0-0.006,0-0.011,0c-0.129,0.006-0.261,0.039-0.393,0.101c-0.132,0.061-0.263,0.148-0.392,0.26
	c-0.135,0.107-0.249,0.241-0.341,0.404c-0.093,0.162-0.17,0.35-0.231,0.562l-0.615,2.3c-0.034,0-0.066-0.001-0.097-0.004
	c-0.031-0.002-0.061-0.007-0.088-0.011c-0.012,0-0.024-0.002-0.038-0.005c-0.014-0.003-0.026-0.004-0.038-0.004
	c-0.017-0.006-0.032-0.008-0.047-0.008c-0.014,0-0.027,0-0.038,0c-0.028,0-0.057,0.001-0.089,0.004
	c-0.031,0.003-0.064,0.007-0.097,0.014c-0.017,0-0.034,0.001-0.051,0.004c-0.016,0.003-0.03,0.004-0.042,0.004
	c-0.017,0.005-0.034,0.008-0.051,0.008c-0.017,0-0.034,0-0.051,0L131.55,48.453L131.55,48.453z M135.292,51.274
	c0.067-0.112,0.155-0.215,0.261-0.31c0.107-0.095,0.239-0.181,0.396-0.256c0.158-0.076,0.343-0.139,0.556-0.189l1.112-0.218
	c0.067-0.005,0.128-0.021,0.181-0.046c0.054-0.025,0.1-0.057,0.14-0.097c0.038-0.044,0.072-0.091,0.1-0.143
	c0.028-0.05,0.051-0.103,0.068-0.16c0-0.005,0.002-0.011,0.004-0.016c0.003-0.006,0.005-0.012,0.005-0.017
	c0-0.016,0.001-0.032,0.004-0.046c0.003-0.014,0.007-0.03,0.013-0.047c0-0.022,0-0.044,0-0.067c0-0.022,0-0.044,0-0.067
	c-0.006-0.089-0.024-0.177-0.055-0.26c-0.032-0.085-0.077-0.163-0.139-0.236c-0.057-0.078-0.13-0.137-0.22-0.176
	c-0.09-0.039-0.194-0.059-0.312-0.059c-0.006,0-0.01,0-0.012,0c-0.003,0-0.01,0-0.021,0c-0.006,0-0.012,0-0.017,0
	c-0.006,0-0.011,0-0.017,0c-0.051,0-0.099,0.003-0.144,0.008c-0.044,0.006-0.09,0.017-0.134,0.034c-0.011,0-0.024,0.003-0.038,0.008
	c-0.014,0.005-0.029,0.011-0.046,0.016c-0.057,0.022-0.113,0.049-0.169,0.076c-0.056,0.028-0.115,0.062-0.177,0.101
	c-0.039,0.022-0.077,0.048-0.114,0.075c-0.036,0.028-0.069,0.057-0.097,0.084c-0.039,0.028-0.077,0.059-0.113,0.093
	c-0.037,0.033-0.078,0.067-0.123,0.1l-0.117-0.017l0.117-0.462c0.017,0,0.034-0.004,0.051-0.013
	c0.017-0.008,0.037-0.016,0.059-0.021c0.017-0.011,0.035-0.022,0.055-0.033c0.019-0.011,0.04-0.023,0.063-0.033
	c0.09-0.046,0.184-0.086,0.282-0.122c0.098-0.037,0.201-0.075,0.307-0.114c0.112-0.034,0.226-0.06,0.341-0.08
	c0.116-0.019,0.234-0.03,0.359-0.03c0.247,0,0.455,0.027,0.628,0.081c0.171,0.053,0.301,0.133,0.392,0.239
	c0.089,0.106,0.138,0.249,0.147,0.428c0.008,0.18-0.019,0.393-0.08,0.638l-0.573,2.099c-0.011,0.056-0.017,0.099-0.017,0.13
	c0,0.031,0.008,0.054,0.026,0.072c0.017,0.016,0.039,0.029,0.067,0.037c0.028,0.009,0.059,0.013,0.093,0.013
	c0.017,0,0.033,0,0.051,0c0.016,0,0.036-0.003,0.059-0.008c0.022,0,0.045-0.003,0.068-0.008c0.022-0.005,0.044-0.011,0.067-0.018
	l-0.051,0.177c-0.016,0.022-0.036,0.038-0.055,0.049c-0.02,0.012-0.038,0.023-0.055,0.034c-0.017,0.012-0.035,0.02-0.055,0.025
	c-0.019,0.005-0.038,0.011-0.055,0.017c-0.017,0.005-0.034,0.008-0.055,0.008c-0.02,0-0.037,0.003-0.054,0.009
	c-0.017,0.005-0.035,0.009-0.054,0.012c-0.02,0.003-0.038,0.005-0.055,0.005c-0.005,0-0.01,0-0.012,0
	c-0.003,0-0.007,0.003-0.013,0.008c-0.005,0-0.01,0-0.012,0c-0.003,0-0.007,0-0.012,0c-0.006,0-0.011,0-0.017,0
	c-0.007,0-0.01,0-0.013,0c-0.003,0-0.007,0-0.012,0c-0.085,0-0.162-0.01-0.232-0.03c-0.07-0.019-0.136-0.049-0.198-0.089
	c-0.056-0.044-0.097-0.097-0.122-0.159c-0.025-0.061-0.032-0.128-0.021-0.201c-0.022,0.017-0.042,0.03-0.059,0.041
	c-0.017,0.012-0.031,0.023-0.042,0.034c-0.022,0.011-0.042,0.022-0.059,0.033c-0.017,0.012-0.034,0.022-0.051,0.034
	c-0.123,0.078-0.24,0.145-0.349,0.201c-0.109,0.056-0.215,0.098-0.316,0.126c-0.107,0.033-0.209,0.058-0.307,0.075
	c-0.098,0.017-0.19,0.025-0.274,0.025c-0.169,0-0.315-0.023-0.439-0.071c-0.123-0.048-0.227-0.119-0.311-0.214
	c-0.085-0.101-0.137-0.214-0.156-0.34c-0.02-0.126-0.01-0.261,0.03-0.407v-0.017C135.174,51.503,135.225,51.386,135.292,51.274
	L135.292,51.274z M137.887,50.569L137.887,50.569c-0.32,0.04-0.599,0.084-0.839,0.134c-0.238,0.051-0.434,0.115-0.585,0.194
	c-0.157,0.072-0.285,0.163-0.383,0.268c-0.099,0.107-0.167,0.233-0.207,0.378c0,0.005-0.001,0.013-0.004,0.021
	c-0.003,0.007-0.004,0.015-0.004,0.02c-0.006,0.011-0.01,0.024-0.012,0.038c-0.003,0.014-0.005,0.027-0.005,0.037
	c0,0.005-0.001,0.014-0.004,0.025c-0.003,0.012-0.004,0.022-0.004,0.034c0,0.006-0.001,0.014-0.004,0.026
	c-0.003,0.011-0.004,0.022-0.004,0.034c0,0.005,0,0.012,0,0.02c0,0.008,0,0.019,0,0.03c0,0.006,0,0.011,0,0.016
	c0,0.005,0.001,0.01,0.004,0.013c0.003,0.003,0.004,0.007,0.004,0.013c0.012,0.05,0.034,0.098,0.068,0.143
	c0.034,0.045,0.079,0.09,0.134,0.134c0.056,0.039,0.12,0.071,0.19,0.092c0.07,0.023,0.151,0.034,0.241,0.034
	c0.045,0,0.088-0.003,0.13-0.008c0.042-0.006,0.089-0.014,0.139-0.026c0.033-0.005,0.069-0.015,0.105-0.029
	c0.037-0.014,0.074-0.03,0.114-0.047c0.011-0.005,0.024-0.012,0.038-0.021c0.014-0.009,0.027-0.015,0.038-0.02
	c0.045-0.022,0.09-0.048,0.135-0.076c0.045-0.027,0.09-0.058,0.135-0.091c0.045-0.035,0.089-0.071,0.134-0.11
	c0.045-0.039,0.093-0.084,0.143-0.134v-0.017L137.887,50.569L137.887,50.569z M141.274,46.069c0.023,0.01,0.044,0.02,0.064,0.029
	c0.019,0.008,0.037,0.016,0.054,0.021c0.011,0,0.021,0.001,0.03,0.003c0.008,0.004,0.018,0.005,0.03,0.005
	c0.028,0.005,0.056,0.009,0.084,0.009c0.028,0,0.056,0,0.084,0c0.028,0,0.057,0,0.088,0c0.031,0,0.063-0.004,0.097-0.009
	c0.023-0.005,0.045-0.01,0.067-0.012c0.023-0.003,0.046-0.007,0.068-0.013c0.011-0.005,0.022-0.009,0.034-0.012
	c0.011-0.003,0.022-0.004,0.034-0.004l-1.736,6.464c-0.011,0-0.024,0-0.038,0c-0.014,0-0.027-0.003-0.038-0.008
	c-0.017,0-0.033-0.001-0.046-0.004c-0.015-0.003-0.027-0.004-0.038-0.004c-0.023-0.006-0.049-0.01-0.08-0.014
	c-0.031-0.003-0.06-0.004-0.088-0.004c-0.011,0-0.023,0-0.034,0c-0.011,0-0.023,0-0.034,0c-0.022,0.006-0.043,0.008-0.063,0.008
	c-0.02,0-0.043,0.003-0.071,0.009c-0.034,0.005-0.069,0.009-0.102,0.011c-0.033,0.003-0.067,0.004-0.101,0.004L141.274,46.069
	L141.274,46.069z M144.52,49.805c0.157-0.28,0.339-0.521,0.547-0.722c0.214-0.201,0.451-0.355,0.711-0.458
	c0.262-0.103,0.541-0.155,0.839-0.155c0.006,0,0.011,0,0.018,0c0.006,0,0.014,0,0.025,0c0.006,0.006,0.012,0.008,0.02,0.008
	c0.009,0,0.016,0,0.021,0c0.011,0,0.024,0,0.038,0c0.015,0,0.03,0,0.047,0c0.113,0.017,0.218,0.042,0.317,0.076
	c0.098,0.034,0.189,0.078,0.274,0.134c0.084,0.057,0.153,0.115,0.206,0.177c0.053,0.061,0.088,0.123,0.106,0.185
	c0.005,0.011,0.008,0.024,0.008,0.038s0,0.026,0,0.037c-0.006,0.011-0.008,0.022-0.008,0.033c0,0.012,0,0.023,0,0.034l0.801-2.99
	c0.011,0.012,0.023,0.02,0.037,0.025c0.014,0.006,0.029,0.012,0.047,0.017c0.011,0,0.024,0.003,0.037,0.009
	c0.015,0.006,0.027,0.009,0.039,0.009c0.028,0.006,0.058,0.008,0.088,0.008c0.031,0,0.061,0,0.089,0c0.028,0,0.057,0,0.088,0
	c0.031,0,0.061-0.002,0.089-0.008c0.033-0.006,0.067-0.013,0.101-0.021c0.034-0.008,0.07-0.015,0.109-0.021l-1.702,6.33
	c-0.022,0-0.047-0.001-0.071-0.004c-0.025-0.002-0.052-0.007-0.08-0.011c-0.023-0.006-0.049-0.01-0.081-0.014
	c-0.031-0.003-0.06-0.004-0.088-0.004c-0.011,0-0.022,0-0.033,0c-0.011,0-0.022,0-0.033,0c-0.023,0.006-0.044,0.008-0.063,0.008
	c-0.02,0-0.044,0.003-0.072,0.009c-0.034,0.005-0.068,0.009-0.101,0.011c-0.034,0.003-0.067,0.004-0.101,0.004l0.194-0.73
	c-0.124,0.128-0.244,0.238-0.363,0.327c-0.117,0.089-0.233,0.166-0.345,0.227c-0.118,0.062-0.23,0.111-0.337,0.147
	c-0.107,0.037-0.211,0.063-0.312,0.08c-0.011,0-0.022,0-0.034,0c-0.011,0-0.023,0.003-0.033,0.008c-0.011,0-0.021,0-0.03,0
	s-0.018,0-0.029,0c-0.005,0-0.013,0-0.021,0c-0.008,0-0.016,0-0.021,0c-0.005,0-0.01,0-0.013,0c-0.003,0-0.007,0.003-0.013,0.008
	c-0.011,0-0.021,0-0.029,0c-0.009,0-0.018,0-0.03,0c-0.224,0-0.426-0.041-0.607-0.122c-0.179-0.081-0.334-0.209-0.463-0.382
	c-0.128-0.179-0.209-0.373-0.239-0.583c-0.031-0.209-0.013-0.435,0.054-0.676c0-0.005,0-0.01,0-0.016
	c0-0.006,0.003-0.011,0.009-0.017c0-0.006,0.002-0.01,0.004-0.012c0.003-0.004,0.004-0.007,0.004-0.013c0-0.005,0-0.011,0-0.017
	l0.008-0.017C144.236,50.403,144.362,50.085,144.52,49.805L144.52,49.805z M144.864,51.216L144.864,51.216
	c-0.016,0.162-0.008,0.299,0.025,0.411c0.033,0.112,0.076,0.208,0.126,0.29c0.051,0.08,0.107,0.144,0.169,0.189
	c0.033,0.023,0.067,0.043,0.101,0.063c0.033,0.02,0.069,0.035,0.109,0.046c0.045,0.006,0.084,0.012,0.118,0.017
	c0.033,0.005,0.065,0.008,0.093,0.008c0.006,0,0.009,0,0.013,0c0.002,0,0.007,0,0.013,0c0.011,0,0.019,0,0.025,0
	c-0.006,0.006-0.006,0.009-0.004,0.009c0.003,0,0.007,0,0.012,0c0.006,0,0.01,0,0.013,0c0.003,0,0.008,0,0.013,0
	c0.157,0,0.314-0.037,0.467-0.109c0.155-0.073,0.311-0.179,0.468-0.319c0.157-0.145,0.292-0.32,0.404-0.524
	c0.113-0.205,0.205-0.442,0.278-0.71c0.011-0.045,0.023-0.095,0.037-0.15c0.015-0.057,0.027-0.112,0.038-0.168
	c0.011-0.062,0.021-0.123,0.03-0.184c0.009-0.062,0.016-0.126,0.021-0.194c0.005-0.128-0.004-0.251-0.03-0.369
	c-0.025-0.118-0.061-0.229-0.105-0.336c-0.045-0.105-0.121-0.185-0.228-0.239c-0.106-0.053-0.241-0.08-0.404-0.08
	c-0.006,0-0.01,0-0.013,0c-0.003,0-0.007,0-0.013,0c-0.006,0-0.012,0-0.017,0c-0.006,0-0.014,0-0.025,0c-0.006,0-0.01,0-0.012,0
	c-0.003,0-0.007,0-0.013,0c-0.174,0.011-0.334,0.046-0.48,0.105c-0.146,0.059-0.272,0.144-0.379,0.256
	c-0.106,0.106-0.201,0.22-0.282,0.34c-0.082,0.12-0.153,0.245-0.215,0.374c-0.033,0.067-0.064,0.132-0.089,0.193
	c-0.025,0.062-0.046,0.123-0.063,0.185c-0.012,0.039-0.023,0.078-0.034,0.117c-0.011,0.038-0.023,0.078-0.034,0.117
	c-0.006,0.016-0.011,0.034-0.017,0.05c-0.006,0.016-0.011,0.033-0.017,0.05l0.008-0.017
	C144.918,50.859,144.881,51.053,144.864,51.216L144.864,51.216z M149.255,49.759c-0.169,0.271-0.3,0.586-0.396,0.944v0.017
	c-0.051,0.246-0.064,0.482-0.042,0.705c0.022,0.225,0.084,0.434,0.185,0.63c0.096,0.196,0.254,0.346,0.477,0.449
	c0.222,0.103,0.504,0.164,0.847,0.18c0.174,0,0.334-0.01,0.48-0.033c0.146-0.023,0.275-0.056,0.387-0.101
	c0.113-0.033,0.221-0.076,0.325-0.126c0.103-0.05,0.21-0.103,0.316-0.159c0.011-0.006,0.021-0.011,0.03-0.016
	c0.009-0.006,0.019-0.012,0.03-0.017c0.011-0.005,0.021-0.011,0.029-0.017c0.008-0.005,0.019-0.011,0.03-0.017l0.008-0.008h0.008
	c0.006-0.006,0.011-0.008,0.017-0.008c0-0.006,0.001-0.01,0.004-0.013c0.003-0.003,0.004-0.007,0.004-0.013l0.06-0.445
	c-0.09,0.084-0.188,0.158-0.295,0.222c-0.107,0.064-0.222,0.119-0.345,0.164c-0.125,0.05-0.244,0.086-0.359,0.109
	c-0.115,0.023-0.229,0.033-0.341,0.033c-0.28,0-0.508-0.037-0.682-0.113c-0.174-0.075-0.292-0.188-0.354-0.34
	c-0.057-0.151-0.084-0.328-0.08-0.529c0.003-0.201,0.038-0.431,0.106-0.688l2.848,0.017c0.011-0.017,0.021-0.036,0.03-0.059
	c0.008-0.022,0.015-0.044,0.02-0.067c0.012-0.023,0.022-0.046,0.029-0.072c0.009-0.024,0.016-0.052,0.022-0.08
	c0.011-0.033,0.017-0.065,0.021-0.096c0.003-0.031,0.007-0.066,0.012-0.105c0.006-0.018,0.01-0.035,0.013-0.054
	c0.004-0.02,0.005-0.038,0.005-0.055c0.012-0.062,0.017-0.122,0.017-0.181s-0.003-0.116-0.009-0.172
	c-0.011-0.14-0.045-0.274-0.101-0.399c-0.057-0.126-0.132-0.248-0.228-0.365c-0.096-0.113-0.227-0.198-0.396-0.256
	c-0.169-0.059-0.371-0.089-0.607-0.089c-0.264,0-0.523,0.047-0.775,0.139c-0.252,0.093-0.499,0.228-0.741,0.407
	C149.626,49.262,149.424,49.487,149.255,49.759L149.255,49.759z M151.989,50.204c-0.003,0.014-0.007,0.024-0.013,0.029l-2.19,0.017
	c0.011-0.028,0.021-0.057,0.03-0.088c0.008-0.031,0.018-0.063,0.03-0.097c0.011-0.033,0.025-0.067,0.042-0.1
	c0.016-0.034,0.036-0.068,0.059-0.101c0.067-0.129,0.146-0.249,0.236-0.361c0.09-0.112,0.194-0.222,0.312-0.327
	c0.119-0.101,0.244-0.178,0.376-0.231c0.131-0.053,0.27-0.08,0.417-0.08c0.197,0,0.353,0.03,0.467,0.092
	c0.115,0.062,0.192,0.157,0.232,0.286c0.045,0.123,0.07,0.253,0.076,0.39c0.006,0.138-0.008,0.282-0.042,0.432
	c0,0.006-0.002,0.013-0.005,0.021c-0.003,0.008-0.005,0.016-0.005,0.021c0,0.011-0.001,0.02-0.004,0.025
	c-0.002,0.005-0.004,0.014-0.004,0.025C151.996,50.174,151.992,50.189,151.989,50.204L151.989,50.204L151.989,50.204z M156.283,48.6
	c0.23-0.344,0.526-0.665,0.885-0.962c0.354-0.296,0.743-0.519,1.167-0.667c0.424-0.149,0.875-0.223,1.353-0.223
	c0.028,0,0.056,0,0.084,0c0.028,0,0.056,0,0.084,0c0.028,0.006,0.056,0.009,0.084,0.009c0.028,0,0.056,0,0.085,0
	c0.055,0.005,0.113,0.01,0.173,0.012c0.059,0.003,0.119,0.007,0.181,0.012c0.112,0.006,0.223,0.018,0.332,0.038
	c0.11,0.02,0.218,0.044,0.325,0.072c0.106,0.028,0.205,0.063,0.295,0.105c0.09,0.042,0.171,0.091,0.245,0.147l-0.379,0.646h-0.067
	c-0.073-0.09-0.154-0.172-0.24-0.247c-0.088-0.076-0.179-0.142-0.274-0.198c-0.101-0.056-0.203-0.102-0.304-0.139
	c-0.102-0.036-0.208-0.065-0.321-0.088c-0.034-0.005-0.065-0.01-0.096-0.013c-0.031-0.003-0.06-0.006-0.089-0.012
	c-0.017,0-0.034,0-0.05,0c-0.017,0-0.032-0.003-0.042-0.009c-0.017,0-0.033,0-0.047,0c-0.015,0-0.029,0-0.046,0
	c-0.298,0-0.594,0.057-0.889,0.168c-0.296,0.113-0.586,0.28-0.873,0.504c-0.287,0.225-0.529,0.49-0.728,0.798
	c-0.2,0.308-0.353,0.661-0.459,1.057c-0.006,0.012-0.01,0.021-0.013,0.03c-0.003,0.009-0.005,0.018-0.005,0.03
	c0,0.006-0.001,0.01-0.005,0.012c-0.002,0.003-0.004,0.007-0.004,0.013c0,0.005-0.001,0.01-0.005,0.012
	c-0.002,0.003-0.004,0.008-0.004,0.013c-0.118,0.476-0.161,0.885-0.13,1.225c0.03,0.342,0.136,0.611,0.315,0.806
	c0.18,0.203,0.386,0.351,0.62,0.45c0.233,0.098,0.493,0.146,0.779,0.146c0.011,0,0.022,0,0.033,0c0.011,0,0.022,0,0.033,0
	c0.012,0,0.024,0,0.038,0c0.014,0,0.029,0,0.046,0c0.157-0.011,0.316-0.032,0.477-0.063c0.159-0.031,0.318-0.075,0.475-0.13
	c0.163-0.056,0.319-0.121,0.468-0.197c0.148-0.076,0.29-0.158,0.425-0.248l-0.21,0.512c-0.028,0.022-0.058,0.042-0.09,0.058
	c-0.029,0.017-0.059,0.031-0.088,0.042c-0.061,0.028-0.122,0.054-0.181,0.08c-0.059,0.025-0.116,0.049-0.172,0.071
	c-0.067,0.022-0.134,0.042-0.199,0.06c-0.064,0.016-0.128,0.036-0.189,0.058c-0.023,0.006-0.044,0.012-0.063,0.017
	c-0.02,0.006-0.041,0.011-0.063,0.016c-0.09,0.017-0.177,0.034-0.262,0.051c-0.083,0.016-0.165,0.031-0.244,0.041
	c-0.079,0.012-0.157,0.02-0.236,0.026c-0.08,0.005-0.158,0.008-0.236,0.008c-0.41,0-0.774-0.065-1.091-0.192
	c-0.317-0.129-0.591-0.33-0.822-0.604c-0.23-0.275-0.369-0.599-0.417-0.97c-0.048-0.373-0.01-0.794,0.113-1.264v-0.017
	C155.882,49.312,156.053,48.944,156.283,48.6L156.283,48.6z M162.148,48.453l-1.095,4.096c0.033,0,0.068-0.001,0.101-0.004
	c0.034-0.002,0.067-0.007,0.101-0.011c0.028-0.006,0.052-0.009,0.072-0.009c0.019,0,0.041-0.003,0.063-0.008
	c0.011,0,0.022,0,0.033,0c0.012,0,0.023,0,0.034,0c0.029,0,0.058,0.001,0.088,0.004c0.032,0.003,0.058,0.007,0.081,0.014
	c0.028,0.005,0.055,0.009,0.08,0.011c0.025,0.003,0.049,0.004,0.071,0.004l1.096-4.08c-0.029,0.006-0.058,0.013-0.088,0.021
	c-0.031,0.009-0.06,0.016-0.088,0.021c-0.034,0.006-0.066,0.009-0.097,0.009c-0.031,0-0.06,0-0.089,0c-0.022,0-0.043,0-0.063,0
	c-0.02,0-0.041,0-0.063,0c-0.012,0-0.021,0-0.029,0c-0.008,0-0.019-0.003-0.03-0.009c-0.011,0-0.021-0.001-0.029-0.004
	c-0.009-0.002-0.018-0.007-0.029-0.013c-0.011,0-0.022,0-0.033,0c-0.012,0-0.023-0.003-0.034-0.009
	c-0.006,0-0.013-0.002-0.021-0.008C162.169,48.473,162.159,48.464,162.148,48.453L162.148,48.453z M162.561,46.807L162.561,46.807
	c0.039-0.056,0.087-0.103,0.143-0.143c0.056-0.039,0.11-0.069,0.164-0.088c0.054-0.02,0.109-0.029,0.164-0.029
	c0.062,0,0.12,0.01,0.173,0.029c0.053,0.019,0.1,0.049,0.139,0.088c0.04,0.039,0.062,0.088,0.072,0.147
	c0.008,0.058,0.001,0.127-0.021,0.205c-0.029,0.079-0.065,0.147-0.106,0.206c-0.043,0.058-0.094,0.108-0.156,0.147
	c-0.028,0.017-0.056,0.033-0.084,0.05c-0.028,0.017-0.056,0.028-0.084,0.033c-0.029,0.012-0.056,0.02-0.084,0.026
	c-0.028,0.005-0.056,0.008-0.084,0.008c-0.056,0-0.108-0.01-0.156-0.029c-0.048-0.02-0.089-0.049-0.122-0.088
	c-0.04-0.044-0.062-0.097-0.068-0.156c-0.005-0.059,0-0.125,0.018-0.197l0.008-0.017C162.494,46.928,162.522,46.864,162.561,46.807
	L162.561,46.807z M163.792,49.759c0.169-0.272,0.37-0.497,0.607-0.676c0.241-0.179,0.487-0.314,0.741-0.407
	c0.252-0.092,0.512-0.139,0.775-0.139c0.236,0,0.438,0.03,0.606,0.089c0.168,0.058,0.3,0.144,0.396,0.256
	c0.095,0.117,0.171,0.239,0.227,0.365c0.057,0.125,0.09,0.259,0.102,0.399c0.005,0.056,0.008,0.113,0.008,0.172
	s-0.005,0.119-0.016,0.181c0,0.016-0.003,0.035-0.005,0.055c-0.003,0.019-0.007,0.037-0.012,0.054
	c-0.006,0.039-0.01,0.075-0.014,0.105c-0.002,0.031-0.009,0.063-0.02,0.096c-0.005,0.028-0.012,0.055-0.021,0.08
	c-0.008,0.026-0.018,0.049-0.03,0.072c-0.005,0.022-0.011,0.044-0.02,0.067c-0.009,0.023-0.019,0.042-0.03,0.059l-2.848-0.017
	c-0.068,0.257-0.102,0.487-0.105,0.688c-0.003,0.201,0.024,0.378,0.08,0.529c0.062,0.151,0.18,0.264,0.354,0.34
	c0.174,0.076,0.401,0.113,0.682,0.113c0.113,0,0.226-0.011,0.341-0.033c0.115-0.022,0.235-0.059,0.358-0.109
	c0.124-0.045,0.239-0.1,0.346-0.164c0.106-0.064,0.204-0.138,0.294-0.222l-0.059,0.445c0,0.006-0.001,0.01-0.004,0.013
	c-0.003,0.002-0.004,0.007-0.004,0.013c-0.006,0-0.011,0.002-0.017,0.008h-0.009l-0.008,0.008c-0.011,0.006-0.022,0.011-0.03,0.017
	c-0.008,0.006-0.018,0.012-0.03,0.017c-0.011,0.005-0.02,0.011-0.029,0.017c-0.009,0.005-0.018,0.011-0.029,0.016
	c-0.108,0.056-0.213,0.109-0.316,0.159c-0.104,0.05-0.211,0.092-0.325,0.126c-0.111,0.045-0.241,0.078-0.387,0.101
	c-0.147,0.023-0.306,0.033-0.48,0.033c-0.343-0.016-0.625-0.077-0.847-0.18c-0.223-0.103-0.38-0.253-0.476-0.449
	c-0.1-0.196-0.162-0.406-0.185-0.63c-0.022-0.223-0.008-0.459,0.043-0.705v-0.017C163.491,50.345,163.622,50.03,163.792,49.759
	L163.792,49.759z M166.525,50.204L166.525,50.204c0.003-0.014,0.007-0.029,0.012-0.047c0-0.011,0.002-0.019,0.004-0.025
	c0.003-0.006,0.004-0.014,0.004-0.025c0-0.005,0.002-0.013,0.005-0.021c0.003-0.008,0.003-0.015,0.003-0.021
	c0.035-0.151,0.048-0.295,0.043-0.432c-0.006-0.137-0.032-0.267-0.076-0.39c-0.039-0.129-0.117-0.224-0.232-0.286
	c-0.116-0.062-0.271-0.092-0.468-0.092c-0.146,0-0.284,0.027-0.416,0.08c-0.132,0.053-0.258,0.13-0.376,0.231
	c-0.118,0.106-0.222,0.215-0.312,0.327c-0.089,0.112-0.168,0.232-0.235,0.361c-0.022,0.033-0.042,0.067-0.058,0.101
	c-0.018,0.033-0.031,0.067-0.042,0.1c-0.012,0.034-0.022,0.066-0.029,0.097c-0.009,0.031-0.019,0.06-0.03,0.088l2.19-0.017
	C166.517,50.227,166.523,50.217,166.525,50.204L166.525,50.204z M168.654,48.453c0.017,0.01,0.036,0.021,0.058,0.029
	c0.023,0.008,0.045,0.015,0.067,0.021c0.012,0,0.022,0.002,0.034,0.004c0.011,0.003,0.025,0.004,0.043,0.004
	c0.011,0.006,0.022,0.009,0.034,0.009c0.011,0,0.022,0,0.033,0c0.006,0,0.011,0,0.017,0c0.006,0,0.012,0,0.018,0
	c0.006,0,0.01,0,0.016,0c0.005,0,0.011,0,0.016,0c0.012,0,0.023,0,0.034,0c0.012,0,0.023,0,0.034,0c0.023,0,0.045-0.002,0.068-0.005
	c0.023-0.003,0.045-0.005,0.067-0.005c0.034-0.005,0.067-0.012,0.098-0.021c0.03-0.008,0.059-0.015,0.088-0.021l-0.194,0.705
	c0.022-0.011,0.046-0.03,0.072-0.055c0.025-0.025,0.051-0.052,0.08-0.08c0.028-0.028,0.057-0.056,0.088-0.084
	c0.032-0.028,0.066-0.058,0.106-0.092c0.073-0.055,0.152-0.109,0.236-0.159c0.084-0.05,0.179-0.1,0.286-0.151
	c0.107-0.05,0.222-0.088,0.345-0.113c0.123-0.025,0.255-0.038,0.396-0.038h0.009c0.006,0,0.011,0,0.016,0
	c0.163,0.006,0.311,0.042,0.443,0.109c0.132,0.067,0.245,0.165,0.341,0.294c0.102,0.13,0.156,0.303,0.164,0.521
	c0.008,0.218-0.028,0.484-0.113,0.798l-0.648,2.426c-0.011,0-0.023,0-0.035,0c-0.011,0-0.022-0.003-0.033-0.008
	c-0.017,0-0.031-0.001-0.043-0.004c-0.012-0.003-0.022-0.004-0.034-0.004c-0.011-0.006-0.027-0.009-0.046-0.009
	c-0.019,0-0.038-0.003-0.054-0.008c-0.006,0-0.013,0-0.022,0c-0.008,0-0.018,0-0.029,0c-0.029,0-0.059,0.001-0.094,0.004
	c-0.033,0.003-0.069,0.007-0.109,0.014c-0.034,0.005-0.068,0.009-0.104,0.011c-0.037,0.003-0.077,0.004-0.123,0.004l0.649-2.443
	c0.056-0.191,0.079-0.36,0.068-0.507c-0.012-0.149-0.052-0.273-0.118-0.374c-0.074-0.101-0.158-0.176-0.253-0.227
	c-0.096-0.05-0.202-0.075-0.32-0.075c-0.006,0-0.01,0-0.013,0c-0.003,0-0.007,0-0.012,0c-0.006,0-0.009,0-0.013,0
	c-0.003,0-0.007,0-0.012,0c-0.13,0.006-0.261,0.039-0.393,0.101c-0.132,0.061-0.263,0.148-0.391,0.26
	c-0.135,0.107-0.249,0.241-0.342,0.404c-0.093,0.162-0.17,0.35-0.232,0.562l-0.615,2.3c-0.034,0-0.066-0.001-0.097-0.004
	c-0.032-0.002-0.061-0.007-0.088-0.011c-0.012,0-0.025-0.002-0.039-0.005c-0.014-0.003-0.027-0.004-0.038-0.004
	c-0.016-0.006-0.033-0.008-0.045-0.008c-0.015,0-0.028,0-0.039,0c-0.028,0-0.058,0.001-0.088,0.004
	c-0.032,0.003-0.063,0.007-0.097,0.014c-0.018,0-0.034,0.001-0.051,0.004c-0.016,0.003-0.031,0.004-0.042,0.004
	c-0.017,0.005-0.034,0.008-0.051,0.008c-0.016,0-0.032,0-0.05,0L168.654,48.453L168.654,48.453z M172.808,49.793
	c0.163-0.255,0.363-0.477,0.599-0.668c0.235-0.196,0.509-0.343,0.821-0.441c0.312-0.098,0.659-0.147,1.04-0.147
	c0.101,0,0.195,0.005,0.279,0.014c0.084,0.008,0.16,0.021,0.227,0.038c0.062,0.017,0.126,0.033,0.19,0.05
	c0.064,0.017,0.125,0.039,0.181,0.067c0.027,0.012,0.053,0.023,0.075,0.038c0.023,0.014,0.045,0.026,0.068,0.038
	c0.022,0.017,0.047,0.032,0.071,0.046c0.025,0.014,0.052,0.027,0.08,0.038l-0.286,0.579h-0.135
	c-0.039-0.089-0.089-0.171-0.147-0.243c-0.06-0.073-0.125-0.134-0.198-0.185c-0.079-0.051-0.172-0.089-0.278-0.114
	c-0.107-0.025-0.225-0.038-0.354-0.038c-0.213,0-0.414,0.045-0.603,0.134c-0.188,0.09-0.364,0.225-0.526,0.403
	c-0.158,0.174-0.29,0.36-0.401,0.558c-0.109,0.198-0.192,0.404-0.247,0.618c-0.057,0.218-0.083,0.426-0.081,0.625
	c0.004,0.198,0.041,0.388,0.114,0.567c0.067,0.178,0.183,0.313,0.345,0.402c0.163,0.09,0.367,0.135,0.615,0.135
	c0.129,0,0.247-0.011,0.358-0.034c0.11-0.022,0.215-0.053,0.316-0.092c0.095-0.045,0.193-0.098,0.295-0.16
	c0.101-0.061,0.205-0.129,0.312-0.201c0-0.005,0.001-0.01,0.004-0.013c0.004-0.003,0.007-0.004,0.013-0.004l0.008-0.008
	c0.006,0,0.01-0.002,0.013-0.005c0.003-0.002,0.007-0.007,0.014-0.012l0.058,0.042l-0.176,0.403
	c-0.113,0.078-0.227,0.145-0.346,0.201c-0.117,0.056-0.238,0.098-0.362,0.126c-0.124,0.029-0.248,0.052-0.375,0.071
	c-0.127,0.019-0.248,0.029-0.366,0.029c-0.007,0-0.01,0-0.013,0c-0.003,0-0.007,0-0.013,0c-0.006,0-0.009,0-0.012,0
	c-0.003,0-0.007,0-0.013,0c-0.259-0.006-0.494-0.049-0.708-0.13c-0.213-0.081-0.407-0.202-0.58-0.365
	c-0.176-0.162-0.283-0.363-0.325-0.6c-0.042-0.238-0.022-0.511,0.063-0.819c0-0.006,0-0.01,0-0.017c0-0.005,0.002-0.012,0.008-0.017
	v-0.008c0-0.006,0.003-0.011,0.009-0.017c0-0.005,0-0.009,0-0.012c0-0.003,0-0.007,0-0.013l0.009-0.017
	C172.524,50.328,172.645,50.047,172.808,49.793L172.808,49.793z M177.678,48.453c0.011,0.01,0.021,0.019,0.029,0.025
	c0.008,0.006,0.016,0.008,0.021,0.008c0.012,0.006,0.023,0.009,0.034,0.009c0.011,0,0.022,0,0.034,0
	c0.012,0.005,0.021,0.01,0.03,0.013c0.009,0.003,0.018,0.004,0.029,0.004c0.012,0.006,0.02,0.009,0.03,0.009c0.009,0,0.018,0,0.03,0
	c0.022,0,0.044,0,0.063,0c0.019,0,0.041,0,0.064,0c0.027,0,0.056,0,0.088,0c0.03,0,0.063-0.003,0.097-0.009
	c0.028-0.005,0.057-0.012,0.089-0.021c0.031-0.008,0.06-0.015,0.088-0.021l-1.095,4.08c-0.023,0-0.047-0.001-0.072-0.004
	c-0.026-0.002-0.052-0.007-0.079-0.011c-0.024-0.006-0.05-0.01-0.08-0.014c-0.032-0.003-0.061-0.004-0.089-0.004
	c-0.011,0-0.022,0-0.034,0c-0.011,0-0.023,0-0.034,0c-0.023,0.006-0.043,0.008-0.064,0.008c-0.018,0-0.043,0.003-0.071,0.009
	c-0.034,0.005-0.068,0.009-0.102,0.011c-0.033,0.003-0.067,0.004-0.101,0.004L177.678,48.453L177.678,48.453z M178.092,46.807
	L178.092,46.807c0.04-0.056,0.088-0.103,0.144-0.143c0.055-0.039,0.11-0.069,0.163-0.088c0.054-0.02,0.109-0.029,0.164-0.029
	c0.062,0,0.119,0.01,0.172,0.029c0.054,0.019,0.101,0.049,0.14,0.088c0.039,0.039,0.063,0.088,0.071,0.147
	c0.009,0.058,0.001,0.127-0.021,0.205c-0.028,0.079-0.063,0.147-0.105,0.206c-0.042,0.058-0.094,0.108-0.155,0.147
	c-0.029,0.017-0.056,0.033-0.085,0.05c-0.027,0.017-0.057,0.028-0.084,0.033c-0.028,0.012-0.056,0.02-0.084,0.026
	c-0.027,0.005-0.056,0.008-0.084,0.008c-0.057,0-0.108-0.01-0.156-0.029c-0.048-0.02-0.088-0.049-0.122-0.088
	c-0.039-0.044-0.062-0.097-0.068-0.156c-0.006-0.059,0-0.125,0.018-0.197l0.008-0.017C178.024,46.928,178.053,46.864,178.092,46.807
	L178.092,46.807z M178.969,51.274c0.067-0.112,0.154-0.215,0.261-0.31c0.106-0.095,0.237-0.181,0.396-0.256
	c0.157-0.076,0.342-0.139,0.556-0.189l1.113-0.218c0.067-0.005,0.127-0.021,0.18-0.046c0.053-0.025,0.1-0.057,0.139-0.097
	c0.039-0.044,0.073-0.091,0.101-0.143c0.028-0.05,0.05-0.103,0.067-0.16c0-0.005,0.001-0.011,0.004-0.016
	c0.002-0.006,0.004-0.012,0.004-0.017c0-0.016,0.002-0.032,0.004-0.046c0.003-0.014,0.008-0.03,0.013-0.047c0-0.022,0-0.044,0-0.067
	c0-0.022,0-0.044,0-0.067c-0.006-0.089-0.023-0.177-0.055-0.26c-0.032-0.085-0.077-0.163-0.139-0.236
	c-0.057-0.078-0.13-0.137-0.219-0.176c-0.09-0.039-0.194-0.059-0.311-0.059c-0.006,0-0.01,0-0.013,0c-0.003,0-0.01,0-0.021,0
	c-0.006,0-0.011,0-0.016,0c-0.006,0-0.011,0-0.017,0c-0.05,0-0.098,0.003-0.144,0.008c-0.044,0.006-0.089,0.017-0.134,0.034
	c-0.011,0-0.024,0.003-0.038,0.008c-0.014,0.005-0.029,0.011-0.045,0.016c-0.057,0.022-0.113,0.049-0.169,0.076
	c-0.056,0.028-0.116,0.062-0.178,0.101c-0.038,0.022-0.076,0.048-0.113,0.075c-0.036,0.028-0.068,0.057-0.097,0.084
	c-0.039,0.028-0.078,0.059-0.114,0.093c-0.037,0.033-0.078,0.067-0.123,0.1l-0.117-0.017l0.117-0.462
	c0.016,0,0.034-0.004,0.051-0.013c0.017-0.008,0.037-0.016,0.06-0.021c0.016-0.011,0.035-0.022,0.054-0.033
	c0.02-0.011,0.041-0.023,0.063-0.033c0.09-0.046,0.184-0.086,0.282-0.122c0.099-0.037,0.201-0.075,0.308-0.114
	c0.111-0.034,0.226-0.06,0.341-0.08c0.115-0.019,0.235-0.03,0.358-0.03c0.247,0,0.457,0.027,0.628,0.081
	c0.171,0.053,0.301,0.133,0.392,0.239c0.089,0.106,0.138,0.249,0.147,0.428c0.008,0.18-0.018,0.393-0.08,0.638l-0.573,2.099
	c-0.011,0.056-0.016,0.099-0.016,0.13c0,0.031,0.009,0.054,0.025,0.072c0.016,0.016,0.039,0.029,0.067,0.037
	c0.028,0.009,0.059,0.013,0.092,0.013c0.017,0,0.035,0,0.051,0c0.016,0,0.037-0.003,0.059-0.008c0.022,0,0.045-0.003,0.068-0.008
	c0.022-0.005,0.044-0.011,0.067-0.018l-0.051,0.177c-0.017,0.022-0.035,0.038-0.055,0.049c-0.02,0.012-0.038,0.023-0.055,0.034
	c-0.017,0.012-0.035,0.02-0.055,0.025c-0.019,0.005-0.038,0.011-0.055,0.017c-0.016,0.005-0.034,0.008-0.055,0.008
	c-0.02,0-0.037,0.003-0.053,0.009c-0.018,0.005-0.036,0.009-0.056,0.012c-0.02,0.003-0.038,0.005-0.054,0.005
	c-0.006,0-0.01,0-0.013,0c-0.004,0-0.008,0.003-0.013,0.008c-0.006,0-0.01,0-0.013,0c-0.003,0-0.007,0-0.012,0
	c-0.006,0-0.011,0-0.017,0c-0.006,0-0.01,0-0.012,0c-0.003,0-0.007,0-0.013,0c-0.083,0-0.161-0.01-0.231-0.03
	c-0.071-0.019-0.136-0.049-0.198-0.089c-0.057-0.044-0.098-0.097-0.123-0.159c-0.025-0.061-0.032-0.128-0.021-0.201
	c-0.022,0.017-0.042,0.03-0.059,0.041c-0.017,0.012-0.031,0.023-0.042,0.034c-0.022,0.011-0.042,0.022-0.058,0.033
	c-0.017,0.012-0.034,0.022-0.051,0.034c-0.124,0.078-0.241,0.145-0.35,0.201c-0.109,0.056-0.215,0.098-0.316,0.126
	c-0.106,0.033-0.209,0.058-0.307,0.075c-0.099,0.017-0.19,0.025-0.274,0.025c-0.169,0-0.315-0.023-0.439-0.071
	c-0.123-0.048-0.227-0.119-0.311-0.214c-0.085-0.101-0.137-0.214-0.156-0.34c-0.02-0.126-0.01-0.261,0.03-0.407v-0.017
	C178.85,51.503,178.901,51.386,178.969,51.274L178.969,51.274z M181.563,50.569L181.563,50.569c-0.321,0.04-0.6,0.084-0.838,0.134
	c-0.239,0.051-0.435,0.115-0.586,0.194c-0.157,0.072-0.285,0.163-0.383,0.268c-0.097,0.107-0.166,0.233-0.205,0.378
	c0,0.005-0.002,0.013-0.005,0.021c-0.003,0.007-0.004,0.015-0.004,0.02c-0.006,0.011-0.01,0.024-0.014,0.038
	c-0.002,0.014-0.004,0.027-0.004,0.037c0,0.005-0.002,0.014-0.005,0.025c-0.003,0.012-0.003,0.022-0.003,0.034
	c0,0.006-0.001,0.014-0.004,0.026c-0.003,0.011-0.005,0.022-0.005,0.034c0,0.005,0,0.012,0,0.02c0,0.008,0,0.019,0,0.03
	c0,0.006,0,0.011,0,0.016c0,0.005,0.002,0.01,0.005,0.013c0.003,0.003,0.004,0.007,0.004,0.013c0.011,0.05,0.034,0.098,0.068,0.143
	c0.034,0.045,0.078,0.09,0.134,0.134c0.056,0.039,0.119,0.071,0.189,0.092c0.071,0.023,0.151,0.034,0.241,0.034
	c0.045,0,0.088-0.003,0.131-0.008c0.042-0.006,0.088-0.014,0.139-0.026c0.033-0.005,0.069-0.015,0.105-0.029
	c0.037-0.014,0.074-0.03,0.115-0.047c0.01-0.005,0.022-0.012,0.037-0.021c0.014-0.009,0.027-0.015,0.039-0.02
	c0.044-0.022,0.089-0.048,0.135-0.076c0.044-0.027,0.09-0.058,0.134-0.091c0.045-0.035,0.09-0.071,0.136-0.11
	c0.045-0.039,0.093-0.084,0.143-0.134v-0.017L181.563,50.569L181.563,50.569z M186.072,48.558c0.04,0.008,0.078,0.015,0.118,0.021
	c0.039,0.006,0.077,0.009,0.113,0.009c0.037,0,0.075,0,0.113,0c0.017,0,0.036,0,0.055,0c0.02,0,0.038,0,0.055,0
	c0.016,0,0.035-0.002,0.054-0.004c0.019-0.003,0.037-0.005,0.055-0.005c0.034-0.006,0.066-0.013,0.096-0.021
	c0.031-0.008,0.061-0.015,0.089-0.022c0,0.073,0.006,0.173,0.017,0.299c0.011,0.125,0.028,0.278,0.05,0.457
	c0.017,0.173,0.038,0.354,0.063,0.541c0.026,0.188,0.055,0.379,0.088,0.575c0,0.011,0.002,0.024,0.005,0.037
	c0.002,0.015,0.003,0.027,0.003,0.038c0,0.011,0.003,0.024,0.005,0.038c0.003,0.014,0.005,0.027,0.005,0.038
	c0.005,0.022,0.01,0.046,0.012,0.071c0.003,0.026,0.007,0.052,0.013,0.08c0.006,0.039,0.012,0.08,0.021,0.122
	c0.008,0.042,0.016,0.086,0.021,0.13c0.006,0.039,0.012,0.079,0.021,0.121c0.007,0.043,0.015,0.083,0.02,0.122
	c0.012,0.079,0.024,0.154,0.038,0.227c0.014,0.073,0.029,0.143,0.047,0.21c0.05-0.062,0.103-0.129,0.156-0.203
	c0.053-0.072,0.11-0.151,0.172-0.235c0.057-0.078,0.114-0.161,0.173-0.247c0.059-0.087,0.122-0.175,0.189-0.265
	c0.023-0.028,0.044-0.058,0.064-0.088c0.019-0.03,0.04-0.063,0.063-0.096c0.023-0.028,0.044-0.057,0.067-0.088
	c0.023-0.03,0.045-0.062,0.068-0.097c0.129-0.196,0.256-0.383,0.38-0.562c0.123-0.179,0.238-0.355,0.345-0.528
	c0.106-0.168,0.194-0.311,0.265-0.429c0.07-0.117,0.119-0.207,0.147-0.269c0.022,0.006,0.045,0.014,0.071,0.022
	c0.025,0.008,0.049,0.015,0.072,0.021c0.022,0.006,0.044,0.009,0.067,0.009c0.023,0,0.046,0,0.068,0c0.028,0,0.055,0,0.08,0
	c0.025,0,0.052-0.003,0.081-0.009c0.027-0.006,0.054-0.013,0.08-0.021c0.025-0.008,0.051-0.015,0.08-0.022l-4.457,6.196
	c-0.006,0-0.011-0.001-0.017-0.004c-0.006-0.003-0.011-0.007-0.017-0.013c-0.011-0.006-0.022-0.01-0.03-0.012
	c-0.008-0.003-0.021-0.007-0.037-0.014c-0.023-0.006-0.044-0.008-0.063-0.008c-0.02,0-0.041,0-0.064,0c-0.023,0-0.05,0-0.08,0
	c-0.031,0-0.06,0.002-0.088,0.008c-0.029,0.006-0.059,0.014-0.093,0.021c-0.034,0.009-0.067,0.015-0.101,0.021l1.726-2.249
	l-0.657-3.963C185.996,48.537,186.033,48.55,186.072,48.558L186.072,48.558z M194.767,47.115c-0.056,0.011-0.118,0.019-0.184,0.021
	c-0.067,0.003-0.144,0.009-0.227,0.021c-0.046,0.006-0.09,0.009-0.135,0.012c-0.045,0.003-0.09,0.007-0.135,0.013
	c-0.044,0.006-0.09,0.01-0.134,0.013c-0.045,0.003-0.09,0.007-0.135,0.013c-0.034,0.006-0.068,0.009-0.101,0.012
	c-0.033,0.003-0.065,0.007-0.093,0.013c-0.028,0.006-0.058,0.01-0.088,0.013c-0.032,0.003-0.061,0.004-0.089,0.004
	c-0.044,0.005-0.089,0.011-0.13,0.016c-0.043,0.006-0.082,0.012-0.123,0.017c-0.016,0.006-0.031,0.01-0.045,0.013
	c-0.014,0.003-0.026,0.004-0.037,0.004c-0.056,0.005-0.104,0.01-0.144,0.016c-0.039,0.006-0.076,0.012-0.11,0.016
	c0.011-0.01,0.02-0.023,0.025-0.037c0.006-0.014,0.013-0.027,0.018-0.038c0.005-0.011,0.011-0.022,0.02-0.033
	c0.008-0.012,0.016-0.025,0.021-0.042c0-0.012,0.001-0.023,0.005-0.034c0.001-0.011,0.005-0.022,0.011-0.033
	c0.007-0.011,0.009-0.023,0.013-0.038c0.003-0.014,0.007-0.026,0.012-0.037c0.006-0.018,0.01-0.035,0.013-0.051
	c0.003-0.017,0.005-0.034,0.005-0.051c0-0.011,0.001-0.02,0.004-0.029c0.003-0.008,0.004-0.015,0.004-0.021
	c0.006-0.028,0.01-0.055,0.01-0.081c0-0.025,0-0.048,0-0.071l4.439-0.016c-0.005,0.022-0.013,0.04-0.02,0.054
	c-0.01,0.013-0.016,0.026-0.022,0.037c-0.005,0.011-0.011,0.022-0.016,0.034c-0.006,0.011-0.011,0.022-0.017,0.033
	c-0.007,0.017-0.013,0.031-0.022,0.042c-0.008,0.011-0.013,0.022-0.013,0.033c-0.006,0.011-0.01,0.024-0.013,0.038
	c-0.002,0.014-0.004,0.027-0.004,0.038c-0.006,0.022-0.012,0.046-0.022,0.071c-0.007,0.025-0.012,0.051-0.012,0.08
	c0,0.017,0,0.034,0,0.05c0,0.017,0,0.034,0,0.05c0,0.006,0,0.013,0,0.021c0,0.008,0,0.018,0,0.029
	c-0.191-0.033-0.375-0.062-0.552-0.087c-0.177-0.026-0.347-0.046-0.51-0.063c-0.163-0.017-0.308-0.029-0.434-0.038
	c-0.126-0.008-0.229-0.013-0.308-0.013l-1.448,5.407c-0.012,0-0.024,0-0.039,0c-0.013,0-0.027-0.003-0.038-0.009
	c-0.016,0-0.032-0.001-0.045-0.004c-0.015-0.002-0.028-0.004-0.039-0.004c-0.022-0.006-0.049-0.01-0.08-0.013
	c-0.031-0.002-0.06-0.004-0.088-0.004c-0.011,0-0.022,0-0.033,0s-0.022,0-0.033,0c-0.023,0.006-0.044,0.009-0.064,0.009
	c-0.02,0-0.043,0.003-0.071,0.009c-0.035,0.005-0.068,0.01-0.102,0.012c-0.034,0.003-0.067,0.004-0.101,0.004L194.767,47.115
	L194.767,47.115z M196.252,49.759c-0.169,0.271-0.3,0.586-0.396,0.944v0.017c-0.05,0.246-0.064,0.482-0.042,0.705
	c0.022,0.225,0.084,0.434,0.185,0.63c0.096,0.196,0.254,0.346,0.476,0.449c0.222,0.103,0.504,0.164,0.847,0.18
	c0.174,0,0.334-0.01,0.48-0.033c0.147-0.023,0.275-0.056,0.388-0.101c0.112-0.033,0.22-0.076,0.325-0.126
	c0.102-0.05,0.209-0.103,0.315-0.159c0.011-0.006,0.021-0.011,0.029-0.016c0.008-0.006,0.019-0.012,0.03-0.017
	c0.011-0.005,0.02-0.011,0.029-0.017c0.009-0.005,0.018-0.011,0.029-0.017l0.008-0.008h0.009c0.006-0.006,0.011-0.008,0.017-0.008
	c0-0.006,0.002-0.01,0.005-0.013c0.003-0.003,0.005-0.007,0.005-0.013l0.058-0.445c-0.09,0.084-0.188,0.158-0.295,0.222
	c-0.107,0.064-0.222,0.119-0.346,0.164c-0.123,0.05-0.243,0.086-0.357,0.109c-0.116,0.023-0.228,0.033-0.342,0.033
	c-0.28,0-0.508-0.037-0.682-0.113c-0.174-0.075-0.292-0.188-0.354-0.34c-0.056-0.151-0.083-0.328-0.08-0.529
	c0.003-0.201,0.039-0.431,0.105-0.688l2.849,0.017c0.011-0.017,0.021-0.036,0.029-0.059c0.009-0.022,0.015-0.044,0.021-0.067
	c0.011-0.023,0.02-0.046,0.029-0.072c0.008-0.024,0.015-0.052,0.021-0.08c0.011-0.033,0.018-0.065,0.021-0.096
	c0.003-0.031,0.007-0.066,0.013-0.105c0.005-0.018,0.009-0.035,0.012-0.054c0.003-0.02,0.004-0.038,0.004-0.055
	c0.012-0.062,0.018-0.122,0.018-0.181s-0.003-0.116-0.008-0.172c-0.012-0.14-0.045-0.274-0.102-0.399
	c-0.056-0.126-0.131-0.248-0.228-0.365c-0.095-0.113-0.227-0.198-0.395-0.256c-0.169-0.059-0.37-0.089-0.607-0.089
	c-0.263,0-0.522,0.047-0.774,0.139c-0.254,0.093-0.5,0.228-0.741,0.407C196.622,49.262,196.42,49.487,196.252,49.759L196.252,49.759
	z M198.986,50.204L198.986,50.204c0.003-0.014,0.007-0.029,0.012-0.047c0-0.011,0.001-0.019,0.004-0.025
	c0.003-0.006,0.005-0.014,0.005-0.025c0-0.005,0.001-0.013,0.004-0.021c0.003-0.008,0.005-0.015,0.005-0.021
	c0.033-0.151,0.047-0.295,0.042-0.432c-0.005-0.137-0.032-0.267-0.076-0.39c-0.04-0.129-0.117-0.224-0.23-0.286
	c-0.117-0.062-0.272-0.092-0.469-0.092c-0.146,0-0.286,0.027-0.417,0.08c-0.133,0.053-0.257,0.13-0.375,0.231
	c-0.119,0.106-0.222,0.215-0.312,0.327c-0.09,0.112-0.169,0.232-0.236,0.361c-0.022,0.033-0.042,0.067-0.06,0.101
	c-0.016,0.033-0.03,0.067-0.041,0.1c-0.012,0.034-0.021,0.066-0.03,0.097c-0.009,0.031-0.018,0.06-0.029,0.088l2.191-0.017
	C198.978,50.227,198.983,50.217,198.986,50.204L198.986,50.204z M200.558,49.793c0.162-0.255,0.363-0.477,0.598-0.668
	c0.236-0.196,0.509-0.343,0.821-0.441c0.312-0.098,0.66-0.147,1.041-0.147c0.101,0,0.193,0.005,0.277,0.014
	c0.086,0.008,0.16,0.021,0.229,0.038c0.061,0.017,0.124,0.033,0.189,0.05c0.065,0.017,0.125,0.039,0.181,0.067
	c0.028,0.012,0.054,0.023,0.076,0.038c0.022,0.014,0.045,0.026,0.068,0.038c0.022,0.017,0.045,0.032,0.071,0.046
	c0.025,0.014,0.052,0.027,0.08,0.038l-0.287,0.579h-0.135c-0.039-0.089-0.088-0.171-0.147-0.243
	c-0.059-0.073-0.125-0.134-0.199-0.185c-0.078-0.051-0.171-0.089-0.277-0.114c-0.107-0.025-0.225-0.038-0.354-0.038
	c-0.214,0-0.415,0.045-0.603,0.134c-0.188,0.09-0.363,0.225-0.526,0.403c-0.157,0.174-0.29,0.36-0.4,0.558
	c-0.11,0.198-0.192,0.404-0.248,0.618c-0.057,0.218-0.083,0.426-0.081,0.625c0.004,0.198,0.04,0.388,0.114,0.567
	c0.067,0.178,0.183,0.313,0.346,0.402c0.164,0.09,0.368,0.135,0.615,0.135c0.129,0,0.249-0.011,0.358-0.034
	c0.11-0.022,0.215-0.053,0.315-0.092c0.096-0.045,0.195-0.098,0.295-0.16c0.102-0.061,0.206-0.129,0.312-0.201
	c0-0.005,0.001-0.01,0.004-0.013c0.003-0.003,0.006-0.004,0.012-0.004l0.01-0.008c0.004,0,0.009-0.002,0.012-0.005
	c0.003-0.002,0.007-0.007,0.012-0.012l0.06,0.042l-0.177,0.403c-0.112,0.078-0.228,0.145-0.346,0.201
	c-0.118,0.056-0.238,0.098-0.363,0.126c-0.124,0.029-0.248,0.052-0.374,0.071c-0.126,0.019-0.249,0.029-0.367,0.029
	c-0.005,0-0.01,0-0.013,0c-0.003,0-0.007,0-0.013,0c-0.005,0-0.009,0-0.012,0c-0.002,0-0.006,0-0.012,0
	c-0.258-0.006-0.495-0.049-0.708-0.13c-0.213-0.081-0.407-0.202-0.581-0.365c-0.175-0.162-0.283-0.363-0.325-0.6
	c-0.042-0.238-0.022-0.511,0.064-0.819c0-0.006,0-0.01,0-0.017c0-0.005,0.002-0.012,0.008-0.017v-0.008
	c0-0.006,0.002-0.011,0.009-0.017c0-0.005,0-0.009,0-0.012c0-0.003,0-0.007,0-0.013l0.008-0.017
	C200.274,50.328,200.395,50.047,200.558,49.793L200.558,49.793z M205.361,48.453c0.017,0.01,0.036,0.021,0.058,0.029
	c0.023,0.008,0.046,0.015,0.069,0.021c0.011,0,0.022,0.002,0.033,0.004c0.011,0.003,0.025,0.004,0.042,0.004
	c0.011,0.006,0.022,0.009,0.034,0.009c0.011,0,0.023,0,0.034,0c0.005,0,0.011,0,0.017,0c0.005,0,0.011,0,0.017,0s0.011,0,0.017,0
	c0.005,0,0.011,0,0.016,0c0.011,0,0.023,0,0.034,0c0.011,0,0.022,0,0.033,0c0.023,0,0.046-0.002,0.067-0.005
	c0.023-0.003,0.046-0.005,0.068-0.005c0.034-0.005,0.065-0.012,0.097-0.021c0.03-0.008,0.06-0.015,0.087-0.021l-0.194,0.705
	c0.023-0.011,0.047-0.03,0.072-0.055c0.026-0.025,0.052-0.052,0.081-0.08c0.028-0.028,0.057-0.056,0.088-0.084
	c0.031-0.028,0.066-0.058,0.106-0.092c0.073-0.055,0.152-0.109,0.235-0.159c0.084-0.05,0.179-0.1,0.286-0.151
	c0.107-0.05,0.222-0.088,0.345-0.113c0.124-0.025,0.257-0.038,0.396-0.038h0.009c0.005,0,0.011,0,0.017,0
	c0.163,0.006,0.31,0.042,0.442,0.109c0.132,0.067,0.245,0.165,0.341,0.294c0.101,0.13,0.156,0.303,0.165,0.521
	c0.008,0.218-0.029,0.484-0.114,0.798l-0.649,2.426c-0.012,0-0.022,0-0.033,0c-0.011,0-0.022-0.003-0.033-0.008
	c-0.017,0-0.033-0.001-0.043-0.004c-0.012-0.003-0.023-0.004-0.034-0.004c-0.01-0.006-0.026-0.009-0.047-0.009
	c-0.018,0-0.037-0.003-0.054-0.008c-0.005,0-0.013,0-0.021,0c-0.009,0-0.018,0-0.029,0c-0.029,0-0.059,0.001-0.092,0.004
	c-0.034,0.003-0.071,0.007-0.11,0.014c-0.034,0.005-0.069,0.009-0.105,0.011c-0.036,0.003-0.077,0.004-0.122,0.004l0.649-2.443
	c0.055-0.191,0.078-0.36,0.066-0.507c-0.011-0.149-0.05-0.273-0.118-0.374c-0.073-0.101-0.157-0.176-0.252-0.227
	c-0.097-0.05-0.203-0.075-0.32-0.075c-0.006,0-0.01,0-0.013,0c-0.003,0-0.008,0-0.012,0c-0.006,0-0.01,0-0.013,0
	c-0.003,0-0.008,0-0.013,0c-0.128,0.006-0.259,0.039-0.391,0.101c-0.132,0.061-0.264,0.148-0.392,0.26
	c-0.134,0.107-0.249,0.241-0.341,0.404c-0.094,0.162-0.17,0.35-0.232,0.562l-0.616,2.3c-0.033,0-0.065-0.001-0.097-0.004
	c-0.03-0.002-0.059-0.007-0.088-0.011c-0.011,0-0.024-0.002-0.038-0.005c-0.013-0.003-0.026-0.004-0.037-0.004
	c-0.017-0.006-0.033-0.008-0.047-0.008c-0.013,0-0.026,0-0.038,0c-0.028,0-0.057,0.001-0.089,0.004
	c-0.031,0.003-0.063,0.007-0.096,0.014c-0.017,0-0.033,0.001-0.051,0.004c-0.016,0.003-0.03,0.004-0.042,0.004
	c-0.017,0.005-0.034,0.008-0.051,0.008c-0.017,0-0.034,0-0.05,0L205.361,48.453L205.361,48.453z M209.39,49.813
	c0.169-0.269,0.382-0.507,0.64-0.714c0.252-0.212,0.526-0.371,0.822-0.474c0.294-0.103,0.608-0.155,0.94-0.155
	c0.247,0,0.459,0.03,0.636,0.092c0.177,0.062,0.319,0.151,0.426,0.268c0.107,0.118,0.194,0.241,0.261,0.37
	c0.066,0.129,0.114,0.265,0.144,0.411c0.011,0.095,0.018,0.189,0.025,0.282c0.006,0.092,0.006,0.184,0,0.273
	c-0.007,0.089-0.014,0.169-0.026,0.239c-0.01,0.07-0.025,0.13-0.042,0.181c-0.011,0.05-0.024,0.102-0.041,0.155
	c-0.017,0.054-0.04,0.107-0.069,0.164c-0.022,0.056-0.047,0.11-0.075,0.163c-0.028,0.054-0.056,0.109-0.085,0.164
	c-0.106,0.173-0.235,0.341-0.383,0.503c-0.148,0.163-0.321,0.317-0.518,0.462c-0.197,0.14-0.416,0.246-0.657,0.315
	c-0.242,0.07-0.503,0.105-0.784,0.105c-0.011,0-0.023,0-0.034,0c-0.011,0-0.023,0-0.034,0c-0.005,0-0.014,0-0.025,0
	c-0.007,0-0.011,0-0.017,0c-0.006,0-0.011,0-0.017,0c-0.314,0-0.581-0.045-0.801-0.134c-0.218-0.09-0.39-0.227-0.513-0.412
	c-0.124-0.185-0.2-0.39-0.228-0.617c-0.029-0.227-0.005-0.472,0.067-0.735v-0.017C209.091,50.378,209.221,50.082,209.39,49.813
	L209.39,49.813z M209.752,50.913L209.752,50.913c-0.012,0.055-0.022,0.118-0.034,0.184c-0.006,0.067-0.009,0.136-0.013,0.205
	c-0.003,0.07,0.002,0.144,0.013,0.223c0.012,0.101,0.036,0.198,0.075,0.294c0.04,0.095,0.093,0.184,0.16,0.269
	c0.062,0.084,0.148,0.148,0.262,0.193c0.112,0.045,0.246,0.073,0.404,0.084c0.181,0,0.355-0.036,0.526-0.109
	c0.172-0.073,0.339-0.185,0.502-0.337c0.158-0.144,0.3-0.33,0.429-0.553c0.129-0.224,0.242-0.484,0.337-0.781
	c0.073-0.263,0.114-0.502,0.122-0.718c0.009-0.215-0.016-0.407-0.071-0.574c-0.057-0.163-0.154-0.286-0.291-0.37
	c-0.138-0.084-0.313-0.126-0.527-0.126c-0.208,0-0.406,0.043-0.594,0.13c-0.189,0.087-0.361,0.22-0.518,0.399
	c-0.163,0.173-0.301,0.356-0.416,0.55c-0.115,0.193-0.204,0.396-0.266,0.609c-0.004,0.011-0.009,0.023-0.011,0.033
	c-0.003,0.011-0.005,0.022-0.005,0.034c-0.005,0.005-0.009,0.012-0.012,0.02c-0.002,0.008-0.005,0.018-0.005,0.03
	c0,0.006-0.001,0.012-0.004,0.022c-0.003,0.007-0.005,0.014-0.005,0.02c-0.005,0.011-0.009,0.019-0.012,0.025
	c-0.003,0.006-0.005,0.013-0.005,0.025c-0.006,0.017-0.009,0.032-0.012,0.046c-0.004,0.014-0.005,0.027-0.005,0.037l0.008-0.017
	C209.774,50.807,209.763,50.856,209.752,50.913L209.752,50.913z M215.549,46.069c0.022,0.01,0.043,0.02,0.062,0.029
	c0.019,0.008,0.038,0.016,0.055,0.021c0.011,0,0.021,0.001,0.03,0.003c0.008,0.004,0.018,0.005,0.029,0.005
	c0.028,0.005,0.056,0.009,0.084,0.009c0.029,0,0.057,0,0.084,0c0.028,0,0.058,0,0.089,0c0.03,0,0.062-0.004,0.097-0.009
	c0.022-0.005,0.044-0.01,0.068-0.012c0.022-0.003,0.044-0.007,0.067-0.013c0.011-0.005,0.023-0.009,0.034-0.012
	c0.011-0.003,0.023-0.004,0.033-0.004l-1.735,6.464c-0.012,0-0.024,0-0.038,0c-0.015,0-0.027-0.003-0.038-0.008
	c-0.018,0-0.033-0.001-0.046-0.004c-0.014-0.003-0.027-0.004-0.038-0.004c-0.023-0.006-0.05-0.01-0.08-0.014
	c-0.031-0.003-0.06-0.004-0.088-0.004c-0.011,0-0.022,0-0.033,0c-0.012,0-0.022,0-0.034,0c-0.022,0.006-0.043,0.008-0.063,0.008
	s-0.043,0.003-0.072,0.009c-0.034,0.005-0.068,0.009-0.101,0.011c-0.034,0.003-0.067,0.004-0.1,0.004L215.549,46.069L215.549,46.069
	z M216.426,49.813c-0.168,0.269-0.298,0.565-0.389,0.889v0.017c-0.072,0.263-0.095,0.508-0.066,0.735
	c0.027,0.227,0.104,0.432,0.227,0.617c0.123,0.185,0.295,0.322,0.513,0.412c0.22,0.089,0.486,0.134,0.802,0.134
	c0.006,0,0.011,0,0.017,0c0.005,0,0.011,0,0.016,0c0.011,0,0.019,0,0.025,0c0.012,0,0.023,0,0.034,0c0.011,0,0.023,0,0.034,0
	c0.28,0,0.542-0.035,0.784-0.105c0.242-0.069,0.46-0.175,0.657-0.315c0.196-0.145,0.369-0.299,0.517-0.462
	c0.149-0.162,0.276-0.33,0.385-0.503c0.027-0.056,0.056-0.11,0.084-0.164c0.027-0.053,0.052-0.107,0.076-0.163
	c0.028-0.057,0.05-0.11,0.067-0.164c0.016-0.054,0.031-0.106,0.042-0.155c0.016-0.051,0.031-0.111,0.042-0.181
	c0.012-0.069,0.02-0.149,0.025-0.239c0.005-0.089,0.005-0.181,0-0.273c-0.006-0.093-0.013-0.187-0.024-0.282
	c-0.029-0.145-0.077-0.282-0.145-0.411c-0.067-0.129-0.153-0.252-0.261-0.37c-0.106-0.117-0.248-0.206-0.426-0.268
	c-0.176-0.062-0.389-0.092-0.635-0.092c-0.332,0-0.644,0.052-0.939,0.155c-0.296,0.103-0.57,0.262-0.821,0.474
	C216.808,49.306,216.594,49.544,216.426,49.813L216.426,49.813z M216.788,50.913c0.011-0.057,0.022-0.106,0.033-0.152l-0.008,0.017
	c0-0.011,0.001-0.023,0.004-0.037c0.004-0.014,0.007-0.03,0.013-0.046c0-0.012,0.002-0.019,0.004-0.025
	c0.004-0.006,0.007-0.014,0.014-0.025c0-0.006,0-0.013,0.004-0.02c0.003-0.009,0.005-0.016,0.005-0.022
	c0-0.012,0.001-0.021,0.004-0.03c0.003-0.008,0.007-0.015,0.012-0.02c0-0.012,0.002-0.023,0.004-0.034
	c0.003-0.01,0.007-0.022,0.013-0.033c0.062-0.213,0.149-0.415,0.266-0.609c0.114-0.193,0.254-0.377,0.416-0.55
	c0.157-0.18,0.33-0.312,0.519-0.399c0.188-0.087,0.386-0.13,0.594-0.13c0.213,0,0.389,0.042,0.526,0.126
	c0.138,0.084,0.234,0.207,0.29,0.37c0.057,0.167,0.08,0.359,0.072,0.574c-0.008,0.216-0.049,0.456-0.123,0.718
	c-0.095,0.296-0.207,0.557-0.337,0.781c-0.129,0.224-0.271,0.409-0.429,0.553c-0.164,0.151-0.331,0.263-0.501,0.337
	c-0.172,0.073-0.348,0.109-0.527,0.109c-0.158-0.011-0.292-0.039-0.405-0.084c-0.112-0.045-0.199-0.109-0.261-0.193
	c-0.067-0.084-0.121-0.174-0.16-0.269c-0.039-0.095-0.065-0.193-0.076-0.294c-0.011-0.079-0.015-0.153-0.012-0.223
	c0.003-0.07,0.007-0.139,0.012-0.205C216.764,51.031,216.777,50.969,216.788,50.913L216.788,50.913L216.788,50.913z M221.523,49.167
	c0.118-0.135,0.251-0.244,0.397-0.328c0.152-0.083,0.303-0.149,0.454-0.197c0.153-0.048,0.304-0.08,0.455-0.097
	c0.013,0,0.022,0,0.03,0c0.008,0,0.018,0,0.03,0c0.005,0,0.013,0,0.025,0c0.01,0,0.019,0,0.024,0c0.011,0,0.021,0,0.029,0
	c0.008,0,0.019-0.002,0.031-0.009c0.005,0,0.013,0,0.024,0c0.011,0,0.023,0,0.035,0c0.128,0,0.236,0.002,0.324,0.005
	c0.087,0.003,0.154,0.007,0.199,0.012c0.05,0.006,0.095,0.009,0.134,0.012c0.04,0.003,0.07,0.007,0.093,0.013
	c0,0.006,0.003,0.009,0.009,0.009c0.006,0,0.011,0,0.017,0c0.022,0.006,0.046,0.01,0.071,0.013c0.025,0.003,0.051,0.006,0.08,0.012
	c0.035,0.006,0.078,0.009,0.136,0.009c0.055,0,0.123,0,0.202,0c0.045,0,0.094,0,0.148,0c0.052,0,0.111,0,0.173,0
	c0.061,0,0.13-0.001,0.206-0.004c0.076-0.003,0.158-0.007,0.249-0.013l-0.085,0.31l-0.976-0.068c0.067,0.062,0.125,0.133,0.173,0.21
	c0.047,0.078,0.086,0.17,0.113,0.278c0.034,0.106,0.051,0.214,0.051,0.322c0,0.109-0.017,0.22-0.051,0.332
	c-0.084,0.224-0.182,0.413-0.295,0.567c-0.112,0.154-0.239,0.27-0.38,0.349c-0.139,0.083-0.279,0.151-0.417,0.201
	c-0.137,0.051-0.276,0.084-0.417,0.101c-0.055,0.006-0.109,0.011-0.159,0.017c-0.051,0.006-0.101,0.008-0.152,0.008
	c-0.022,0-0.046,0-0.071,0c-0.025,0-0.053,0-0.08,0c-0.023,0.005-0.045,0.008-0.067,0.008c-0.023,0-0.046,0-0.068,0
	c-0.073,0-0.145,0.002-0.216,0.004c-0.07,0.004-0.133,0.009-0.189,0.021c-0.062,0.006-0.112,0.018-0.151,0.038
	c-0.039,0.02-0.07,0.044-0.093,0.071c-0.017,0.023-0.031,0.044-0.043,0.064c-0.011,0.019-0.022,0.037-0.033,0.054
	c-0.011,0.023-0.02,0.042-0.026,0.059c-0.006,0.017-0.011,0.031-0.017,0.042c-0.022,0.085-0.017,0.155,0.017,0.21
	c0.033,0.056,0.098,0.098,0.194,0.126c0.096,0.028,0.195,0.051,0.298,0.067c0.105,0.017,0.212,0.028,0.326,0.033
	c0.011,0,0.02,0,0.029,0c0.009,0,0.018,0,0.029,0c0.006,0,0.015,0,0.026,0c0.011,0,0.019,0,0.025,0c0.018,0,0.034,0,0.051,0
	c0.016,0,0.034,0,0.051,0c0.022,0,0.044,0,0.064,0c0.019,0,0.041,0,0.063,0c0.017,0,0.035,0,0.055,0c0.02,0,0.041,0,0.063,0
	c0.021,0,0.044,0,0.067,0c0.022,0,0.044-0.003,0.068-0.009c0.022,0,0.045,0,0.067,0c0.023,0,0.042,0,0.06,0
	c0.04,0,0.073,0.002,0.101,0.004c0.028,0.003,0.053,0.008,0.076,0.012c0.157,0.034,0.29,0.078,0.401,0.135
	c0.108,0.056,0.194,0.123,0.256,0.201c0.062,0.079,0.102,0.18,0.122,0.307c0.019,0.126,0.013,0.281-0.021,0.466
	c0,0.006,0,0.011,0,0.017c0,0.006,0,0.011,0,0.017c-0.006,0-0.008,0.003-0.008,0.009c0,0.005,0,0.011,0,0.017
	c-0.006,0.005-0.009,0.009-0.009,0.012c0,0.003,0,0.007,0,0.013c-0.005,0.028-0.014,0.054-0.025,0.08
	c-0.012,0.025-0.022,0.049-0.034,0.071c-0.006,0.011-0.012,0.024-0.017,0.039c-0.006,0.013-0.012,0.029-0.016,0.046
	c-0.007,0.011-0.012,0.024-0.018,0.038c-0.005,0.014-0.011,0.027-0.017,0.038c-0.089,0.157-0.212,0.307-0.366,0.449
	c-0.155,0.142-0.338,0.282-0.551,0.416c-0.209,0.129-0.438,0.226-0.692,0.294c-0.253,0.067-0.522,0.101-0.809,0.101
	c-0.247,0-0.464-0.029-0.653-0.088c-0.188-0.058-0.341-0.146-0.459-0.264c-0.118-0.118-0.194-0.247-0.227-0.387
	c-0.034-0.141-0.028-0.291,0.016-0.454c0.034-0.168,0.085-0.315,0.152-0.441c0.067-0.126,0.149-0.233,0.245-0.323
	c0.095-0.09,0.204-0.163,0.328-0.218c0.124-0.055,0.264-0.098,0.422-0.126c-0.073-0.034-0.138-0.071-0.194-0.113
	c-0.056-0.042-0.1-0.088-0.135-0.138c-0.028-0.051-0.043-0.111-0.046-0.181c-0.003-0.07,0.007-0.147,0.029-0.23
	c0.017-0.067,0.035-0.129,0.059-0.185c0.023-0.056,0.053-0.104,0.093-0.142c0.034-0.045,0.072-0.086,0.115-0.122
	c0.042-0.037,0.09-0.074,0.147-0.114c0.028-0.016,0.057-0.033,0.088-0.05c0.031-0.017,0.061-0.034,0.089-0.051
	c0.027-0.016,0.062-0.037,0.101-0.059c0.039-0.022,0.079-0.044,0.118-0.067c-0.174-0.056-0.306-0.123-0.396-0.201
	c-0.09-0.078-0.14-0.17-0.152-0.277c-0.011-0.106-0.013-0.214-0.004-0.323c0.009-0.11,0.026-0.22,0.055-0.332
	c0.006-0.011,0.009-0.023,0.012-0.038c0.003-0.014,0.005-0.027,0.005-0.037c0.006-0.012,0.009-0.023,0.012-0.034
	c0.003-0.011,0.004-0.023,0.004-0.034c0.005-0.011,0.01-0.021,0.013-0.029c0.003-0.008,0.004-0.015,0.004-0.021
	c0-0.005,0.001-0.011,0.004-0.016c0.003-0.005,0.004-0.011,0.004-0.017c0.006-0.011,0.008-0.02,0.008-0.026v-0.016
	C221.308,49.461,221.407,49.301,221.523,49.167L221.523,49.167z M220.58,53.553L220.58,53.553c-0.006,0.026-0.008,0.052-0.008,0.079
	c-0.005,0.028-0.007,0.056-0.004,0.085c0.002,0.028,0.006,0.056,0.012,0.084c0.012,0.078,0.04,0.155,0.084,0.231
	c0.045,0.075,0.105,0.149,0.178,0.222c0.078,0.067,0.18,0.119,0.303,0.155c0.124,0.036,0.273,0.055,0.447,0.055
	c0.033,0,0.069-0.002,0.106-0.005c0.036-0.003,0.074-0.007,0.113-0.012c0.034-0.006,0.071-0.01,0.11-0.013
	c0.04-0.002,0.082-0.009,0.127-0.02c0.117-0.028,0.236-0.067,0.353-0.118c0.118-0.051,0.231-0.109,0.338-0.177
	c0.111-0.073,0.205-0.156,0.277-0.251c0.074-0.095,0.127-0.205,0.161-0.328c0.005-0.017,0.009-0.032,0.012-0.046
	c0.003-0.014,0.007-0.028,0.014-0.038c0-0.011,0-0.024,0.003-0.037c0.003-0.014,0.008-0.027,0.013-0.039
	c0.022-0.106,0.025-0.207,0.008-0.302c-0.018-0.095-0.048-0.185-0.093-0.269c-0.045-0.089-0.142-0.155-0.29-0.197
	c-0.149-0.042-0.347-0.063-0.594-0.063c-0.185,0-0.361,0.014-0.527,0.042c-0.166,0.028-0.324,0.07-0.476,0.126
	c-0.146,0.057-0.272,0.148-0.379,0.274c-0.106,0.125-0.196,0.286-0.269,0.482C220.592,53.501,220.586,53.528,220.58,53.553
	L220.58,53.553z M221.764,50.388L221.764,50.388c0.008,0.12,0.04,0.228,0.097,0.323c0.061,0.09,0.137,0.158,0.227,0.202
	c0.089,0.044,0.194,0.067,0.311,0.067c0.011,0.006,0.021,0.008,0.03,0.008c0.008,0,0.015,0,0.021,0c0.011,0,0.021,0,0.029,0
	c0.008,0,0.016,0,0.021,0c0.006,0,0.011,0,0.016,0c0.005,0,0.011,0,0.017,0c0.006,0,0.011,0,0.017,0
	c0.101-0.011,0.207-0.041,0.316-0.088c0.109-0.047,0.221-0.116,0.334-0.206c0.111-0.095,0.208-0.206,0.29-0.331
	c0.081-0.126,0.144-0.274,0.189-0.442c0.045-0.178,0.064-0.338,0.055-0.478c-0.009-0.14-0.044-0.257-0.106-0.353
	c-0.063-0.095-0.141-0.167-0.236-0.218c-0.096-0.05-0.209-0.075-0.337-0.075c-0.141,0.012-0.266,0.039-0.375,0.08
	c-0.109,0.041-0.203,0.099-0.283,0.172c-0.089,0.073-0.167,0.148-0.232,0.226c-0.065,0.079-0.121,0.16-0.172,0.244
	c-0.022,0.039-0.045,0.08-0.068,0.122c-0.022,0.042-0.042,0.085-0.059,0.13c-0.005,0.023-0.011,0.044-0.017,0.063
	c-0.005,0.02-0.011,0.038-0.016,0.054c-0.006,0.017-0.011,0.034-0.017,0.051c-0.005,0.016-0.011,0.033-0.017,0.05l0.008-0.016
	C221.771,50.129,221.756,50.268,221.764,50.388L221.764,50.388z M226.201,48.541c0.005,0.003,0.013,0.007,0.026,0.012
	c0.005,0.006,0.011,0.009,0.02,0.012c0.009,0.003,0.015,0.005,0.02,0.005c0.018,0.006,0.036,0.008,0.056,0.008
	c0.019,0,0.041,0,0.062,0c0.005,0.006,0.013,0.009,0.021,0.009c0.009,0,0.015,0,0.02,0c0.005,0,0.013,0,0.018,0
	c0.005,0,0.011,0,0.017,0c0.011,0,0.019,0,0.025,0c0.028,0,0.058,0,0.089,0c0.031,0,0.063-0.003,0.097-0.009
	c0.028-0.006,0.056-0.013,0.084-0.021c0.027-0.008,0.055-0.015,0.084-0.022l-1.079,4.014c-0.016,0-0.036-0.001-0.059-0.004
	c-0.023-0.002-0.047-0.007-0.075-0.011c-0.023-0.006-0.048-0.01-0.076-0.014c-0.029-0.003-0.056-0.004-0.085-0.004
	c-0.005,0-0.011,0-0.017,0c-0.005,0-0.01,0-0.013,0c-0.003,0-0.006,0-0.012,0c-0.007,0-0.012,0-0.018,0c-0.005,0-0.011,0-0.017,0
	c-0.011,0-0.024,0.001-0.038,0.004c-0.014,0.003-0.027,0.005-0.037,0.005c-0.018,0.005-0.033,0.01-0.047,0.013
	c-0.015,0.003-0.027,0.004-0.038,0.004c-0.023,0.005-0.047,0.008-0.072,0.008c-0.025,0-0.047,0-0.063,0l1.079-4.029
	C226.186,48.531,226.195,48.539,226.201,48.541L226.201,48.541z M227.818,46.866L227.818,46.866c0.028-0.016,0.055-0.033,0.081-0.05
	c0.024-0.017,0.051-0.034,0.08-0.051c0.027-0.017,0.058-0.03,0.088-0.042s0.06-0.02,0.088-0.026
	c0.011-0.005,0.022-0.009,0.034-0.012c0.012-0.003,0.023-0.004,0.034-0.004c0.005,0,0.011,0,0.017,0
	c0.005,0,0.014-0.002,0.025-0.007c0.005,0,0.012,0,0.017,0c0.005,0,0.011,0,0.016,0c0.045,0,0.086,0.005,0.123,0.016
	c0.036,0.011,0.066,0.028,0.088,0.05c0.028,0.022,0.048,0.048,0.06,0.076c0.011,0.028,0.011,0.058,0,0.092
	c-0.006,0.022-0.019,0.049-0.039,0.08c-0.019,0.03-0.043,0.063-0.071,0.096c-0.016,0.017-0.035,0.034-0.054,0.05
	c-0.02,0.018-0.041,0.032-0.063,0.043c-0.028,0.017-0.054,0.034-0.08,0.05c-0.025,0.017-0.054,0.035-0.088,0.051l-1.466,0.78h-0.337
	L227.818,46.866L227.818,46.866z M227.422,51.274c0.068-0.112,0.155-0.215,0.262-0.31c0.107-0.095,0.238-0.181,0.396-0.256
	c0.157-0.076,0.343-0.139,0.556-0.189l1.111-0.218c0.068-0.005,0.128-0.021,0.182-0.046c0.053-0.025,0.099-0.057,0.139-0.097
	c0.039-0.044,0.073-0.091,0.102-0.143c0.028-0.05,0.05-0.103,0.068-0.16c0-0.005,0.001-0.011,0.003-0.016
	c0.002-0.006,0.004-0.012,0.004-0.017c0-0.016,0.002-0.032,0.005-0.046c0.002-0.014,0.006-0.03,0.013-0.047c0-0.022,0-0.044,0-0.067
	c0-0.022,0-0.044,0-0.067c-0.007-0.089-0.024-0.177-0.054-0.26c-0.032-0.085-0.079-0.163-0.14-0.236
	c-0.056-0.078-0.129-0.137-0.219-0.176c-0.09-0.039-0.193-0.059-0.311-0.059c-0.005,0-0.01,0-0.013,0c-0.003,0-0.01,0-0.02,0
	c-0.006,0-0.012,0-0.017,0c-0.006,0-0.011,0-0.018,0c-0.049,0-0.097,0.003-0.143,0.008c-0.044,0.006-0.089,0.017-0.134,0.034
	c-0.012,0-0.024,0.003-0.038,0.008c-0.014,0.005-0.029,0.011-0.046,0.016c-0.057,0.022-0.112,0.049-0.169,0.076
	c-0.057,0.028-0.115,0.062-0.177,0.101c-0.039,0.022-0.077,0.048-0.114,0.075c-0.036,0.028-0.069,0.057-0.097,0.084
	c-0.04,0.028-0.077,0.059-0.114,0.093c-0.037,0.033-0.077,0.067-0.122,0.1l-0.118-0.017l0.118-0.462
	c0.017,0,0.034-0.004,0.051-0.013c0.016-0.008,0.036-0.016,0.059-0.021c0.017-0.011,0.035-0.022,0.055-0.033
	c0.019-0.011,0.04-0.023,0.063-0.033c0.09-0.046,0.183-0.086,0.282-0.122c0.099-0.037,0.201-0.075,0.308-0.114
	c0.112-0.034,0.226-0.06,0.341-0.08c0.115-0.019,0.235-0.03,0.358-0.03c0.247,0,0.457,0.027,0.628,0.081
	c0.171,0.053,0.302,0.133,0.391,0.239c0.089,0.106,0.139,0.249,0.148,0.428c0.007,0.18-0.019,0.393-0.08,0.638l-0.573,2.099
	c-0.01,0.056-0.016,0.099-0.016,0.13c0,0.031,0.008,0.054,0.025,0.072c0.017,0.016,0.04,0.029,0.067,0.037
	c0.029,0.009,0.059,0.013,0.093,0.013c0.017,0,0.034,0,0.051,0s0.038-0.003,0.06-0.008c0.023,0,0.045-0.003,0.068-0.008
	c0.022-0.005,0.046-0.011,0.068-0.018l-0.051,0.177c-0.016,0.022-0.035,0.038-0.054,0.049c-0.021,0.012-0.039,0.023-0.055,0.034
	c-0.018,0.012-0.035,0.02-0.055,0.025c-0.02,0.005-0.038,0.011-0.055,0.017c-0.016,0.005-0.035,0.008-0.054,0.008
	c-0.02,0-0.038,0.003-0.055,0.009c-0.017,0.005-0.036,0.009-0.055,0.012c-0.018,0.003-0.037,0.005-0.054,0.005
	c-0.006,0-0.01,0-0.012,0c-0.003,0-0.008,0.003-0.013,0.008c-0.006,0-0.009,0-0.012,0c-0.003,0-0.007,0-0.013,0s-0.011,0-0.016,0
	c-0.006,0-0.01,0-0.012,0c-0.003,0-0.007,0-0.013,0c-0.084,0-0.162-0.01-0.232-0.03c-0.071-0.019-0.136-0.049-0.199-0.089
	c-0.055-0.044-0.096-0.097-0.122-0.159c-0.025-0.061-0.032-0.128-0.021-0.201c-0.022,0.017-0.042,0.03-0.058,0.041
	c-0.018,0.012-0.032,0.023-0.042,0.034c-0.023,0.011-0.043,0.022-0.059,0.033c-0.016,0.012-0.034,0.022-0.051,0.034
	c-0.123,0.078-0.24,0.145-0.35,0.201c-0.109,0.056-0.215,0.098-0.316,0.126c-0.106,0.033-0.21,0.058-0.307,0.075
	c-0.099,0.017-0.19,0.025-0.274,0.025c-0.168,0-0.315-0.023-0.439-0.071c-0.123-0.048-0.228-0.119-0.311-0.214
	c-0.084-0.101-0.137-0.214-0.157-0.34c-0.02-0.126-0.01-0.261,0.03-0.407v-0.017C227.305,51.503,227.356,51.386,227.422,51.274
	L227.422,51.274z M230.018,50.569L230.018,50.569c-0.32,0.04-0.6,0.084-0.838,0.134c-0.239,0.051-0.435,0.115-0.586,0.194
	c-0.157,0.072-0.286,0.163-0.383,0.268c-0.098,0.107-0.167,0.233-0.206,0.378c0,0.005-0.002,0.013-0.005,0.021
	c-0.003,0.007-0.004,0.015-0.004,0.02c-0.006,0.011-0.009,0.024-0.013,0.038c-0.003,0.014-0.003,0.027-0.003,0.037
	c0,0.005-0.002,0.014-0.005,0.025c-0.003,0.012-0.004,0.022-0.004,0.034c0,0.006-0.002,0.014-0.004,0.026
	c-0.003,0.011-0.003,0.022-0.003,0.034c0,0.005,0,0.012,0,0.02c0,0.008,0,0.019,0,0.03c0,0.006,0,0.011,0,0.016
	c0,0.005,0.001,0.01,0.003,0.013c0.002,0.003,0.004,0.007,0.004,0.013c0.011,0.05,0.034,0.098,0.067,0.143
	c0.033,0.045,0.079,0.09,0.135,0.134c0.055,0.039,0.119,0.071,0.189,0.092c0.07,0.023,0.15,0.034,0.24,0.034
	c0.045,0,0.088-0.003,0.131-0.008c0.043-0.006,0.089-0.014,0.139-0.026c0.034-0.005,0.069-0.015,0.106-0.029
	c0.036-0.014,0.074-0.03,0.113-0.047c0.012-0.005,0.024-0.012,0.038-0.021c0.014-0.009,0.026-0.015,0.037-0.02
	c0.046-0.022,0.091-0.048,0.135-0.076c0.045-0.027,0.09-0.058,0.134-0.091c0.046-0.035,0.09-0.071,0.136-0.11
	c0.045-0.039,0.093-0.084,0.143-0.134v-0.017L230.018,50.569z"/>
<path class="st1" d="M198.086,39.438L198.086,39.438c0.268-1.288,0.582-2.966,0.938-5.041c0.362-2.075,0.616-3.724,0.77-4.95
	l-5.526-13.724c1.179,0.026,2.094,0.037,2.759,0.037c0.624,0,1.462-0.011,2.508-0.037c0.336,1.205,0.858,2.731,1.555,4.58
	c0.696,1.841,1.285,3.539,1.766,5.078l5.572-8.335c0.187-0.29,0.465-0.73,0.831-1.324c1.013,0.026,1.909,0.037,2.698,0.037
	c0.315,0,0.887-0.006,1.72-0.021l0.002-0.016l0.569,0.005l0.236-0.005l-0.005,0.007c2.763,0.021,5.648,0.03,8.649,0.03l5.635-0.018
	l3.01-0.019c-0.288,1.65-0.472,2.913-0.569,3.802c-1.886-0.1-3.69-0.152-5.425-0.152h-1.207l-0.536,3.171l-1.787,12.209
	l-0.261,2.047c-0.1,0.848-0.201,1.722-0.302,2.638l-2.377-0.037c-0.264,0-1.119,0.015-2.566,0.037l0,0l0.905-5.077l1.17-7.554
	l1.031-7.435h-1.095l-1.021,0.016l-0.979,0.018l-3.636,0.118c0.151-0.93,0.275-1.737,0.374-2.419l-9.112,12.706l-0.669,4.397
	c-0.205,1.298-0.446,3.039-0.714,5.228c-1.119-0.022-1.928-0.037-2.442-0.037C200.028,39.4,199.209,39.416,198.086,39.438
	L198.086,39.438z M190.49,35.097L190.49,35.097c-0.374,1.351-0.728,2.733-1.046,4.133c-1.217,0.229-2.329,0.391-3.333,0.485
	c-1.001,0.089-1.856,0.136-2.566,0.136c-1.573,0-3.042-0.243-4.418-0.73c-1.375-0.485-2.578-1.252-3.609-2.3
	c-1.032-1.048-1.72-2.319-2.067-3.814c-0.352-1.493-0.431-3.123-0.236-4.899c0.21-1.918,0.716-3.699,1.512-5.328
	c0.795-1.636,1.833-3.014,3.111-4.14c1.275-1.121,2.737-1.954,4.376-2.51c1.638-0.551,3.313-0.82,5.031-0.82
	c1.69,0,3.52,0.213,5.482,0.639c-0.08,1.03-0.129,1.762-0.144,2.187L192.485,20c-1.144-0.344-2.1-0.582-2.872-0.712
	c-0.766-0.123-1.507-0.189-2.22-0.189c-1.12,0-2.212,0.189-3.283,0.563c-1.073,0.379-2.048,0.979-2.928,1.796
	c-0.878,0.824-1.591,1.814-2.143,2.982c-0.549,1.163-0.896,2.371-1.034,3.635c-0.165,1.509-0.049,2.851,0.344,4.045
	c0.386,1.195,1.12,2.164,2.197,2.907c1.075,0.74,2.463,1.107,4.165,1.107C186.296,36.133,188.223,35.791,190.49,35.097
	L190.49,35.097z M156.693,29.95L156.693,29.95l4.371-7.655l1.589-2.918l2.048,10.573H156.693L156.693,29.95z M146.271,39.438
	L146.271,39.438c1.328-0.022,2.235-0.037,2.72-0.037l2.548,0.037c1.474-2.859,1.992-3.881,3.514-6.637l9.63-0.035
	c0.253,1.089,0.162,0.752,0.507,2.504c0.349,1.749,0.597,3.136,0.734,4.168c1.287-0.022,2.202-0.037,2.743-0.037l2.351,0.037
	l-0.464-1.909l-3.27-14.7l-1.466-7.105c-0.955,0.026-1.926,0.037-2.923,0.037c-0.559,0-1.522-0.011-2.878-0.037
	c-1.066,1.983-2.386,4.325-3.966,7.039l-5.09,8.772C149.15,34.67,147.592,37.309,146.271,39.438L146.271,39.438z M122.638,39.438
	L122.638,39.438c0.423-2.076,0.836-4.401,1.217-6.984l1.298-8.511c0.457-3.085,0.82-5.822,1.084-8.22
	c1.214,0.026,2.241,0.037,3.085,0.037c0.627,0,1.545-0.011,2.752-0.037c0.934,2.285,2.236,5.261,3.915,8.932
	c1.675,3.67,3.025,6.711,4.037,9.119l2.347-16.123c0.053-0.379,0.128-1.024,0.225-1.928c0.983,0.026,1.72,0.037,2.223,0.037
	c0.2,0,0.934-0.011,2.201-0.037l-1.09,6.377l-1.681,10.908l-0.889,6.429c-1.091-0.022-2.017-0.037-2.778-0.037
	c-0.608,0-1.593,0.015-2.958,0.037c-0.405-1.032-0.72-1.798-0.938-2.295c-0.345-0.766-1.086-2.338-2.226-4.727
	c-0.746-1.57-1.675-3.587-2.789-6.043c-0.814-1.809-1.508-3.378-2.084-4.723c-0.29,1.871-0.8,5.352-1.538,10.439
	c-0.295,2.071-0.623,4.52-0.975,7.348c-0.982-0.022-1.686-0.037-2.125-0.037C124.601,39.4,123.833,39.416,122.638,39.438
	L122.638,39.438z M109.582,19.009L109.582,19.009c-1.579,0-2.996,0.405-4.256,1.211c-1.259,0.8-2.256,1.902-3.004,3.294
	c-0.742,1.395-1.203,2.907-1.38,4.526c-0.164,1.507-0.034,2.894,0.403,4.156c0.427,1.27,1.199,2.235,2.304,2.905
	c1.11,0.665,2.349,0.999,3.721,0.999c1.033,0,2.042-0.198,3.025-0.593c0.986-0.395,1.863-0.99,2.635-1.797
	c0.777-0.804,1.394-1.775,1.859-2.906c0.476-1.138,0.777-2.319,0.907-3.546c0.128-1.144,0.095-2.248-0.096-3.298
	c-0.195-1.053-0.574-1.962-1.137-2.719c-0.566-0.762-1.285-1.317-2.162-1.687C111.529,19.193,110.588,19.009,109.582,19.009
	L109.582,19.009z M110.237,15.311L110.237,15.311c1.56,0,3.03,0.236,4.411,0.71c1.382,0.475,2.563,1.252,3.557,2.318
	c0.99,1.075,1.692,2.319,2.101,3.742c0.408,1.429,0.51,3.089,0.302,4.987c-0.197,1.784-0.651,3.486-1.357,5.117
	c-0.715,1.626-1.69,3.025-2.94,4.205c-1.248,1.172-2.711,2.046-4.375,2.607c-1.666,0.571-3.382,0.854-5.147,0.854
	c-1.677,0-3.255-0.259-4.74-0.783c-1.485-0.521-2.721-1.333-3.715-2.447c-0.994-1.109-1.648-2.39-1.973-3.831
	c-0.325-1.44-0.397-3.001-0.212-4.682c0.201-1.842,0.693-3.597,1.475-5.281c0.793-1.677,1.828-3.065,3.113-4.168
	c1.282-1.095,2.74-1.934,4.363-2.499C106.729,15.595,108.438,15.311,110.237,15.311L110.237,15.311z M94.59,35.097
	c-2.268,0.693-4.199,1.036-5.776,1.036c-1.703,0-3.09-0.367-4.165-1.107c-1.076-0.743-1.811-1.711-2.202-2.907
	c-0.393-1.194-0.507-2.536-0.34-4.045c0.136-1.264,0.484-2.472,1.035-3.635c0.548-1.168,1.263-2.158,2.14-2.982
	c0.881-0.817,1.856-1.417,2.925-1.796c1.076-0.374,2.166-0.563,3.285-0.563c0.711,0,1.455,0.066,2.223,0.189
	c0.771,0.13,1.727,0.368,2.872,0.712l0.098-1.864c0.015-0.425,0.064-1.157,0.143-2.187c-1.962-0.426-3.79-0.639-5.483-0.639
	c-1.716,0-3.392,0.269-5.031,0.82c-1.637,0.556-3.1,1.389-4.376,2.51c-1.278,1.126-2.321,2.503-3.111,4.14
	c-0.794,1.629-1.301,3.41-1.511,5.328c-0.194,1.776-0.115,3.406,0.237,4.899c0.344,1.494,1.035,2.765,2.065,3.814
	c1.032,1.048,2.232,1.815,3.608,2.3c1.376,0.487,2.85,0.73,4.419,0.73c0.71,0,1.568-0.047,2.569-0.136
	c1.005-0.094,2.114-0.256,3.334-0.485C93.864,37.831,94.212,36.448,94.59,35.097L94.59,35.097z M39.725,6.023
	c0,2.776-2.257,5.026-5.042,5.026c-2.785,0-5.042-2.249-5.042-5.026C29.642,3.249,31.899,1,34.684,1
	C37.468,1,39.725,3.249,39.725,6.023L39.725,6.023z M49.99,9.602c1.005-2.588-0.286-5.498-2.882-6.499
	c-2.598-1.002-5.516,0.283-6.521,2.87c-1.005,2.589,0.284,5.498,2.88,6.499C46.064,13.476,48.984,12.191,49.99,9.602L49.99,9.602z
	 M58.264,16.631c-1.875,2.052-5.063,2.2-7.124,0.332c-2.057-1.867-2.206-5.045-0.331-7.097c1.875-2.051,5.061-2.201,7.123-0.33
	C59.989,11.403,60.139,14.579,58.264,16.631L58.264,16.631z M63.435,26.164c2.491-1.24,3.503-4.256,2.26-6.738
	c-1.245-2.484-4.27-3.492-6.762-2.252c-2.493,1.238-3.504,4.255-2.262,6.737C57.916,26.394,60.943,27.403,63.435,26.164
	L63.435,26.164z M64.804,36.915c-2.772,0.258-5.23-1.772-5.49-4.537c-0.261-2.759,1.776-5.21,4.548-5.469
	c2.772-0.26,5.229,1.768,5.491,4.533C69.613,34.204,67.576,36.654,64.804,36.915L64.804,36.915z M62.187,47.432
	c2.679,0.756,5.465-0.799,6.223-3.467c0.757-2.673-0.798-5.446-3.478-6.201c-2.678-0.758-5.465,0.795-6.223,3.465
	C57.95,43.899,59.507,46.675,62.187,47.432L62.187,47.432z M55.936,56.299c-2.225-1.67-2.672-4.819-0.996-7.038
	c1.675-2.214,4.835-2.661,7.058-0.991c2.225,1.668,2.67,4.815,0.996,7.036C61.323,57.521,58.161,57.966,55.936,56.299L55.936,56.299
	z M46.895,62.319c1.47,2.354,4.58,3.077,6.942,1.612c2.365-1.468,3.09-4.563,1.62-6.92c-1.469-2.355-4.578-3.077-6.943-1.612
	C46.148,56.862,45.424,59.96,46.895,62.319L46.895,62.319z M36.282,64.68c-0.517-2.727,1.279-5.356,4.017-5.871
	c2.736-0.513,5.375,1.276,5.89,4.004c0.519,2.725-1.278,5.35-4.017,5.868C39.44,69.199,36.801,67.406,36.282,64.68L36.282,64.68z
	 M25.53,63.066c-0.504,2.73,1.308,5.348,4.044,5.851c2.741,0.501,5.367-1.301,5.872-4.031c0.506-2.728-1.307-5.346-4.044-5.85
	C28.663,58.531,26.035,60.336,25.53,63.066L25.53,63.066z M16.087,57.692c1.46-2.363,4.564-3.102,6.937-1.647
	c2.369,1.456,3.112,4.552,1.652,6.914c-1.461,2.361-4.563,3.097-6.936,1.643C15.369,63.151,14.628,60.055,16.087,57.692
	L16.087,57.692z M9.228,49.283c-2.217,1.681-2.648,4.833-0.963,7.039c1.686,2.211,4.847,2.64,7.064,0.962
	c2.217-1.679,2.646-4.831,0.963-7.041C14.607,48.033,11.446,47.604,9.228,49.283L9.228,49.283z M5.878,38.975
	c2.675-0.769,5.469,0.768,6.24,3.436c0.77,2.667-0.772,5.452-3.448,6.22c-2.677,0.766-5.467-0.77-6.24-3.438
	C1.657,42.529,3.201,39.743,5.878,38.975L5.878,38.975z M6.487,28.155c-2.775-0.246-5.224,1.797-5.467,4.559
	c-0.246,2.766,1.799,5.204,4.573,5.45c2.772,0.249,5.219-1.794,5.469-4.559C11.308,30.841,9.26,28.4,6.487,28.155L6.487,28.155z
	 M10.974,18.286c2.497,1.226,3.524,4.238,2.293,6.726c-1.234,2.488-4.257,3.512-6.752,2.285C4.018,26.07,2.993,23.06,4.224,20.57
	C5.452,18.081,8.475,17.059,10.974,18.286L10.974,18.286z M18.733,10.696c-1.884-2.044-5.075-2.177-7.121-0.298
	c-2.052,1.879-2.185,5.054-0.303,7.097c1.883,2.043,5.073,2.174,7.125,0.298C20.485,15.916,20.619,12.736,18.733,10.696
	L18.733,10.696z M28.719,6.407c-1.016-2.582-3.944-3.856-6.532-2.838c-2.594,1.014-3.869,3.927-2.853,6.511
	c1.016,2.583,3.944,3.852,6.537,2.842C28.462,11.906,29.738,8.99,28.719,6.407L28.719,6.407z M33.875,15.144
	c0.81,2.052-0.204,4.373-2.266,5.179c-2.062,0.803-4.389-0.207-5.197-2.26c-0.809-2.053,0.205-4.369,2.269-5.177
	C30.739,12.078,33.067,13.089,33.875,15.144L33.875,15.144z M42.686,16.51c-0.151,2.201-2.068,3.862-4.278,3.707
	c-2.209-0.157-3.875-2.064-3.72-4.265c0.155-2.2,2.07-3.858,4.282-3.704C41.176,12.4,42.844,14.309,42.686,16.51L42.686,16.51z
	 M50.055,21.517c1.09-1.922,0.41-4.359-1.519-5.44c-1.93-1.085-4.374-0.409-5.463,1.512c-1.087,1.92-0.408,4.356,1.521,5.444
	C46.522,24.118,48.969,23.439,50.055,21.517L50.055,21.517z M54.55,29.192c-1.809,1.27-4.311,0.837-5.584-0.97
	c-1.273-1.806-0.837-4.298,0.974-5.565c1.811-1.27,4.31-0.835,5.584,0.973C56.8,25.431,56.363,27.926,54.55,29.192L54.55,29.192z
	 M55.302,38.049c-2.183,0.371-4.254-1.091-4.624-3.267c-0.371-2.176,1.096-4.239,3.277-4.61c2.184-0.37,4.252,1.091,4.625,3.27
	C58.953,35.615,57.486,37.68,55.302,38.049L55.302,38.049z M52.163,46.366c2.13,0.6,4.347-0.634,4.945-2.758
	c0.602-2.125-0.636-4.332-2.768-4.932c-2.129-0.598-4.343,0.637-4.946,2.762C48.791,43.56,50.031,45.77,52.163,46.366L52.163,46.366
	z M45.742,52.534c-1.669-1.453-1.836-3.977-0.374-5.636c1.46-1.661,3.991-1.828,5.657-0.374c1.666,1.455,1.832,3.977,0.372,5.637
	C49.941,53.822,47.407,53.99,45.742,52.534L45.742,52.534z M37.284,55.354c-0.881-2.026,0.058-4.377,2.092-5.248
	c2.034-0.876,4.391,0.057,5.269,2.083c0.879,2.026-0.059,4.374-2.094,5.25C40.521,58.315,38.162,57.381,37.284,55.354L37.284,55.354
	z M28.431,54.282c-0.08,2.205,1.646,4.059,3.857,4.136c2.216,0.082,4.076-1.636,4.155-3.843c0.081-2.205-1.646-4.056-3.86-4.138
	C30.371,50.355,28.509,52.076,28.431,54.282L28.431,54.282z M20.9,49.523c-1.024,1.957-0.265,4.369,1.699,5.387
	c1.967,1.022,4.387,0.265,5.41-1.693c1.024-1.956,0.262-4.368-1.703-5.388C24.344,46.806,21.921,47.563,20.9,49.523L20.9,49.523z
	 M16.151,42.001c1.766-1.332,4.28-0.978,5.611,0.785c1.335,1.761,0.984,4.265-0.785,5.592c-1.767,1.333-4.278,0.979-5.613-0.785
	C14.028,45.834,14.382,43.33,16.151,42.001L16.151,42.001z M14.928,32.828c-2.168,0.443-3.569,2.552-3.121,4.711
	c0.446,2.165,2.56,3.559,4.73,3.113c2.17-0.442,3.567-2.552,3.119-4.715C19.215,33.775,17.098,32.38,14.928,32.828L14.928,32.828z
	 M18.224,24.15c-2.149-0.529-4.324,0.778-4.85,2.919c-0.53,2.146,0.778,4.31,2.929,4.836c2.15,0.531,4.321-0.777,4.85-2.922
	C21.686,26.841,20.376,24.676,18.224,24.15L18.224,24.15z M24.873,17.771c1.717,1.396,1.966,3.913,0.561,5.618
	c-1.402,1.711-3.925,1.963-5.639,0.564c-1.717-1.396-1.965-3.911-0.561-5.621C20.633,16.622,23.16,16.373,24.873,17.771
	L24.873,17.771z M32.219,23.89c-0.495-1.449-2.073-2.228-3.525-1.734c-1.454,0.494-2.234,2.064-1.739,3.513
	c0.493,1.449,2.07,2.223,3.524,1.73C31.936,26.913,32.714,25.339,32.219,23.89L32.219,23.89z M38.782,24.008
	c0.365-1.487-0.546-2.99-2.037-3.351c-1.492-0.363-2.997,0.543-3.36,2.031c-0.367,1.485,0.544,2.983,2.036,3.346
	C36.914,26.403,38.419,25.494,38.782,24.008L38.782,24.008z M44.253,27.624c-1.108,1.059-2.868,1.017-3.927-0.094
	c-1.062-1.107-1.02-2.857,0.09-3.912c1.109-1.061,2.867-1.017,3.93,0.088C45.407,24.809,45.364,26.565,44.253,27.624L44.253,27.624z
	 M46.915,33.604c1.507-0.297,2.491-1.753,2.192-3.254c-0.3-1.5-1.758-2.479-3.265-2.179c-1.506,0.294-2.486,1.747-2.187,3.249
	C43.947,32.923,45.407,33.902,46.915,33.604L46.915,33.604z M45.93,40.07c-1.431-0.554-2.135-2.162-1.571-3.587
	c0.56-1.427,2.17-2.126,3.599-1.569c1.432,0.555,2.134,2.162,1.576,3.589C48.977,39.928,47.361,40.628,45.93,40.07L45.93,40.07z
	 M41.609,44.996c0.907,1.238,2.647,1.513,3.884,0.61c1.239-0.904,1.516-2.635,0.609-3.87c-0.903-1.235-2.639-1.507-3.88-0.605
	C40.977,42.029,40.704,43.761,41.609,44.996L41.609,44.996z M35.309,46.833c0.097,1.53,1.415,2.695,2.945,2.596
	c1.533-0.097,2.699-1.408,2.602-2.936c-0.094-1.527-1.411-2.687-2.945-2.591C36.378,43.993,35.211,45.305,35.309,46.833
	L35.309,46.833z M29.007,45.005c0.742-1.34,2.435-1.822,3.776-1.076c1.344,0.741,1.828,2.425,1.084,3.762
	c-0.742,1.342-2.433,1.822-3.778,1.082C28.746,48.035,28.263,46.347,29.007,45.005L29.007,45.005z M24.68,40.086
	c-1.351,0.734-1.854,2.416-1.121,3.755c0.735,1.346,2.419,1.846,3.769,1.116c1.348-0.73,1.849-2.408,1.116-3.754
	C27.715,39.856,26.029,39.356,24.68,40.086L24.68,40.086z M23.686,33.621c1.532,0.106,2.685,1.43,2.57,2.958
	c-0.108,1.528-1.436,2.673-2.966,2.566c-1.533-0.104-2.683-1.43-2.576-2.958C20.82,34.663,22.152,33.514,23.686,33.621
	L23.686,33.621z M26.339,27.637c1.233,0.909,1.49,2.646,0.57,3.871c-0.916,1.231-2.654,1.485-3.886,0.575
	c-1.235-0.911-1.489-2.644-0.575-3.876C23.36,26.979,25.102,26.725,26.339,27.637L26.339,27.637z M33.151,29.526
	c0.994,0.806,1.138,2.261,0.325,3.248c-0.813,0.986-2.269,1.134-3.263,0.326c-0.991-0.808-1.136-2.261-0.324-3.251
	C30.699,28.86,32.161,28.716,33.151,29.526L33.151,29.526z M39.178,30.499c0.208-1.26-0.647-2.45-1.909-2.655
	c-1.266-0.206-2.457,0.643-2.666,1.902c-0.207,1.261,0.648,2.446,1.911,2.654C37.779,32.608,38.972,31.76,39.178,30.499
	L39.178,30.499z M41.339,36.188c-1.2,0.451-2.533-0.155-2.983-1.351c-0.45-1.196,0.154-2.525,1.354-2.975
	c1.2-0.448,2.532,0.155,2.985,1.352C43.146,34.408,42.538,35.739,41.339,36.188L41.339,36.188z M37.468,40.895
	c-0.991-0.812-1.128-2.267-0.313-3.249c0.815-0.985,2.272-1.128,3.262-0.317c0.989,0.813,1.129,2.265,0.314,3.254
	C39.919,41.567,38.457,41.705,37.468,40.895L37.468,40.895z M31.445,39.901c0.211-1.261,1.408-2.107,2.67-1.894
	c1.262,0.214,2.114,1.399,1.902,2.66c-0.212,1.261-1.406,2.104-2.671,1.895C32.083,42.351,31.233,41.159,31.445,39.901
	L31.445,39.901z M29.303,34.202c-1.2,0.445-1.812,1.775-1.367,2.971c0.45,1.198,1.779,1.806,2.983,1.361
	c1.201-0.446,1.808-1.774,1.362-2.971C31.837,34.367,30.506,33.755,29.303,34.202L29.303,34.202z M36.573,33.679
	c-0.846-0.689-2.094-0.568-2.785,0.278c-0.693,0.845-0.57,2.086,0.277,2.777c0.847,0.689,2.093,0.564,2.786-0.279
	C37.545,35.612,37.423,34.369,36.573,33.679z"/>
</svg>
