<?xml version="1.0" encoding="utf-8"?>
<svg version="1.1" id="Capa_1" xmlns="http://www.w3.org/2000/svg" xmlns:xlink="http://www.w3.org/1999/xlink" x="0px" y="0px" viewBox="0 0 164 96" style="enable-background:new 0 0 164 96;" xml:space="preserve">
<style type="text/css">
	.st01{opacity:1.00;fill-rule:evenodd;clip-rule:evenodd;fill:#000000;fill-opacity:1.00;}
	.st02{opacity:1.00;fill-rule:evenodd;clip-rule:evenodd;fill:#FFFFFF;fill-opacity:0.00;}
	.st03{opacity:1.00;fill-rule:evenodd;clip-rule:evenodd;fill:#000000;fill-opacity:0.00;}
	.st04{opacity:1.00;fill-rule:evenodd;clip-rule:evenodd;fill:#000000;fill-opacity:1.00;}
</style>
<path class="st01" d="M13.786,1C15.9,17.601,21.431,41.087,34.39,56.3h-4.114C19.449,45.384,6.516,22.936,0.837,1H13.786L13.786,1z
	 M35.527,5.17C30.22,3.692,21.691,1.755,16.468,1.755c7.141,24.979,16.16,45.453,32.334,63.17C70.476,88.667,89.293,95,105.758,95
	c13.937,0,24.976-4.134,40.176-15.078V69.139c-6.671,10.9-17.374,20.423-28.751,22.662c-15.624,3.076-28.162-2.199-38.29-9.629
	C68.765,74.743,61.034,64.422,55.868,56.3C45.211,39.548,39.084,24.154,35.527,5.17L35.527,5.17z M60.678,15.202
	c-1.299,10.681,0.837,25.008,4.731,35.029c4.346,11.184,9.394,19.728,17.257,27.122c11.319,10.644,24.958,13.452,34.086,11.57
	c12.082-2.491,20.956-13.016,25.535-23.999h4.51c-7.425,12.131-17.357,23.189-29.829,25.438
	c-26.583,4.793-46.455-14.38-59.363-35.166c-8.998-14.489-15.466-32.255-18.737-48.97c2.157,0.758,4.063,1.561,5.652,2.198
	C49.689,10.496,55.211,13.151,60.678,15.202L60.678,15.202z M78.843,32.207c-1.124,3.087-1.724,6.727-1.881,10.487l-3.058,14.389
	c-0.124,0.583,0.015,1.162,0.39,1.625c0.377,0.465,0.909,0.719,1.508,0.719h3.341c0.073,0.218,0.147,0.434,0.222,0.647
	c5.398,15.131,19.689,28.992,36.956,25.971c12.211-2.136,17.819-11.8,19.446-19.815l3.073-0.857
	c-3.472,11.643-11.398,19.84-22.303,22.111c-10.96,2.283-23.447-2.005-32.899-11.456c-7.724-7.724-13.216-17.578-15.97-27.234
	c-3.9-13.675-3.826-27.051-3.344-31.171l12.474,10.08L78.843,32.207L78.843,32.207z M91.622,59.427
	c-2.184,11.171,6.908,24.039,20.784,24.039c9.842,0,18.191-7.744,18.693-15.456l2.75-1.245c-1.778,10.082-9.846,16.527-17.743,17.84
	c-11.664,1.94-22.848-4.589-29.062-13.543c-2.124-3.061-4.012-7.19-5.322-11.635H91.622z"/>
<path class="st02" d="M75.802,59.427c-0.597,0-1.132-0.255-1.508-0.719c-0.376-0.464-0.514-1.041-0.39-1.624l8.415-39.59h0.843
	c0.309,0,0.596-0.167,0.749-0.435c0.153-0.268,0.15-0.6-0.007-0.866c-0.816-1.38-1.248-2.962-1.248-4.574
	c0-4.844,3.82-8.785,8.516-8.785s8.516,3.941,8.516,8.785c0,2.361-0.945,4.661-2.595,6.314c-0.242,0.214-0.332,0.537-0.229,0.835
	c0.105,0.305,0.397,0.51,0.726,0.51c0.096,0,0.191-0.017,0.284-0.05c3.86-1.376,8.477-2.166,12.665-2.166
	c2.632,0,5.072,0.318,7.253,0.945c0.058,0.017,0.118,0.025,0.179,0.025h2.992c0.055,0,0.109-0.007,0.163-0.021
	c2.424-0.63,4.992-0.949,7.632-0.949c4.869,0,9.361,1.185,12.015,3.171c0.151,0.113,0.329,0.173,0.515,0.173
	c0.104,0,0.206-0.019,0.305-0.056c0.278-0.105,0.48-0.34,0.54-0.629l1.521-7.156c0.121-0.57,0.472-1.036,0.986-1.309l12.43-6.615
	c0.284-0.151,0.6-0.231,0.915-0.231c0.419,0,0.822,0.136,1.164,0.394c0.609,0.459,0.889,1.207,0.73,1.953l-1.969,9.264
	c-0.054,0.256,0.009,0.519,0.173,0.722c0.164,0.203,0.409,0.32,0.67,0.32h1.822c0.551,0,1.041,0.213,1.417,0.615
	c0.376,0.402,0.556,0.905,0.519,1.455l-0.432,6.468c-0.068,1.016-0.918,1.811-1.936,1.811h-3.607c-0.617,0-1.137,0.421-1.265,1.025
	l-4.433,20.858c-0.136,0.638-0.052,1.149,0.248,1.52c0.284,0.351,0.72,0.529,1.296,0.529l3.319,0c0.675,0,1.271,0.326,1.634,0.895
	s0.41,1.246,0.127,1.859l-1.574,3.409c-0.26,0.563-0.737,0.947-1.342,1.081c-2.663,0.59-4.725,0.841-6.895,0.841
	c-3.904,0-7.36-1.674-9.482-4.594c-0.162-0.223-0.422-0.356-0.695-0.356c-0.061,0-0.122,0.006-0.182,0.019
	c-0.332,0.071-0.593,0.331-0.664,0.664l-0.58,2.73c-0.192,0.905-0.973,1.537-1.898,1.537H75.802z"/>
<path class="st03" d="M82.01,11.618c0-5.093,3.993-9.432,9.163-9.432c5.169,0,9.163,4.339,9.163,9.432c0,2.54-1.002,4.995-2.803,6.79
	c-0.132,0.103-0.039,0.269,0.122,0.211c3.976-1.417,8.67-2.204,12.885-2.204c2.49,0,5.034,0.281,7.431,0.97l2.992,0
	c2.533-0.658,5.179-0.97,7.795-0.97c3.993,0,9.107,0.835,12.402,3.3c0.061,0.045,0.134,0.056,0.205,0.029
	c0.071-0.027,0.119-0.083,0.135-0.157l1.521-7.158c0.162-0.761,0.629-1.381,1.315-1.746l12.43-6.615
	c0.896-0.477,1.962-0.393,2.772,0.217c0.812,0.612,1.185,1.609,0.974,2.604l-1.969,9.264c-0.014,0.066,0.001,0.128,0.043,0.18
	c0.042,0.052,0.1,0.08,0.168,0.08h1.822c0.729,0,1.391,0.287,1.889,0.82c0.498,0.532,0.741,1.212,0.692,1.94l-0.432,6.468
	c-0.091,1.36-1.219,2.415-2.581,2.415l-3.607,0c-0.309,0-0.568,0.21-0.633,0.512l-4.433,20.857c-0.166,0.78,0.076,1.268,0.911,1.268
	l3.319,0c0.896,0,1.697,0.439,2.18,1.193c0.482,0.753,0.544,1.667,0.169,2.479l-1.575,3.409c-0.344,0.746-0.988,1.264-1.79,1.441
	c-2.382,0.527-4.583,0.856-7.034,0.856c-3.973,0-7.669-1.646-10.005-4.861c-0.051-0.07-0.134-0.102-0.219-0.084
	c-0.085,0.018-0.148,0.081-0.166,0.166l-0.58,2.729c-0.255,1.201-1.303,2.049-2.531,2.049H75.802c-0.794,0-1.511-0.342-2.011-0.959
	c-0.497-0.614-0.684-1.393-0.52-2.166l8.415-39.59c0.064-0.302,0.324-0.512,0.633-0.512h0.843c0.167,0,0.271-0.181,0.186-0.325
	C82.474,15.044,82.01,13.349,82.01,11.618L82.01,11.618z M84.938,16.581c0.106,0.142,0.142,0.363,0.106,0.535
	c-0.128,0.604-0.648,1.025-1.265,1.025h-0.412c-0.309,0-0.568,0.21-0.633,0.512l-8.197,38.565c-0.084,0.395,0.006,0.769,0.26,1.083
	c0.254,0.314,0.602,0.48,1.005,0.48h25.761c0.309,0,0.568-0.21,0.633-0.512l7.303-34.358c0.076-0.357,0.427-0.647,0.784-0.647
	s0.585,0.29,0.509,0.647l-7.246,34.089c-0.042,0.197,0.003,0.385,0.13,0.542c0.127,0.157,0.301,0.24,0.503,0.24h14.578
	c0.309,0,0.568-0.21,0.633-0.512l7.315-34.414c0.076-0.357,0.427-0.647,0.784-0.647s0.585,0.29,0.509,0.647l-7.258,34.145
	c-0.042,0.197,0.003,0.385,0.13,0.542c0.127,0.157,0.301,0.24,0.503,0.24h12.777c0.617,0,1.137-0.421,1.265-1.025l0.684-3.217
	c0.111-0.52,0.5-0.902,1.023-1.002c0.522-0.1,1.025,0.112,1.32,0.555c1.89,2.843,5.148,4.688,9.21,4.688
	c2.465,0,4.453-0.316,6.755-0.826c0.408-0.09,0.72-0.342,0.895-0.721l1.575-3.409c0.191-0.412,0.16-0.857-0.085-1.239
	c-0.245-0.383-0.635-0.597-1.09-0.597l-3.319,0c-1.67,0-2.515-1.239-2.177-2.831l4.542-21.37c0.128-0.604,0.648-1.025,1.265-1.025
	l4.131,0c0.682,0,1.245-0.527,1.291-1.207l0.432-6.468c0.025-0.371-0.092-0.699-0.346-0.97c-0.254-0.271-0.573-0.41-0.945-0.41
	h-2.088c-0.404,0-0.751-0.166-1.005-0.48c-0.254-0.314-0.344-0.688-0.26-1.083l2.024-9.524c0.107-0.503-0.076-0.993-0.487-1.302
	c-0.411-0.31-0.932-0.35-1.386-0.109l-12.43,6.615c-0.349,0.186-0.575,0.486-0.658,0.873l-1.593,7.493
	c-0.096,0.452-0.395,0.794-0.83,0.949c-0.435,0.155-0.883,0.08-1.244-0.208c-3.121-2.498-8.305-3.224-11.863-3.224
	c-2.499,0-5.045,0.298-7.47,0.929c-0.112,0.029-0.21,0.042-0.325,0.042h-2.992c-0.127,0-0.235-0.015-0.357-0.05
	c-2.277-0.655-4.718-0.92-7.074-0.92c-3.955,0-8.577,0.748-12.45,2.129c-0.594,0.212-1.239-0.026-1.555-0.572l-0.122-0.211
	c-0.297-0.515-0.214-1.143,0.207-1.563c1.504-1.499,2.422-3.601,2.422-5.874c0-4.386-3.42-8.139-7.869-8.139
	c-4.449,0-7.869,3.753-7.869,8.139C83.303,13.461,83.907,15.193,84.938,16.581z"/>
<path class="st04" d="M157.06,7.576l-2.566,12.073h5.39l-0.345,5.174l-6.144,0l-5.087,23.931c-0.607,2.858,1.217,5.174,4.074,5.174
	l1.833,0l-0.846,1.833c-2.342,0.538-3.741,0.647-5.717,0.647c-5.894,0-9.656-4.778-8.404-10.672l6.874-32.339L157.06,7.576
	L157.06,7.576z M140.648,23.802c-1.541-2.437-6.119-4.153-11.891-4.153c-2.623,0-5.15,0.355-7.369,0.97h-3.893
	c-1.957-0.615-4.333-0.97-6.956-0.97c-4.461,0-9.643,1.026-13.33,2.617L90.181,55.33h9.378l6.782-31.908
	c0.723-0.867,2.747-2.156,4.366-2.156s3.095,1.289,3.449,2.156l-6.782,31.908h9.378l6.782-31.908
	c0.723-0.867,2.747-2.156,4.366-2.156c1.619,0,3.095,1.289,3.449,2.156l-6.782,31.908h9.378L140.648,23.802L140.648,23.802z
	 M84.414,20.08h9.702l-7.493,35.25h-9.702L84.414,20.08L84.414,20.08z M91.172,5.42c3.275,0,5.929,2.775,5.929,6.198
	c0,3.423-2.654,6.198-5.929,6.198c-3.275,0-5.929-2.775-5.929-6.198C85.243,8.195,87.898,5.42,91.172,5.42z"/>
</svg>
