<?xml version="1.0" encoding="utf-8"?>
<!-- Generator: Adobe Illustrator 22.1.0, SVG Export Plug-In . SVG Version: 6.00 Build 0)  -->
<svg version="1.1" id="Capa_1" xmlns="http://www.w3.org/2000/svg" xmlns:xlink="http://www.w3.org/1999/xlink" x="0px" y="0px"
	 viewBox="0 0 150 96" style="enable-background:new 0 0 150 96;" xml:space="preserve">
<style type="text/css">
	.st0{fill:#000000;}
	.st1{fill:#000000;}
</style>
<path class="st0" d="M27.135,94.792H15.517c-9.523,0-14.285-5.31-14.285-15.929v-0.146c0.095-10.587,4.873-15.88,14.332-15.88
	h11.618v6.799H14.231c-2.127,0-3.714,0.737-4.761,2.21c-1.048,1.473-1.571,3.829-1.571,7.066V79.3c0,5.796,2.095,8.693,6.285,8.693
	h12.951V94.792z M30.646,62.957h7.518v31.955h-7.518V62.957z M55.732,69.658c-0.155,0-0.294,0.162-0.417,0.486l-8.302,24.768h-6.864
	l9.369-27.681c0.526-1.554,1.337-2.679,2.435-3.375c1.097-0.696,2.388-1.044,3.873-1.044c1.484,0,2.775,0.349,3.873,1.044
	c1.097,0.696,1.909,1.821,2.435,3.375l9.368,27.681h-6.864l-8.348-24.768c-0.124-0.323-0.248-0.486-0.371-0.486H55.732z
	 M83.533,69.823v25.156h-6.766V69.823h-7.491v-6.799h21.312v6.799H83.533z M118.867,69.779h-16.214c-0.721,0-1.339,0.284-1.856,0.85
	c-0.517,0.567-0.775,1.238-0.775,2.016c0,0.777,0.242,1.441,0.728,1.991c0.486,0.551,1.135,0.826,1.95,0.826h16.167v6.799h-16.214
	c-0.721,0-1.339,0.284-1.856,0.85c-0.517,0.567-0.775,1.271-0.775,2.112c0,0.81,0.258,1.498,0.775,2.064
	c0.517,0.567,1.151,0.85,1.903,0.85h16.167v6.799h-15.415c-1.849,0-3.408-0.275-4.677-0.826c-1.269-0.55-2.303-1.287-3.102-2.21
	c-0.799-0.923-1.379-1.967-1.739-3.132c-0.36-1.166-0.54-2.363-0.54-3.594c0-0.583,0.054-1.206,0.164-1.87
	c0.109-0.663,0.297-1.287,0.564-1.87c0.266-0.583,0.611-1.1,1.034-1.554c0.423-0.453,0.948-0.793,1.575-1.02
	c-1.253-0.615-2.115-1.53-2.585-2.744c-0.47-1.214-0.705-2.647-0.705-4.298c0-2.817,0.862-4.994,2.585-6.532
	c1.723-1.537,4.198-2.307,7.426-2.307h15.415L118.867,69.779L118.867,69.779z M122.23,95v-6.799h10.38
	c2.679,0,4.734-0.623,6.167-1.87c1.432-1.246,2.149-2.987,2.149-5.221V63.045h7.813v18.017c0,2.137-0.344,4.064-1.032,5.779
	c-0.689,1.716-1.712,3.181-3.069,4.395c-1.358,1.214-3.051,2.145-5.078,2.793c-2.028,0.648-4.4,0.971-7.115,0.971H122.23z"/>
<path class="st1" d="M148.754,28.304c0.16,3.923-1.073,7.439-2.412,10.839c-0.042,0.107-0.497,0.053-0.378-0.273
	c3.633-10.035-5.974-26.313-17.694-28.521c-2.45-0.462-4.68-0.26-7.658-0.117c-7.507,1.387-13.952,4.895-16.36,12.238
	c-0.821-0.283-1.551,0.162-1.542,0.839c0.021,1.573-0.91,4.645-0.692,7.698c0.459,6.395,8.72,12.453,11.25,15.451
	c-0.877,1.326-4.169-1.178-4.435-0.486c-0.204,0.53-0.225,1.292,0.359,1.477c0.248,0.079,3.081,1.779,8.927,3.329
	c1.962,0.004,4.777,0.211,7.796-0.343c12.912-4.712,18.847-16.216,16.339-26.415c-3.998-4.488-3.896-4.916-4.516-5.849
	c-1.55-1.489-1.74-2.125-1.339-1.78c1.197,1.028,4.63,2.193,6.88,7.461c1.391,2.503,1.748,5.879,1.279,7.94
	c-0.116,4.511-0.898,7.608-2.489,11.28c-3.712,11.545-14.181,14.931-18.725,14.931c1.509-0.979,4.651-1.005,4.569-2.081
	c-1.754,0.286-5.072,0.806-6.846,0.806c-13.41,0-19.997-4.396-23.914-13.575c-1.795-4.207-3.794-9.759-3.794-14.931
	c0-16.278,10.403-31.087,30.597-26.313C136.072,1.909,148.067,11.454,148.754,28.304 M132.955,31.363
	c3.284,4.018-3.248,7.448-6.303,7.726c-4.324,0.393-5.589-2.443-10.443-7.134c-6.344-1.509-5.61-9.281,1.754-8.241
	C122.267,22.796,132.405,19.777,132.955,31.363"/>
</svg>
