<?xml version="1.0" encoding="utf-8"?>
<svg version="1.1" id="arrow-circle-right" xmlns="http://www.w3.org/2000/svg" xmlns:xlink="http://www.w3.org/1999/xlink" x="0px" y="0px" viewBox="0 0 360 360" style="enable-background:new 0 0 360 360;" xml:space="preserve">
<style type="text/css">
	.st0{opacity:1.00;fill:#FFFFFF;fill-opacity:1.00;}
	.st1{opacity:0.00;fill:#000000;fill-opacity:1.00;}
	.st2{opacity:1.00;fill:#000000;fill-opacity:1.00;}
</style>
<circle class="st0" cx="180" cy="180" r="150"/>
<path class="st1" d="M330,180c0,82.843-67.157,150-150,150S30,262.843,30,180S97.157,30,180,30S330,97.157,330,180z M180,52
	c-70.692,0-128,57.308-128,128s57.308,128,128,128s128-57.308,128-128S250.692,52,180,52z"/>
<path class="st2" d="M110,180c0-2.917,1.176-5.715,3.27-7.778c2.094-2.063,4.934-3.222,7.895-3.222l91.278,0l-39.054-39.054
	c-2.094-2.094-3.283-4.922-3.305-7.861c-0.022-2.939,1.125-5.75,3.188-7.812c2.063-2.063,4.873-3.209,7.812-3.188
	c2.939,0.022,5.767,1.211,7.861,3.305c0,0,57.639,57.571,57.866,57.798c2.062,2.062,3.209,4.872,3.187,7.81c0,0.001,0,0.001,0,0.002
	c0,0,0,0,0,0s0,0,0,0c0,0.001,0,0.001,0,0.002c0.021,2.938-1.125,5.748-3.187,7.81c-0.227,0.227-57.866,57.798-57.866,57.798
	c-2.094,2.094-4.922,3.283-7.861,3.305s-5.75-1.125-7.812-3.188c-2.063-2.063-3.21-4.873-3.188-7.812
	c0.022-2.939,1.211-5.767,3.305-7.861L212.444,191l-91.278,0c-2.961,0-5.801-1.159-7.895-3.222C111.176,185.715,110,182.917,110,180
	z"/>
</svg>
