<svg id="logo_istmo" xmlns="http://www.w3.org/2000/svg" viewBox="0 0 369.8 110"><defs><style>.cls-1{fill:#e6e6e6;}.cls-1,.cls-2,.cls-3,.cls-4,.cls-5{fill-rule:evenodd;}.cls-2{fill:#b3b3b3;}.cls-3{fill:gray;fill-opacity:0.5;}.cls-4,.cls-5,.cls-6,.cls-7{fill:#fff;}.cls-5,.cls-6,.cls-7{stroke:#fff;stroke-miterlimit:10;}.cls-6{stroke-width:1.6px;}.cls-7{stroke-width:0.25px;}</style></defs><title>logo_istmo2</title><path class="cls-1" d="M0,0H110V110H0Z"/><path class="cls-2" d="M0,0H23.48c.78.6.7.3,1.49.61a6.62,6.62,0,0,1,.38.73c0,.06,1.64,1.2,1.86,1.9.14,1.16-.44,1.51.75,2.23a5.06,5.06,0,0,0,2.66.3c.13,3.77,1.11,5.56,4.75,6.75a13.41,13.41,0,0,1,2.57,1.29,21.49,21.49,0,0,0,2.82.89,14.57,14.57,0,0,0,3.71.16c1.25,0,2.67-.07,3.89,0,1.53.06.69.86,3,.11l3.32,2.49c.6.82.12.93,1.42,1.43,2.1.81,4.56.36,5.18.68.8.42.83,1.69,1.66,2.77.47.61.19.63.42,1.15.12.29,1.19.75,1.69,1.32.32.35.28.53.58.83s.5.09.65.83c.4,2,.72,2.87,2.83,3.2.6.09.67.32,1.05.37s.61-.28,1.13-.38c1.09-.21,1.32.27,2.66-.24.73-.28.66-.08,1.32-.15s.47-.28,1.15-.36c3.7-.46,13.89-4.2,18-5.58.62-.2,1.84-.39,2.52-.54.51-.12.48-.3,1-.35a17.44,17.44,0,0,0,3,0c.46-.12.47-.29,1-.33,1.22-.1,4.66-.15,5.7.27a9.39,9.39,0,0,0,2.31.15v83.7c-2.44-2.35-5-4.53-7.57-6.86A106.27,106.27,0,0,0,89.1,89.43a15.17,15.17,0,0,0-5.43-2.32,12.19,12.19,0,0,1-2.61-1.22c-.91-.44-1.84-.62-2.78-1.08a37.11,37.11,0,0,0-12.18-3.3,20.94,20.94,0,0,1-3.62-.19,6.69,6.69,0,0,0-3.47.05,31.71,31.71,0,0,1-3.21.57c-2,.15-1.49-.44-3.65.41-1,.39-2.12.38-2.76,1.14-1,1.12-1.59.79-2.33,1.5s-.65,1.47-1.79,2.1c-1.8,1-3.21.51-5.83,1.86-1.27.66-2.19.29-3.2.71-1.49.62-.43.52-2.76,1.12-.91.24-2,.65-2.86,1s-1.71.83-2.59,1.18a5,5,0,0,0-2.19,1.2c-1.81,1.41-4.62,1-6.73,1-2.48,0-3,1.94-6.25,0-2-1.19-5.07-.76-6.35-1.53a9,9,0,0,0-2.65-1.21C2.2,92,2.19,91,0,90Z"/><path class="cls-3" d="M55,7.5A47.5,47.5,0,1,1,7.5,55,47.5,47.5,0,0,1,55,7.5Z"/><path class="cls-4" d="M48.36,14.84c1.53.06.69.86,3,.11l3.32,2.49c.6.82.12.93,1.42,1.43,2.1.81,4.56.36,5.18.68.8.42.83,1.69,1.66,2.77.47.61.19.63.42,1.15.12.29,1.19.75,1.69,1.32.32.35.28.53.58.83s.5.09.65.83c.4,2,.72,2.87,2.83,3.2.6.09.67.32,1.05.37s.61-.28,1.13-.38c1.09-.21,1.32.27,2.66-.24.73-.28.66-.08,1.32-.15s.47-.28,1.15-.36a26.81,26.81,0,0,0,3.11-.68v1.42c.71-.2.05-.13.76-.37.09.45-.06.2.28.39-.47.81-.31.94.07,1.52a.74.74,0,0,1-.16.33,1.78,1.78,0,0,0-.18.25l.74.71c-.28.35-.53.22-.36,1s.5.45.24,1c-.14.3-.27-.1-.26,1.27,0,.49,0,1,0,1.46h1a1.69,1.69,0,0,0,.21.31c.44.53.83.24,1,.81a1.09,1.09,0,0,0,.33-.16c.84-.47-.4.15.28-.17,1.08,1.42.11.76.58,1.75l.06.08a.24.24,0,0,0,.06.08l.1.18,0,.1c.26.5-.27.14.29.42S85,40,86.29,40.3l0,1.08a3.22,3.22,0,0,1,1.92.57l.2.1c.66.31.24.44,1.24.48.08.65.2.51.39,1,0,.06.07.41.08.51.59-.14,0-.14.65-.09l.08.81c1,.14.37.2,1.72.86l.51.45s-.06,0-.07.07c-.1.52-.22-.24-.29.5-.14,1.48.55,1.91-.81,2.67-.3.17-.68.3-.7.77s1.37,1.18,1.33,1.49l-.19.42.72,0c-.08.71-.4.71-1.11.75v.73c-1.55,0,0,.39-1.57.4h-2l-.16.34a6.11,6.11,0,0,1-1.33,1.93,1.94,1.94,0,0,0-.73,1.13c-.28,1-.8,1.6-1.09,2.63a3.76,3.76,0,0,1-.49,1.38A12.35,12.35,0,0,0,83.49,64a24.35,24.35,0,0,1-1.12,2.61c-.35.93-.58,1.92-.94,2.78C80.79,71,80,72.54,79.49,74.08a5.58,5.58,0,0,0-.28.74c.6,1,2.2,2.29,2.4,3.33,0,.22.12.63.21.95l.1.89c0,.47.12,0,.18.7l-.68.61a1,1,0,0,1-.31.25c-.1.06-.41.21-.57.31l-.56.45c.39.52.28,1.18.73,1.93a11,11,0,0,1,1,1.94v.08c-.22-.13-.45-.25-.69-.37-.91-.44-1.84-.62-2.78-1.08a37.11,37.11,0,0,0-12.18-3.3,20.94,20.94,0,0,1-3.62-.19,6.69,6.69,0,0,0-3.47.05,31.71,31.71,0,0,1-3.21.57c-2,.15-1.49-.44-3.65.41-1,.39-2.12.38-2.76,1.14-1,1.12-1.59.79-2.33,1.5s-.65,1.47-1.79,2.1c-1.8,1-3.21.51-5.83,1.86-1.27.66-2.19.29-3.2.71-1.49.62-.43.52-2.76,1.12-.91.24-2,.65-2.86,1l-.68.28-.11-.14c-.54-.6-.34-.61-.33-2.34.81-.37,1.66-1.46,2.51-1.58a13.75,13.75,0,0,1,1.44,0c.52-.23.2-.25.62-.66l.39-.31,1.06-1.09A2.78,2.78,0,0,0,36,85l1.08,0c0-1.93-.64-1.81-.73-2.55s.1-.32.18-.46c.27-.45.18-.47.14-1.08l-.72-.08c.17-.4.11-.21.19-.35.21-.38,0,.19.16-.28a1.89,1.89,0,0,1-.73-.29s.09-.09.11-.06.08,0,.11,0l1.7-.14.34-1.49L36,77.69c.22-.55,1-1.22.35-1.51,1-.86.37-.45.77-1.53.09-.26.77-1.07,1-1.4l-1.78-.44c-.1-1.69.31-.56.38-1.88.71,0,2.17-.91,2.25-1.4-.05-1-.21-.32-.37-1.15a1.51,1.51,0,0,1,1-.65l.6.08c.18-.22.35-.35.48-.51l.35-.66c.15-.31.27-.27.25-.83a.89.89,0,0,0-.4-.72c.43-.63.38.19.36-.7,0-.55-.17-.23-.36-.87l.2-.12a6.82,6.82,0,0,1,2.06-.49c0-.33.06-.31-.07-.57s-1.26-.78-1.7-.89c.26-.55.26-.3-.09-.72l-1.9.53c-.29.15.12.2-.72.19a3.53,3.53,0,0,1-.85-1.85c-.35-.05-.91,0-1.17-.08-.84-.24.24-.31-1.07-.37,0-1.57-.31-1.45-1-2.22l.61-.74c-.38-.78-.62-.65-.91-1.12.54-.17.67,0,1.27-.26-.13-.64-.74-1-1.25-1.43l-.1-.07c.91-.6.73-1.16,1.48-1.68.37.1.93.7,1.35.07s-.13-1-.25-1.49l1-.81c.88-.49.91-.46,1-1.57,3,0,1.64-.22,2.52-1.54.33-.51.64-.58.46-1.2l-.17-.31-.08-.08-.09-.07,1.07-.58c.22-.1.07.05.4-.14l0-.65c-.28,0-.18.07-.31.15s0,.13-.36.22c-.82-.55-.37-.27-1.56-.41.26-.74.13.07.36-.6-.82-.56-.63-.48-1.85-.5l-.51-1.25a1.63,1.63,0,0,0-.45-.25s-.06,0-.07.08l-.28.29c-.37.36-.47.35-.65.38s-.52,0-.68,0c-.16,1.31-.42.19-.42,2.25-.66,0-.89.09-1.32-.35l-.06-.07-1-1c-.49-.52-.25-.38-1-.54V40.33a1.46,1.46,0,0,0,.78-.85l.15-.31c.09-.19,0,.08.15-.31l.32-1a6.41,6.41,0,0,1,.61-1.27l.48-1a8.36,8.36,0,0,0,.87.14c1,.21.79,1.12,1.85-.93l.59-1c.3.1.25.24.57.33.21-.6.45-.62.39-1.34,0-.31-.28,0,0-.62s.21.11.38-.59l-.49-.13-.11,0-.1-.05a.66.66,0,0,1-.2-1c.36-.43.88-.49.27-1.24L39,29l.26-.23.07-.08c.13-.12.2-.21.36-.35l1.92-2.06c-.34-.13-.28,0-.61-.2l-.48-.37c.07-.47.12-.41.35-.72-.24-.84-.29.19-.32-.66a3,3,0,0,1,1,0c.33.11.42.46.62.72,0,0,0-.15.06-.12l.4-.76c.32-.74-.26-.8.46-1,0-.05-.05-.14-.06-.12S43,23,43,23c-.6-1.18.2-.59-.59-1.45l-.07-.07c-.41-.45-.33-1-.34-1.58l-.15-.09s-.06,0-.07-.06l-.51-.42V17.54a1.19,1.19,0,0,1,.66.05l.08,0,.5,0c1.48-.25.55.17,1.4.3,0-.6-.24-1.25.36-1.58l-.34-.57a3.17,3.17,0,0,0,.94-.86C46,14.85,47.26,14.8,48.36,14.84Z"/><path class="cls-5" d="M117,71.6H368l-1-.6H116Z"/><path class="cls-6" d="M149.65,49.83a6.14,6.14,0,0,0-2.17-.95,13.48,13.48,0,0,0-4.9-.14,4.44,4.44,0,0,0-1.32.43,1.7,1.7,0,0,0-.69.62,1.51,1.51,0,0,0-.2.72,1.36,1.36,0,0,0,.28.88,3.28,3.28,0,0,0,.42.5,5,5,0,0,1,1.19-.58,7.05,7.05,0,0,1,2.38-.33,8.9,8.9,0,0,1,1.61.13,3.38,3.38,0,0,1,1.25.46,2.43,2.43,0,0,1,.82.94,3.5,3.5,0,0,1,.29,1.51q-.44-.06-1.32-.12c-.59,0-1.21-.06-1.87-.06a13.5,13.5,0,0,0-2.92.27,5,5,0,0,0-1.93.82,3,3,0,0,0-1.07,1.35,4.92,4.92,0,0,0-.32,1.87,4.77,4.77,0,0,0,.27,1.58,3,3,0,0,0,1,1.35,5.64,5.64,0,0,0,2,.93,12.67,12.67,0,0,0,3.32.35c.67,0,1.32,0,1.95,0s1.18-.07,1.69-.11l1.31-.13.82-.12V54.12a5.92,5.92,0,0,0-.51-2.57A4.43,4.43,0,0,0,149.65,49.83Zm-1,10.14c-.16,0-.47.08-.94.15a15.53,15.53,0,0,1-1.89.09,8.82,8.82,0,0,1-1.78-.15,3.21,3.21,0,0,1-1.14-.41,1.54,1.54,0,0,1-.58-.67,2.15,2.15,0,0,1-.17-.85,1.85,1.85,0,0,1,.81-1.68,4.72,4.72,0,0,1,2.57-.53,16.4,16.4,0,0,1,2.15.1c.47.07.8.12,1,.16Z"/><path class="cls-6" d="M135.41,42.84a1.76,1.76,0,0,0-1.17.34,1.25,1.25,0,0,0-.42,1V62h3V43.12l-.52-.16A2.93,2.93,0,0,0,135.41,42.84Z"/><path class="cls-6" d="M200.43,50.55a6.89,6.89,0,0,0-2.28-1.45,7.68,7.68,0,0,0-2.82-.52,7.76,7.76,0,0,0-2.82.52,7,7,0,0,0-2.27,1.45,6.56,6.56,0,0,0-1.51,2.18,6.91,6.91,0,0,0-.55,2.74,6.81,6.81,0,0,0,.55,2.72,6.7,6.7,0,0,0,1.51,2.19,7.12,7.12,0,0,0,2.27,1.45,7.77,7.77,0,0,0,5.64,0,7.05,7.05,0,0,0,2.28-1.45,7,7,0,0,0,1.51-7.65A6.71,6.71,0,0,0,200.43,50.55Zm-1.34,6.6a4.43,4.43,0,0,1-.83,1.35,3.69,3.69,0,0,1-1.29.91,4.27,4.27,0,0,1-3.29,0,3.61,3.61,0,0,1-1.27-.91,4.24,4.24,0,0,1-.83-1.35,4.56,4.56,0,0,1-.3-1.68,4.79,4.79,0,0,1,.3-1.7,4,4,0,0,1,.83-1.36,3.86,3.86,0,0,1,1.27-.9,4.27,4.27,0,0,1,3.29,0,3.94,3.94,0,0,1,1.29.9,4.14,4.14,0,0,1,.83,1.36,4.79,4.79,0,0,1,.3,1.7A4.56,4.56,0,0,1,199.09,57.15Z"/><path class="cls-6" d="M161.28,59.5a4.09,4.09,0,0,1-1.41.24,3.82,3.82,0,0,1-.9-.11,2,2,0,0,1-.75-.36,1.64,1.64,0,0,1-.51-.69,2.84,2.84,0,0,1-.18-1.1v-5.8h5a4.42,4.42,0,0,0,.21-.53,2.47,2.47,0,0,0,.13-.82,1.41,1.41,0,0,0-.35-1A1.7,1.7,0,0,0,161.3,49h-3.77V45.54l-.53-.17a3.45,3.45,0,0,0-.87-.11,1.81,1.81,0,0,0-1.15.32,1.28,1.28,0,0,0-.41,1.05V58.07a4.22,4.22,0,0,0,1.17,3.11,4.65,4.65,0,0,0,3.46,1.18,6.89,6.89,0,0,0,1.48-.14,7.37,7.37,0,0,0,1.22-.35,6.12,6.12,0,0,0,.92-.44l.59-.39-1.2-2A3.69,3.69,0,0,1,161.28,59.5Z"/><path class="cls-6" d="M174.64,49.83a6.22,6.22,0,0,0-2.17-.95,13.48,13.48,0,0,0-4.9-.14,4.41,4.41,0,0,0-1.33.43,1.7,1.7,0,0,0-.69.62,1.49,1.49,0,0,0-.19.72,1.42,1.42,0,0,0,.27.88,2.74,2.74,0,0,0,.43.5,4.65,4.65,0,0,1,1.18-.58,7.05,7.05,0,0,1,2.38-.33,8.82,8.82,0,0,1,1.61.13,3.32,3.32,0,0,1,1.25.46,2.35,2.35,0,0,1,.82.94,3.36,3.36,0,0,1,.3,1.51c-.3,0-.74-.08-1.33-.12s-1.21-.06-1.87-.06a13.46,13.46,0,0,0-2.91.27,5.1,5.1,0,0,0-1.94.82,3,3,0,0,0-1.06,1.35,4.92,4.92,0,0,0-.33,1.87,4.77,4.77,0,0,0,.27,1.58,3,3,0,0,0,1,1.35,5.56,5.56,0,0,0,2,.93,12.59,12.59,0,0,0,3.31.35c.68,0,1.33,0,2,0s1.19-.07,1.69-.11l1.31-.13.82-.12V54.12a6.07,6.07,0,0,0-.5-2.57A4.43,4.43,0,0,0,174.64,49.83Zm-1,10.14c-.15,0-.46.08-.93.15a15.71,15.71,0,0,1-1.9.09,8.89,8.89,0,0,1-1.78-.15,3.15,3.15,0,0,1-1.13-.41,1.57,1.57,0,0,1-.59-.67,2.15,2.15,0,0,1-.17-.85,1.85,1.85,0,0,1,.81-1.68,4.76,4.76,0,0,1,2.57-.53,16.3,16.3,0,0,1,2.15.1c.48.07.8.12,1,.16Z"/><path class="cls-6" d="M183.17,46a2.69,2.69,0,0,1,2.18-.78,5.37,5.37,0,0,1,1.52.21,3.31,3.31,0,0,1,1.13.54,2,2,0,0,0,.54-.52,1.29,1.29,0,0,0,.24-.78,1.46,1.46,0,0,0-.88-1.28,6.47,6.47,0,0,0-3-.51,7.23,7.23,0,0,0-2.14.3,4.49,4.49,0,0,0-1.69.93,4.22,4.22,0,0,0-1.11,1.65,6.79,6.79,0,0,0-.39,2.42V62h3V51.68h5.12c.05-.11.12-.28.21-.53a2.76,2.76,0,0,0,.13-.82,1.37,1.37,0,0,0-.36-1,1.67,1.67,0,0,0-1.2-.35h-3.9v-.78A3.33,3.33,0,0,1,183.17,46Z"/><path class="cls-6" d="M213.05,49a6.65,6.65,0,0,0-2.66-.46,5.86,5.86,0,0,0-4.07,1.32,4.7,4.7,0,0,0-1.47,3.7V62h3V54.46c0-2.15,1-3.22,3-3.22a5.63,5.63,0,0,1,1.49.18,7.11,7.11,0,0,1,1.09.39,1.7,1.7,0,0,0,.4-.52,1.61,1.61,0,0,0,.25-.86A1.47,1.47,0,0,0,213.05,49Z"/><path class="cls-6" d="M129.25,45.54q-2-1.63-6.19-1.64c-1.35,0-2.39,0-3.12.1s-1.23.11-1.51.16a2.24,2.24,0,0,0-1,.5,1.5,1.5,0,0,0-.42,1.19V62h3V55.66a2.68,2.68,0,0,1,.41.05l.81.09,1,.08c.38,0,.75,0,1.11,0a13,13,0,0,0,3.67-.46,6.53,6.53,0,0,0,2.44-1.26,4.74,4.74,0,0,0,1.36-1.91,6.45,6.45,0,0,0,.43-2.38A5.33,5.33,0,0,0,129.25,45.54Zm-1.38,5.68a2.59,2.59,0,0,1-.8,1.08,3.85,3.85,0,0,1-1.52.73,9.42,9.42,0,0,1-2.39.26,15.43,15.43,0,0,1-2.13-.12L120,53V46.69a6.8,6.8,0,0,1,1-.11c.5,0,1.17,0,2,0a9.55,9.55,0,0,1,2.56.29,4.33,4.33,0,0,1,1.57.75,2.24,2.24,0,0,1,.78,1.08,3.87,3.87,0,0,1,.21,1.26A3.72,3.72,0,0,1,127.87,51.22Z"/><path class="cls-6" d="M249.38,49.83a6.14,6.14,0,0,0-2.17-.95,13.48,13.48,0,0,0-4.9-.14,4.44,4.44,0,0,0-1.32.43,1.7,1.7,0,0,0-.69.62,1.51,1.51,0,0,0-.2.72,1.36,1.36,0,0,0,.28.88,3.28,3.28,0,0,0,.42.5,5,5,0,0,1,1.19-.58,7.05,7.05,0,0,1,2.38-.33,8.9,8.9,0,0,1,1.61.13,3.38,3.38,0,0,1,1.25.46,2.43,2.43,0,0,1,.82.94,3.5,3.5,0,0,1,.29,1.51q-.43-.06-1.32-.12c-.59,0-1.21-.06-1.87-.06a13.5,13.5,0,0,0-2.92.27,5,5,0,0,0-1.93.82,3,3,0,0,0-1.07,1.35,5.12,5.12,0,0,0-.32,1.87,4.77,4.77,0,0,0,.27,1.58,3,3,0,0,0,1,1.35,5.64,5.64,0,0,0,2,.93,12.67,12.67,0,0,0,3.32.35c.67,0,1.32,0,2,0s1.18-.07,1.69-.11l1.31-.13.82-.12V54.12a5.92,5.92,0,0,0-.51-2.57A4.43,4.43,0,0,0,249.38,49.83Zm-1,10.14c-.16,0-.47.08-.94.15a15.53,15.53,0,0,1-1.89.09,8.82,8.82,0,0,1-1.78-.15,3.21,3.21,0,0,1-1.14-.41A1.54,1.54,0,0,1,242,59a2.15,2.15,0,0,1-.17-.85,1.85,1.85,0,0,1,.81-1.68,4.72,4.72,0,0,1,2.57-.53,16.4,16.4,0,0,1,2.15.1c.47.07.8.12,1,.16Z"/><path class="cls-7" d="M338.74,43.1a1.8,1.8,0,0,0-1.28,3.07,1.82,1.82,0,0,0,2.55,0,1.8,1.8,0,0,0-1.27-3.07Z"/><path class="cls-7" d="M338.84,49a1.91,1.91,0,0,0-1.17.32,1.26,1.26,0,0,0-.42,1.06V62h3V49.23l-.52-.16A2.93,2.93,0,0,0,338.84,49Z"/><path class="cls-7" d="M333.59,59.5a4.05,4.05,0,0,1-1.41.24,3.68,3.68,0,0,1-.89-.11,2,2,0,0,1-.76-.36,1.71,1.71,0,0,1-.5-.69,2.65,2.65,0,0,1-.19-1.1v-5.8h5a4.84,4.84,0,0,0,.2-.53,2.47,2.47,0,0,0,.13-.82,1.37,1.37,0,0,0-.35-1,1.68,1.68,0,0,0-1.21-.35h-3.77V45.54l-.53-.17a3.45,3.45,0,0,0-.87-.11,1.76,1.76,0,0,0-1.14.32,1.25,1.25,0,0,0-.42,1.05V58.07a4.22,4.22,0,0,0,1.17,3.11,4.65,4.65,0,0,0,3.46,1.18,6.83,6.83,0,0,0,1.48-.14,7.37,7.37,0,0,0,1.22-.35,5.68,5.68,0,0,0,.92-.44c.26-.16.45-.29.59-.39l-1.2-2A3.69,3.69,0,0,1,333.59,59.5Z"/><path class="cls-7" d="M352.27,59.39a5.34,5.34,0,0,1-2.1.35,5.44,5.44,0,0,1-1.69-.25,3.71,3.71,0,0,1-1.37-.77,3.48,3.48,0,0,1-.94-1.32,5.16,5.16,0,0,1-.34-1.95,4.91,4.91,0,0,1,.33-1.89,3.64,3.64,0,0,1,.88-1.32,3.59,3.59,0,0,1,1.33-.8,5.71,5.71,0,0,1,3.83.15,5.08,5.08,0,0,1,1.35.84,3.83,3.83,0,0,0,.67-.67,1.56,1.56,0,0,0,.35-1,1.41,1.41,0,0,0-.25-.78,2.16,2.16,0,0,0-.8-.7,5.71,5.71,0,0,0-1.46-.52,9.66,9.66,0,0,0-2.17-.21,8.6,8.6,0,0,0-2.82.46,6.15,6.15,0,0,0-3.79,3.52,7.71,7.71,0,0,0-.54,3,7.09,7.09,0,0,0,.56,2.93,6.21,6.21,0,0,0,1.52,2.15,6.41,6.41,0,0,0,2.23,1.31,8.14,8.14,0,0,0,2.73.44,9.4,9.4,0,0,0,1.68-.13,8.38,8.38,0,0,0,1.33-.32,8.64,8.64,0,0,0,1-.42,5.14,5.14,0,0,0,.76-.43l-1.24-2.21A8.63,8.63,0,0,1,352.27,59.39Z"/><path class="cls-7" d="M367.4,51.55A4.43,4.43,0,0,0,366,49.83a6.14,6.14,0,0,0-2.17-.95,13.48,13.48,0,0,0-4.9-.14,4.51,4.51,0,0,0-1.33.43,1.7,1.7,0,0,0-.69.62,1.49,1.49,0,0,0-.19.72,1.44,1.44,0,0,0,.27.88,3.77,3.77,0,0,0,.43.5,4.84,4.84,0,0,1,1.18-.58A7.09,7.09,0,0,1,361,51a9,9,0,0,1,1.62.13,3.27,3.27,0,0,1,1.24.46,2.35,2.35,0,0,1,.82.94,3.36,3.36,0,0,1,.3,1.51q-.44-.06-1.32-.12c-.59,0-1.22-.06-1.88-.06a13.46,13.46,0,0,0-2.91.27,5.1,5.1,0,0,0-1.94.82,3.1,3.1,0,0,0-1.06,1.35,4.92,4.92,0,0,0-.33,1.87,4.54,4.54,0,0,0,.28,1.58,3,3,0,0,0,1,1.35,5.56,5.56,0,0,0,2,.93,12.64,12.64,0,0,0,3.31.35c.68,0,1.33,0,1.95,0s1.19-.07,1.69-.11l1.32-.13.82-.12V54.12A5.92,5.92,0,0,0,367.4,51.55ZM365,60c-.16,0-.47.08-.94.15a15.71,15.71,0,0,1-1.9.09,8.89,8.89,0,0,1-1.78-.15,3.22,3.22,0,0,1-1.13-.41,1.48,1.48,0,0,1-.58-.67,2,2,0,0,1-.17-.85,1.87,1.87,0,0,1,.8-1.68,4.78,4.78,0,0,1,2.58-.53A16.13,16.13,0,0,1,364,56c.48.07.8.12,1,.16Z"/><path class="cls-7" d="M323.27,55.44a7.1,7.1,0,0,0-3.36-1.19l-2.65-.34a3.94,3.94,0,0,1-1.64-.48,1.12,1.12,0,0,1-.57-1c0-1.06,1-1.59,3-1.59A9.93,9.93,0,0,1,320,51a9,9,0,0,1,1.43.39,5.07,5.07,0,0,1,.95.44,2.71,2.71,0,0,1,.45.33,1.06,1.06,0,0,0,.24-.15,1.41,1.41,0,0,0,.3-.3,3.21,3.21,0,0,0,.26-.41,1.2,1.2,0,0,0,.11-.55c0-.64-.49-1.16-1.49-1.56a11.68,11.68,0,0,0-4.2-.6,9.88,9.88,0,0,0-2.74.33,5.18,5.18,0,0,0-1.84.9,3.52,3.52,0,0,0-1,1.31,3.81,3.81,0,0,0-.33,1.57,3.65,3.65,0,0,0,.35,1.65,3.32,3.32,0,0,0,1,1.16,4.83,4.83,0,0,0,1.49.74,9.79,9.79,0,0,0,1.91.38l2,.23a4.45,4.45,0,0,1,1.95.54,1.32,1.32,0,0,1-.31,2.31,6,6,0,0,1-2.21.35,10.5,10.5,0,0,1-1.92-.16,12.77,12.77,0,0,1-1.58-.37,11.56,11.56,0,0,1-1.15-.43,3.56,3.56,0,0,1-.65-.34l-1.12,2a3.67,3.67,0,0,0,.67.39,10.58,10.58,0,0,0,1.37.54,16.23,16.23,0,0,0,2,.48,15.17,15.17,0,0,0,2.55.2,7.31,7.31,0,0,0,4.46-1.17,3.71,3.71,0,0,0,1.54-3.12A3.08,3.08,0,0,0,323.27,55.44Z"/><path class="cls-7" d="M264.09,44.48a5.28,5.28,0,0,0-.54-.19,3.28,3.28,0,0,0-.91-.13,1.87,1.87,0,0,0-1.2.36,1.29,1.29,0,0,0-.44,1.07V62h12.27V59.17h-9.18Z"/><path class="cls-7" d="M286,50.55a6.84,6.84,0,0,0-2.27-1.45,7.76,7.76,0,0,0-2.82-.52,7.68,7.68,0,0,0-2.82.52,6.89,6.89,0,0,0-2.28,1.45,6.53,6.53,0,0,0-1.5,2.18,6.9,6.9,0,0,0,1.5,7.65,7.05,7.05,0,0,0,2.28,1.45,7.77,7.77,0,0,0,5.64,0A7,7,0,0,0,286,60.38a6.55,6.55,0,0,0,1.51-2.19,7.05,7.05,0,0,0,0-5.46A6.42,6.42,0,0,0,286,50.55Zm-1.33,6.6a4.27,4.27,0,0,1-.84,1.35,3.56,3.56,0,0,1-1.28.91,4.07,4.07,0,0,1-1.64.33,4,4,0,0,1-1.65-.33A3.65,3.65,0,0,1,278,58.5a4.43,4.43,0,0,1-.83-1.35,4.56,4.56,0,0,1-.3-1.68,4.79,4.79,0,0,1,.3-1.7,4.14,4.14,0,0,1,.83-1.36,3.9,3.9,0,0,1,1.28-.9,4,4,0,0,1,1.65-.33,4.07,4.07,0,0,1,1.64.33,3.8,3.8,0,0,1,1.28.9,4,4,0,0,1,.84,1.36,4.79,4.79,0,0,1,.3,1.7A4.56,4.56,0,0,1,284.65,57.15Z"/><path class="cls-6" d="M235,49.83a5,5,0,0,0-1.79-.93,7.67,7.67,0,0,0-2.24-.32,6.46,6.46,0,0,0-2.83.6,4.82,4.82,0,0,0-2,1.77,4.84,4.84,0,0,0-2-1.77,6.7,6.7,0,0,0-2.89-.6,7.48,7.48,0,0,0-2.26.33,5.48,5.48,0,0,0-1.81,1,4.24,4.24,0,0,0-1.2,1.56,5,5,0,0,0-.45,2.18V62h3V54.62a3.43,3.43,0,0,1,.83-2.58,3,3,0,0,1,2.18-.78,3.11,3.11,0,0,1,2.23.86,3.74,3.74,0,0,1,.89,2.78V62h3V54.9a3.74,3.74,0,0,1,.89-2.78,3.11,3.11,0,0,1,2.23-.86,3,3,0,0,1,2.18.77,3.4,3.4,0,0,1,.81,2.56V62h3V53.58a5.16,5.16,0,0,0-.44-2.19A4.53,4.53,0,0,0,235,49.83Z"/><path class="cls-7" d="M308.24,49a1.91,1.91,0,0,0-1.17.32,1.26,1.26,0,0,0-.42,1.06V62h3V49.23l-.52-.16A2.93,2.93,0,0,0,308.24,49Z"/><path class="cls-7" d="M302,50.38a5.88,5.88,0,0,0-2.2-1.35,8.08,8.08,0,0,0-2.74-.45,7.83,7.83,0,0,0-2.87.52,6.82,6.82,0,0,0-2.25,1.43,6.47,6.47,0,0,0-1.47,2.16,6.79,6.79,0,0,0-.54,2.73,7.18,7.18,0,0,0,.5,2.71,6.15,6.15,0,0,0,1.38,2.09,6.21,6.21,0,0,0,2.1,1.35,7.3,7.3,0,0,0,2.68.48,5.63,5.63,0,0,0,2.72-.62A6.28,6.28,0,0,0,301,60.1v.31a5.56,5.56,0,0,1-.43,2.34,3.75,3.75,0,0,1-1.11,1.42,4,4,0,0,1-1.53.7,7.8,7.8,0,0,1-1.74.2,10.66,10.66,0,0,1-1.55-.11,12.73,12.73,0,0,1-1.25-.24,7.56,7.56,0,0,1-.88-.29l-.46-.19-2.8,3.21a6.56,6.56,0,0,0,.65.27c.29.11.66.22,1.11.34a13.6,13.6,0,0,0,1.55.28,14.31,14.31,0,0,0,1.94.12,9.8,9.8,0,0,0,3-.43,20,20,0,0,0,4.35-2.36,6.51,6.51,0,0,0,1.55-2.41,10,10,0,0,0,.55-3.52V56a9.45,9.45,0,0,0-.52-3.3A6.08,6.08,0,0,0,302,50.38Zm-1.29,6.71a4,4,0,0,1-.82,1.3,3.56,3.56,0,0,1-1.25.85,4,4,0,0,1-1.61.32,3.88,3.88,0,0,1-2.91-1.13,4.15,4.15,0,0,1-1.09-3,4.51,4.51,0,0,1,.28-1.61,4.4,4.4,0,0,1,.81-1.33,3.65,3.65,0,0,1,1.26-.89,4.05,4.05,0,0,1,1.65-.33,4.16,4.16,0,0,1,1.61.31,3.5,3.5,0,0,1,1.25.88,4,4,0,0,1,.82,1.32,4.74,4.74,0,0,1,0,3.32Z"/><path class="cls-7" d="M311,44a1.5,1.5,0,0,0-.47-.47,1.23,1.23,0,0,0-.71-.19,1.64,1.64,0,0,0-.69.14,3.53,3.53,0,0,0-.71.43l-2.84,2,1,1.35,4.81-2.41a1.42,1.42,0,0,0-.09-.37A2.35,2.35,0,0,0,311,44Z"/></svg>